<?xml version="1.0" encoding="UTF-8"?><svg id="Layer_2" xmlns="http://www.w3.org/2000/svg" width="338.13" height="481.74" viewBox="0 0 338.13 481.74"><defs><style>.cls-1{fill:#efb023;}.cls-1,.cls-2,.cls-3,.cls-4,.cls-5,.cls-6,.cls-7,.cls-8,.cls-9,.cls-10,.cls-11,.cls-12,.cls-13,.cls-14{stroke-width:0px;}.cls-2{fill:#f1aa19;}.cls-3{fill:#f2ae1d;}.cls-4{fill:#f1ab14;}.cls-5{fill:#f2b021;}.cls-6{fill:#f2ac15;}.cls-7{fill:#f2ad1a;}.cls-8{fill:#f1a812;}.cls-9{fill:#0988cb;}.cls-10{fill:#f1aa11;}.cls-11{fill:#f2ae1f;}.cls-12{fill:#0384ca;}.cls-13{fill:#f2ae1c;}.cls-14{fill:#0a89cc;}</style></defs><g id="Layer_1-2"><path class="cls-12" d="M188.02,201.81c-19.25-.16-33.58,14.18-33.72,33.76-.16,19.87,13.5,33.88,33.13,34.03,19.8.16,33.64-13.58,33.75-33.46.09-19.67-13.91-34.17-33.16-34.34ZM187.15,259.01c-14.04-.84-21.73-8.9-22.4-22.86-.64-13.2,10.6-24.5,23.62-23.53,13.84,1.04,21.15,9.43,22.87,21.61.11,14.22-11.17,25.55-24.09,24.78Z"/><path class="cls-12" d="M206.38,136.61c-14.43-2.43-16.47-8.47-13.05-20.23.92-3.64,2-7.27.05-10.92-.39-26.84-.8-53.69-1.17-80.53-.22-15.95-8.29-24.66-24.2-24.74C120.2-.05,72.39-.08,24.58.2,8.86.29.29,8.77.28,24.81c-.07,63.36-.16,126.7.04,190.04.05,17.62,8.51,25.47,26.75,25.79,12.55.21,25.28,1.37,37.61-.3,16.3-2.19,21.61,3.83,25.13,19.66,11.16,50.4,58.34,82.51,109.69,77,46.76-5,86.74-46,88.99-91.25,2.78-56.06-29.75-100.31-82.11-109.13ZM87.48,220.83c-1.39,7.22-3.14,10.26-10.83,10.02-16.11-.51-32.25-.34-48.37-.13-12.95.17-18.69-6.92-18.72-18.83-.2-60.91-.18-121.83-.04-182.73.04-13.03,6.68-19.46,20.26-19.2,22.09.42,44.18.1,66.28.1s44.2.33,66.28-.12c14.52-.28,20.83,6.74,20.84,20.56.03,31.05-.3,62.11.24,93.16.14,8.69-3.35,10.77-11.11,12.19-47.7,8.71-75.69,37.82-84.82,84.97ZM187.25,326.73c-50.26-.16-90.43-41.02-90.18-91.74.25-50.08,41.81-90.79,91.97-90.1,50.13.7,89.68,41.83,89.2,92.77-.47,49.36-41.2,89.22-90.98,89.08Z"/><path class="cls-14" d="M63.25,384.77c-19.28-.38-34.02,13.98-34.24,33.37-.24,19.87,13.47,34.15,33.01,34.42,19.33.26,34.34-14.09,34.69-33.16.34-18.92-14.47-34.25-33.46-34.63ZM61.91,442.11c-13.28-.41-23.54-11.49-22.31-24.86,1.3-14.12,10.04-21.88,23.69-21.52,13.75.35,21.77,9.14,22.62,22.9.79,12.76-11.13,23.88-24,23.48Z"/><path class="cls-6" d="M269.25,335.8c-5.8-1.47-5.51-6.1-2.52-9.29,11.43-12.21,21.47-25.31,30.15-39.63,2.48-4.09,7.46-4.2,8.8,2.16,1.72,8.18-28.38,47-36.43,46.77Z"/><path class="cls-7" d="M62.8,355.81c1.71,0,2.32-.09,2.9.01,6.02,1.07,16.47-3.17,16.84,4.79.43,9.05-10.07,5.17-15.86,5.5-10.29.58-20.02,2.4-29.28,7.1-3.79,1.93-8.81,7.54-12.19,1.34-3.48-6.38,3.1-9.28,7.75-11.67,9.66-4.99,19.86-8.07,29.83-7.07Z"/><path class="cls-5" d="M135.53,365.94c-8.36,0-16.73.24-25.07-.19-1.84-.09-4.68-2.29-5.09-4-.84-3.46,2.06-5.5,5.17-5.54,16.73-.26,33.46-.27,50.19-.29,3.39,0,6.25,2.14,6.23,5.17-.02,3.04-2.94,5.05-6.32,5.08-8.37.07-16.74.02-25.11.02,0-.08,0-.17,0-.25Z"/><path class="cls-2" d="M307.2,238.41c-.5-6.9-1.28-15.23-1.64-23.57-.19-4.34-2.91-11.06,4.02-11.52,5.75-.38,6.66,6.34,6.85,10.83.58,13.71.62,27.44.45,41.17-.05,4.17-1.55,9.29-6.67,8.86-5.76-.49-4.55-5.95-4.32-10.01.27-4.76.77-9.52,1.3-15.76Z"/><path class="cls-7" d="M64,481.53c-9.51.91-19.93-1.04-29.69-6.33-3.34-1.81-6.5-4.07-4.99-8.22,1.68-4.59,5.83-3.57,8.96-1.91,12.21,6.47,25.38,6.05,38.55,6.08,4.67,0,11.37-.63,11.12,5.54-.25,6.39-7.2,4.51-11.71,4.79-3.57.23-7.17.05-12.26.05Z"/><path class="cls-3" d="M225.84,471.47c7.73,0,15.46-.18,23.18.09,3.04.11,6.14,1.83,5.97,5.24-.17,3.5-3.47,4.58-6.56,4.6-16.07.1-32.13.06-48.2.04-3.2,0-6.54-1.09-6.67-4.45-.17-4.33,3.52-5.69,7.29-5.74,8.33-.12,16.66-.04,24.99-.04,0,.09,0,.18,0,.28Z"/><path class="cls-4" d="M200.88,366.11c-5.7.09-11.08.31-11.69-4.74-.65-5.45,4.72-5.6,8.88-6.06,13.74-1.48,26.9-5.14,39.6-10.59,3.74-1.61,8.45-3.79,10.43,2.02,1.47,4.34-2.64,6.32-5.75,7.8-13.58,6.47-28.03,9.91-41.48,11.57Z"/><path class="cls-8" d="M.17,419.07c0-2.8-.16-4.61.03-6.38.89-8.15.99-21.64,9.22-20.46,11.74,1.68.84,12.47,1.25,19.25.58,9.52-.34,19.07,3.86,28.09,1.84,3.94,3.01,9.71-.97,11.27-5.9,2.32-7.37-4.2-9.35-8.32-3.72-7.73-4.63-15.98-4.03-23.44Z"/><path class="cls-13" d="M139.96,481.44c-7.74,0-15.48.03-23.22-.02-3.21-.02-6.37-1.19-6.66-4.54-.28-3.27,2.57-5.36,5.71-5.39,16.66-.17,33.32-.17,49.98-.02,3.16.03,6.01,2.15,5.79,5.34-.22,3.32-3.38,4.6-6.6,4.62-8.33.06-16.67.02-25.01.01Z"/><path class="cls-10" d="M267.01,133.84c7.08.88,12.9,8.8,17.15,13.85,5.7,6.76,12.28,13,16.47,20.88,1.57,2.95,2.84,6.8,1.58,10.09-1.53,4-4.92,5.01-8.14,1.97-1.53-1.45-2.52-3.36-3.54-5.2-6.93-12.49-17.01-21.59-26.57-31.93-2.02-2.18-4.12-4.72-1.71-7.73,1.31-1.63,2.95-2.16,4.76-1.93Z"/><path class="cls-11" d="M307.15,481.43c-7.74,0-15.49.09-23.22-.04-3.03-.05-6.36-.83-6.52-4.5-.15-3.48,2.82-5.27,5.89-5.31,16.06-.22,32.13-.25,48.2-.15,3.12.02,6.54,1.76,6.64,4.84.14,4.67-4.14,5.13-7.75,5.19-7.74.14-15.49.04-23.23.04,0-.02,0-.04,0-.07Z"/><path class="cls-1" d="M193.32,116.38c-1.63-3.65-1.49-7.3.06-10.93,14.92.39,29.31,3.33,43.08,9.11,4.37,1.83,9.89,3.76,7.19,9.85-2.3,5.19-7.18,2.5-10.82.95-12.65-5.39-25.84-8.19-39.51-8.97Z"/><path class="cls-9" d="M188.02,201.81c-19.25-.16-33.58,14.18-33.72,33.76-.16,19.87,13.5,33.88,33.13,34.03,19.8.16,33.64-13.58,33.75-33.46.09-19.67-13.91-34.17-33.16-34.34ZM187.15,259.01c-14.04-.84-21.73-8.9-22.4-22.86-.64-13.2,10.6-24.5,23.62-23.53,13.84,1.04,21.15,9.43,22.87,21.61.11,14.22-11.17,25.55-24.09,24.78Z"/></g></svg>