<svg width="184" height="211" viewBox="0 0 184 211" fill="none" xmlns="http://www.w3.org/2000/svg">
<path d="M35.5132 211H13.7126C12.6465 211 11.7642 210.12 11.7642 209.057V197.212C11.7642 196.149 12.6465 195.269 13.7126 195.269H35.5132C36.5793 195.269 37.4617 196.149 37.4617 197.212V209.057C37.4617 210.12 36.5793 211 35.5132 211ZM15.6611 207.113H33.5648V199.192H15.6611V207.113Z" fill="#0096DA"/>
<path d="M174.221 125.082H158.56C153.156 125.082 148.781 120.682 148.781 115.328V37.2204C148.781 36.1569 149.663 35.2769 150.729 35.2769H182.051C183.118 35.2769 184 36.1569 184 37.2204V115.328C184 120.718 179.625 125.082 174.221 125.082ZM152.678 39.1639V115.328C152.678 118.555 155.325 121.195 158.56 121.195H174.221C177.456 121.195 180.103 118.555 180.103 115.328V39.1639H152.714H152.678Z" fill="#FDB515"/>
<path d="M107.643 211H85.842C84.7759 211 83.8936 210.12 83.8936 209.057V197.212C83.8936 196.149 84.7759 195.269 85.842 195.269H107.643C108.709 195.269 109.591 196.149 109.591 197.212V209.057C109.591 210.12 108.709 211 107.643 211ZM87.7905 207.113H105.694V199.192H87.7905V207.113Z" fill="#0096DA"/>
<path d="M92.0183 62.5958H29.3737C28.3076 62.5958 27.4253 61.7158 27.4253 60.6523V17.7116C27.4253 16.6115 28.3076 15.7681 29.3737 15.7681H92.0183C93.0844 15.7681 93.9667 16.6481 93.9667 17.7116V60.6523C93.9667 61.7524 93.0844 62.5958 92.0183 62.5958ZM31.3222 58.7088H90.0331V19.6551H31.3222V58.7088Z" fill="#0096DA"/>
<path d="M119.407 199.156H1.94845C0.882318 199.156 0 198.276 0 197.212V84.0848C0 78.6943 4.37483 74.3306 9.77902 74.3306H111.576C116.981 74.3306 121.355 78.6943 121.355 84.0848V197.212C121.355 198.276 120.473 199.156 119.407 199.156ZM3.93367 195.269H117.459V84.0848C117.459 80.8579 114.812 78.2176 111.576 78.2176H9.77902C6.54386 78.2176 3.8969 80.8579 3.8969 84.0848V195.269H3.93367Z" fill="#0096DA"/>
<path d="M119.407 93.8389C118.341 93.8389 117.459 92.9588 117.459 91.8954V72.2402L106.834 8.80083C106.356 5.97723 103.93 3.92371 101.062 3.92371H20.3301C17.4625 3.92371 14.9994 5.97723 14.5215 8.80083L3.8969 72.5702V91.8954C3.8969 92.9955 3.05135 93.8389 1.94845 93.8389C0.845554 93.8389 0 92.9588 0 91.8954V72.2402L10.6613 8.17744C11.4701 3.44699 15.5141 0 20.3301 0H101.025C105.841 0 109.885 3.44699 110.694 8.17744L121.355 71.9468V91.932C121.355 93.0321 120.51 93.8756 119.444 93.8756" fill="#0096DA"/>
<path d="M150.729 199.302C141.024 199.302 133.12 191.418 133.12 181.737V173.926C133.12 166.372 126.98 160.248 119.407 160.248C118.341 160.248 117.458 159.368 117.458 158.305C117.458 157.242 118.341 156.361 119.407 156.361C129.112 156.361 137.017 164.246 137.017 173.926V181.737C137.017 189.291 143.156 195.415 150.729 195.415C158.302 195.415 164.442 189.291 164.442 181.737V123.175C164.442 122.112 165.324 121.231 166.39 121.231C167.456 121.231 168.339 122.112 168.339 123.175V181.737C168.339 191.418 160.435 199.302 150.729 199.302Z" fill="#0096DA"/>
</svg>
