<?xml version="1.0" encoding="UTF-8"?><svg id="Layer_2" xmlns="http://www.w3.org/2000/svg" width="352.01" height="487.79" viewBox="0 0 352.01 487.79"><defs><style>.cls-1{fill:#0784c9;}.cls-1,.cls-2,.cls-3,.cls-4{stroke-width:0px;}.cls-2{fill:#0985ca;}.cls-3{fill:#0282c8;}.cls-4{fill:#f1a509;}</style></defs><g id="Layer_1-2"><path class="cls-3" d="M294.95,173.82c-15.54.66-26.34,12.29-26.12,28.13.24,16.23,12.61,27.85,28.87,27.09,14.98-.68,26.9-13.28,26.61-28.13-.32-15.76-13.31-27.77-29.36-27.09ZM294.99,218.99c-10.85-.62-16.89-7.75-16.58-17.96.36-11.17,7.41-17.75,19.07-17.12,10.88.59,15.7,7.69,17.01,17.94-2.01,10.88-7.84,17.79-19.51,17.13ZM294.95,173.82c-15.54.66-26.34,12.29-26.12,28.13.24,16.23,12.61,27.85,28.87,27.09,14.98-.68,26.9-13.28,26.61-28.13-.32-15.76-13.31-27.77-29.36-27.09ZM294.99,218.99c-10.85-.62-16.89-7.75-16.58-17.96.36-11.17,7.41-17.75,19.07-17.12,10.88.59,15.7,7.69,17.01,17.94-2.01,10.88-7.84,17.79-19.51,17.13ZM139.97,330.4c-15.81-.36-28.45,12.2-28.33,28.13.12,15.37,11.81,27.3,27.08,27.65,15.9.35,28.43-12.1,28.31-28.12-.11-15.19-11.99-27.33-27.06-27.67ZM139.12,376.13c-10.2-.05-17.09-6.31-17.34-17.19-.27-11.74,6.69-18.35,17.81-18.47,10.46-.12,16.12,6.9,17.66,15.99-.63,12.79-6.94,19.73-18.12,19.67ZM294.95,173.82c-15.54.66-26.34,12.29-26.12,28.13.24,16.23,12.61,27.85,28.87,27.09,14.98-.68,26.9-13.28,26.61-28.13-.32-15.76-13.31-27.77-29.36-27.09ZM294.99,218.99c-10.85-.62-16.89-7.75-16.58-17.96.36-11.17,7.41-17.75,19.07-17.12,10.88.59,15.7,7.69,17.01,17.94-2.01,10.88-7.84,17.79-19.51,17.13ZM294.95,173.82c-15.54.66-26.34,12.29-26.12,28.13.24,16.23,12.61,27.85,28.87,27.09,14.98-.68,26.9-13.28,26.61-28.13-.32-15.76-13.31-27.77-29.36-27.09ZM294.99,218.99c-10.85-.62-16.89-7.75-16.58-17.96.36-11.17,7.41-17.75,19.07-17.12,10.88.59,15.7,7.69,17.01,17.94-2.01,10.88-7.84,17.79-19.51,17.13ZM139.97,330.4c-15.81-.36-28.45,12.2-28.33,28.13.12,15.37,11.81,27.3,27.08,27.65,15.9.35,28.43-12.1,28.31-28.12-.11-15.19-11.99-27.33-27.06-27.67ZM139.12,376.13c-10.2-.05-17.09-6.31-17.34-17.19-.27-11.74,6.69-18.35,17.81-18.47,10.46-.12,16.12,6.9,17.66,15.99-.63,12.79-6.94,19.73-18.12,19.67ZM139.97,330.4c-15.81-.36-28.45,12.2-28.33,28.13.12,15.37,11.81,27.3,27.08,27.65,15.9.35,28.43-12.1,28.31-28.12-.11-15.19-11.99-27.33-27.06-27.67ZM139.12,376.13c-10.2-.05-17.09-6.31-17.34-17.19-.27-11.74,6.69-18.35,17.81-18.47,10.46-.12,16.12,6.9,17.66,15.99-.63,12.79-6.94,19.73-18.12,19.67ZM294.95,173.82c-15.54.66-26.34,12.29-26.12,28.13.24,16.23,12.61,27.85,28.87,27.09,14.98-.68,26.9-13.28,26.61-28.13-.32-15.76-13.31-27.77-29.36-27.09ZM294.99,218.99c-10.85-.62-16.89-7.75-16.58-17.96.36-11.17,7.41-17.75,19.07-17.12,10.88.59,15.7,7.69,17.01,17.94-2.01,10.88-7.84,17.79-19.51,17.13ZM294.95,173.82c-15.54.66-26.34,12.29-26.12,28.13.24,16.23,12.61,27.85,28.87,27.09,14.98-.68,26.9-13.28,26.61-28.13-.32-15.76-13.31-27.77-29.36-27.09ZM294.99,218.99c-10.85-.62-16.89-7.75-16.58-17.96.36-11.17,7.41-17.75,19.07-17.12,10.88.59,15.7,7.69,17.01,17.94-2.01,10.88-7.84,17.79-19.51,17.13ZM139.97,330.4c-15.81-.36-28.45,12.2-28.33,28.13.12,15.37,11.81,27.3,27.08,27.65,15.9.35,28.43-12.1,28.31-28.12-.11-15.19-11.99-27.33-27.06-27.67ZM139.12,376.13c-10.2-.05-17.09-6.31-17.34-17.19-.27-11.74,6.69-18.35,17.81-18.47,10.46-.12,16.12,6.9,17.66,15.99-.63,12.79-6.94,19.73-18.12,19.67ZM139.97,330.4c-15.81-.36-28.45,12.2-28.33,28.13.12,15.37,11.81,27.3,27.08,27.65,15.9.35,28.43-12.1,28.31-28.12-.11-15.19-11.99-27.33-27.06-27.67ZM139.12,376.13c-10.2-.05-17.09-6.31-17.34-17.19-.27-11.74,6.69-18.35,17.81-18.47,10.46-.12,16.12,6.9,17.66,15.99-.63,12.79-6.94,19.73-18.12,19.67ZM294.95,173.82c-15.54.66-26.34,12.29-26.12,28.13.24,16.23,12.61,27.85,28.87,27.09,14.98-.68,26.9-13.28,26.61-28.13-.32-15.76-13.31-27.77-29.36-27.09ZM294.99,218.99c-10.85-.62-16.89-7.75-16.58-17.96.36-11.17,7.41-17.75,19.07-17.12,10.88.59,15.7,7.69,17.01,17.94-2.01,10.88-7.84,17.79-19.51,17.13ZM294.95,173.82c-15.54.66-26.34,12.29-26.12,28.13.24,16.23,12.61,27.85,28.87,27.09,14.98-.68,26.9-13.28,26.61-28.13-.32-15.76-13.31-27.77-29.36-27.09ZM294.99,218.99c-10.85-.62-16.89-7.75-16.58-17.96.36-11.17,7.41-17.75,19.07-17.12,10.88.59,15.7,7.69,17.01,17.94-2.01,10.88-7.84,17.79-19.51,17.13ZM139.97,330.4c-15.81-.36-28.45,12.2-28.33,28.13.12,15.37,11.81,27.3,27.08,27.65,15.9.35,28.43-12.1,28.31-28.12-.11-15.19-11.99-27.33-27.06-27.67ZM139.12,376.13c-10.2-.05-17.09-6.31-17.34-17.19-.27-11.74,6.69-18.35,17.81-18.47,10.46-.12,16.12,6.9,17.66,15.99-.63,12.79-6.94,19.73-18.12,19.67ZM139.97,330.4c-15.81-.36-28.45,12.2-28.33,28.13.12,15.37,11.81,27.3,27.08,27.65,15.9.35,28.43-12.1,28.31-28.12-.11-15.19-11.99-27.33-27.06-27.67ZM139.12,376.13c-10.2-.05-17.09-6.31-17.34-17.19-.27-11.74,6.69-18.35,17.81-18.47,10.46-.12,16.12,6.9,17.66,15.99-.63,12.79-6.94,19.73-18.12,19.67ZM294.95,173.82c-15.54.66-26.34,12.29-26.12,28.13.24,16.23,12.61,27.85,28.87,27.09,14.98-.68,26.9-13.28,26.61-28.13-.32-15.76-13.31-27.77-29.36-27.09ZM294.99,218.99c-10.85-.62-16.89-7.75-16.58-17.96.36-11.17,7.41-17.75,19.07-17.12,10.88.59,15.7,7.69,17.01,17.94-2.01,10.88-7.84,17.79-19.51,17.13ZM294.95,173.82c-15.54.66-26.34,12.29-26.12,28.13.24,16.23,12.61,27.85,28.87,27.09,14.98-.68,26.9-13.28,26.61-28.13-.32-15.76-13.31-27.77-29.36-27.09ZM294.99,218.99c-10.85-.62-16.89-7.75-16.58-17.96.36-11.17,7.41-17.75,19.07-17.12,10.88.59,15.7,7.69,17.01,17.94-2.01,10.88-7.84,17.79-19.51,17.13ZM139.97,330.4c-15.81-.36-28.45,12.2-28.33,28.13.12,15.37,11.81,27.3,27.08,27.65,15.9.35,28.43-12.1,28.31-28.12-.11-15.19-11.99-27.33-27.06-27.67ZM139.12,376.13c-10.2-.05-17.09-6.31-17.34-17.19-.27-11.74,6.69-18.35,17.81-18.47,10.46-.12,16.12,6.9,17.66,15.99-.63,12.79-6.94,19.73-18.12,19.67ZM306.49,146.6c-4.46-.93-9.06-.6-12.58-4.37-31.59-33.93-68.07-63.17-96.22-100.4-7.36-9.74-16.58-15.76-29.02-15.73-12.61.02-25.22.38-37.81.59,1.65,2.95,3.32,5.89,4.97,8.84,10.28.06,20.59-.29,30.82.3,15.67.89,27.33,12.7,27.56,27.11.24,14.35-10.82,26.57-27.21,27.5-18.21,1.04-36.52.21-54.77.2-1.62,2.81-3.25,5.62-4.87,8.45,4.57.15,9.26.99,13.72.33,17.45-2.63,29.99,3.86,41.93,16.89,22.06,24.1,45.58,46.88,69.23,69.46,10.13,9.68,10.94,16.71.47,26.81-27.67,26.66-54.64,54.05-81.58,81.46-5.56,5.65-11.44,7.95-19.29,9.18-35.64,5.62-56.08,38.74-44.8,72.78,2.78,8.37,1.68,15.06-.86,22.81-8.1,24.78-22.6,47.64-20.77,75.47.71,10.52,3.56,13.6,13.96,13.45,39.57-.53,79.15-.71,118.72.08,12.55.26,14.61-4.31,15.21-15.72,1.41-26.64-13.1-48.25-20.09-72.19-1.56-5.36-5.8-10.11-4.12-16.21,4.94-17.88,9.68-34.85,25.2-48.4,24.99-21.83,47.5-46.54,70.88-70.19,4.99-5.05,10.01-7.89,17.61-8.76,28.06-3.23,48.34-25.82,49.2-53.08.86-27.35-17.91-50.9-45.49-56.62ZM236.28,175.58c-24.45-24.06-48.75-48.28-76.53-75.89,26.27.87,38.45-11.15,44.59-29.27,25.59,25.64,50.85,50.93,76.46,76.56-14.13,5.82-27.05,14.65-34.59,29.84-3.91,7.86-7.26,1.37-9.92-1.25ZM141.21,312.91c25.79.89,44.04,21.02,43.26,47.76-.71,24.55-21.47,44.12-46.18,43.5-25.32-.65-45.01-21.61-44.39-47.31.6-25.58,21.32-44.83,47.31-43.95ZM204.49,468.76c.08,8.2-3.85,9.36-10.49,9.29-18.3-.2-36.61-.06-54.92-.06s-36.62-.03-54.92.02c-5.56.01-9.99-.29-9.89-8.05.09-7.05,1.8-10.34,9.57-10.28,36.61.27,73.23.18,109.85.05,6.46-.02,10.73.72,10.8,9.05ZM201.07,449.75h-123.52c3.37-8.91,6.33-16.77,9.32-24.63,3.23-8.52,4.18-20.21,10.35-24.72,6.73-4.9,13.28,7.12,21.14,9.77,19.32,6.51,37.54,5.32,53.63-7.18,8.46-6.58,10.59-4.46,13.42,4.42,4.45,13.98,10.13,27.56,15.66,42.35ZM192.24,339.7c-6.36-15.97-18.18-28.43-35.03-34.35,28.87-28.85,57.04-56.98,85.67-85.58,7.18,15.34,17.99,28.99,35.06,34.19-28.64,28.66-57.13,57.16-85.7,85.75ZM341.98,203.65c-.63,24.24-21.2,43.19-46.58,42.93-24.84-.24-44.06-19.02-44.01-43.01.06-28.72,18.24-47.85,44.93-47.28,27.29.57,46.39,20.38,45.67,47.35ZM294.95,173.82c-15.54.66-26.34,12.29-26.12,28.13.24,16.23,12.61,27.85,28.87,27.09,14.98-.68,26.9-13.28,26.61-28.13-.32-15.76-13.31-27.77-29.36-27.09ZM294.99,218.99c-10.85-.62-16.89-7.75-16.58-17.96.36-11.17,7.41-17.75,19.07-17.12,10.88.59,15.7,7.69,17.01,17.94-2.01,10.88-7.84,17.79-19.51,17.13ZM138.73,386.18c15.9.35,28.43-12.1,28.31-28.12-.11-15.19-11.99-27.33-27.06-27.67-15.81-.36-28.45,12.2-28.33,28.13.12,15.37,11.81,27.3,27.08,27.65ZM139.58,340.47c10.46-.12,16.12,6.9,17.66,15.99-.63,12.79-6.94,19.73-18.12,19.67-10.2-.05-17.09-6.31-17.34-17.19-.27-11.74,6.69-18.35,17.81-18.47ZM139.97,330.4c-15.81-.36-28.45,12.2-28.33,28.13.12,15.37,11.81,27.3,27.08,27.65,15.9.35,28.43-12.1,28.31-28.12-.11-15.19-11.99-27.33-27.06-27.67ZM139.12,376.13c-10.2-.05-17.09-6.31-17.34-17.19-.27-11.74,6.69-18.35,17.81-18.47,10.46-.12,16.12,6.9,17.66,15.99-.63,12.79-6.94,19.73-18.12,19.67ZM294.95,173.82c-15.54.66-26.34,12.29-26.12,28.13.24,16.23,12.61,27.85,28.87,27.09,14.98-.68,26.9-13.28,26.61-28.13-.32-15.76-13.31-27.77-29.36-27.09ZM294.99,218.99c-10.85-.62-16.89-7.75-16.58-17.96.36-11.17,7.41-17.75,19.07-17.12,10.88.59,15.7,7.69,17.01,17.94-2.01,10.88-7.84,17.79-19.51,17.13ZM294.95,173.82c-15.54.66-26.34,12.29-26.12,28.13.24,16.23,12.61,27.85,28.87,27.09,14.98-.68,26.9-13.28,26.61-28.13-.32-15.76-13.31-27.77-29.36-27.09ZM294.99,218.99c-10.85-.62-16.89-7.75-16.58-17.96.36-11.17,7.41-17.75,19.07-17.12,10.88.59,15.7,7.69,17.01,17.94-2.01,10.88-7.84,17.79-19.51,17.13ZM139.97,330.4c-15.81-.36-28.45,12.2-28.33,28.13.12,15.37,11.81,27.3,27.08,27.65,15.9.35,28.43-12.1,28.31-28.12-.11-15.19-11.99-27.33-27.06-27.67ZM139.12,376.13c-10.2-.05-17.09-6.31-17.34-17.19-.27-11.74,6.69-18.35,17.81-18.47,10.46-.12,16.12,6.9,17.66,15.99-.63,12.79-6.94,19.73-18.12,19.67ZM139.97,330.4c-15.81-.36-28.45,12.2-28.33,28.13.12,15.37,11.81,27.3,27.08,27.65,15.9.35,28.43-12.1,28.31-28.12-.11-15.19-11.99-27.33-27.06-27.67ZM139.12,376.13c-10.2-.05-17.09-6.31-17.34-17.19-.27-11.74,6.69-18.35,17.81-18.47,10.46-.12,16.12,6.9,17.66,15.99-.63,12.79-6.94,19.73-18.12,19.67ZM294.95,173.82c-15.54.66-26.34,12.29-26.12,28.13.24,16.23,12.61,27.85,28.87,27.09,14.98-.68,26.9-13.28,26.61-28.13-.32-15.76-13.31-27.77-29.36-27.09ZM294.99,218.99c-10.85-.62-16.89-7.75-16.58-17.96.36-11.17,7.41-17.75,19.07-17.12,10.88.59,15.7,7.69,17.01,17.94-2.01,10.88-7.84,17.79-19.51,17.13ZM294.95,173.82c-15.54.66-26.34,12.29-26.12,28.13.24,16.23,12.61,27.85,28.87,27.09,14.98-.68,26.9-13.28,26.61-28.13-.32-15.76-13.31-27.77-29.36-27.09ZM294.99,218.99c-10.85-.62-16.89-7.75-16.58-17.96.36-11.17,7.41-17.75,19.07-17.12,10.88.59,15.7,7.69,17.01,17.94-2.01,10.88-7.84,17.79-19.51,17.13ZM139.97,330.4c-15.81-.36-28.45,12.2-28.33,28.13.12,15.37,11.81,27.3,27.08,27.65,15.9.35,28.43-12.1,28.31-28.12-.11-15.19-11.99-27.33-27.06-27.67ZM139.12,376.13c-10.2-.05-17.09-6.31-17.34-17.19-.27-11.74,6.69-18.35,17.81-18.47,10.46-.12,16.12,6.9,17.66,15.99-.63,12.79-6.94,19.73-18.12,19.67ZM139.97,330.4c-15.81-.36-28.45,12.2-28.33,28.13.12,15.37,11.81,27.3,27.08,27.65,15.9.35,28.43-12.1,28.31-28.12-.11-15.19-11.99-27.33-27.06-27.67ZM139.12,376.13c-10.2-.05-17.09-6.31-17.34-17.19-.27-11.74,6.69-18.35,17.81-18.47,10.46-.12,16.12,6.9,17.66,15.99-.63,12.79-6.94,19.73-18.12,19.67ZM294.95,173.82c-15.54.66-26.34,12.29-26.12,28.13.24,16.23,12.61,27.85,28.87,27.09,14.98-.68,26.9-13.28,26.61-28.13-.32-15.76-13.31-27.77-29.36-27.09ZM294.99,218.99c-10.85-.62-16.89-7.75-16.58-17.96.36-11.17,7.41-17.75,19.07-17.12,10.88.59,15.7,7.69,17.01,17.94-2.01,10.88-7.84,17.79-19.51,17.13ZM294.95,173.82c-15.54.66-26.34,12.29-26.12,28.13.24,16.23,12.61,27.85,28.87,27.09,14.98-.68,26.9-13.28,26.61-28.13-.32-15.76-13.31-27.77-29.36-27.09ZM294.99,218.99c-10.85-.62-16.89-7.75-16.58-17.96.36-11.17,7.41-17.75,19.07-17.12,10.88.59,15.7,7.69,17.01,17.94-2.01,10.88-7.84,17.79-19.51,17.13ZM139.97,330.4c-15.81-.36-28.45,12.2-28.33,28.13.12,15.37,11.81,27.3,27.08,27.65,15.9.35,28.43-12.1,28.31-28.12-.11-15.19-11.99-27.33-27.06-27.67ZM139.12,376.13c-10.2-.05-17.09-6.31-17.34-17.19-.27-11.74,6.69-18.35,17.81-18.47,10.46-.12,16.12,6.9,17.66,15.99-.63,12.79-6.94,19.73-18.12,19.67ZM294.95,173.82c-15.54.66-26.34,12.29-26.12,28.13.24,16.23,12.61,27.85,28.87,27.09,14.98-.68,26.9-13.28,26.61-28.13-.32-15.76-13.31-27.77-29.36-27.09ZM294.99,218.99c-10.85-.62-16.89-7.75-16.58-17.96.36-11.17,7.41-17.75,19.07-17.12,10.88.59,15.7,7.69,17.01,17.94-2.01,10.88-7.84,17.79-19.51,17.13ZM294.95,173.82c-15.54.66-26.34,12.29-26.12,28.13.24,16.23,12.61,27.85,28.87,27.09,14.98-.68,26.9-13.28,26.61-28.13-.32-15.76-13.31-27.77-29.36-27.09ZM294.99,218.99c-10.85-.62-16.89-7.75-16.58-17.96.36-11.17,7.41-17.75,19.07-17.12,10.88.59,15.7,7.69,17.01,17.94-2.01,10.88-7.84,17.79-19.51,17.13Z"/><path class="cls-4" d="M135.84,35.52c-1.65-2.95-3.32-5.89-4.97-8.84-11.74-7.12-23.26-14.62-35.25-21.26-17-9.42-27.76-6.79-37.51,9.68C39.47,46.63,21.66,78.63,2.93,110.09c-5.11,8.57-3.53,13.01,4.78,17.57,17.07,9.33,34.02,18.93,50.54,29.21,8.42,5.23,12.98,3.62,17.67-4.7,10.1-17.91,20.92-35.42,31.45-53.09,1.62-2.83,3.25-5.64,4.87-8.45.26-.74.53-1.46.81-2.18,6.75-17.09,22.44-30.33,22.83-50.15.03-.92.02-1.83-.03-2.78ZM125.49,44.22c-1.05,2.3-2.45,6.04-4.42,9.45-16.26,28.31-33.06,56.32-48.75,84.95-5.32,9.69-9.98,10.02-18.39,4.34-9.95-6.72-20.42-12.79-31.18-18.12-9.42-4.69-12.23-8.79-5.82-19.14,16.91-27.24,32.67-55.23,48.33-83.22,7.08-12.65,15.25-15.85,27.7-7.33,7.54,5.17,15.82,9.24,23.71,13.93,5.14,3.05,9.15,6.94,8.82,15.15Z"/><path class="cls-1" d="M139.97,330.4c-15.81-.36-28.45,12.2-28.33,28.13.12,15.37,11.81,27.3,27.08,27.65,15.9.35,28.43-12.1,28.31-28.12-.11-15.19-11.99-27.33-27.06-27.67ZM139.12,376.13c-10.2-.05-17.09-6.31-17.34-17.19-.27-11.74,6.69-18.35,17.81-18.47,10.46-.12,16.12,6.9,17.66,15.99-.63,12.79-6.94,19.73-18.12,19.67Z"/><path class="cls-2" d="M294.95,173.82c-15.54.66-26.34,12.29-26.12,28.13.24,16.23,12.61,27.85,28.87,27.09,14.98-.68,26.9-13.28,26.61-28.13-.32-15.76-13.31-27.77-29.36-27.09ZM294.99,218.99c-10.85-.62-16.89-7.75-16.58-17.96.36-11.17,7.41-17.75,19.07-17.12,10.88.59,15.7,7.69,17.01,17.94-2.01,10.88-7.84,17.79-19.51,17.13Z"/></g></svg>