<?xml version="1.0" encoding="UTF-8"?><svg id="Layer_2" xmlns="http://www.w3.org/2000/svg" width="431.83" height="497.8" viewBox="0 0 431.83 497.8"><defs><style>.cls-1{fill:#0682c8;}.cls-1,.cls-2{stroke-width:0px;}.cls-2{fill:#f1a509;}</style></defs><g id="Layer_1-2"><path class="cls-1" d="M393.77,291.58c-2.92-3.06-5.87-3.02-8.79-.04,0,23.91.18,47.79.04,71.71-.14,22.16.53,44.38-1.27,66.36-1.58,19.45-16.39,30.74-34.46,29.47-16.85-1.16-28.91-14.21-30-32.81-.39-6.37.07-12.8-.18-19.24-.67-17.34-8.72-31.26-24.79-36.75-12.45-4.29-13.43-11.22-13.12-21.87,3.48-108.6-.11-216.64-23.95-323.27C253.87,10.13,248.14.07,231.54.07c-60.63-.07-121.29,0-181.92-.07-12.91,0-22.16,6.26-23.88,18.57C17.16,79.06.35,138.39.28,200c-.04,83.38-.04,166.77.04,250.15,0,9.32-3.55,21.21,13.33,19.34,4.78-.53,5.59,4.01,4.89,7.39-4.71,22.4,9.57,21.49,24.48,20.54,8.12-.53,16.39-.74,24.48.04,12.06,1.2,19.59-1.44,17.13-15.69-1.72-9.85,2.5-13.01,12.45-12.8,28.56.6,57.15.7,85.7-.04,11.43-.32,16.21,2.99,14.31,14.56-1.69,10.45,2.36,14.7,13.4,14.03,13.93-.84,27.96-.21,41.96-.21,4.78,0,9.99.07,10.34-6.4.63-10.87-3.73-24.16,15.72-23.14,3.9.21,2.78-8.05,2.78-12.56.14-21.56-.11-43.15.21-64.71.07-4.15-2.92-10.13,2.99-12.24,4.71-1.69,8.79,2.15,12.45,4.92,14.21,10.8,12.41,26.41,12.56,41.6.28,26.09,17.27,44.03,41.57,44.35,25.39.32,42.55-17.44,42.66-44.63.14-44.31.07-88.62.07-132.94ZM9.63,173.27c5.98-34.39,11.64-68.86,17.44-103.32,2.39-14.35,4.99-28.66,7.03-43.05,1.65-11.64,7.24-17.37,19.59-17.3,57.68.28,115.35.21,173.03.04,11.57-.04,18.43,3.97,20.4,16.35,7.74,48.85,15.93,97.63,24.16,146.4,2,11.96.04,16.7-14.49,16.14-38.97-1.48-78.04-.49-117.07-.49s-78.11-1.09-117.04.56c-14.81.67-14.95-4.47-13.05-15.33ZM74.45,480.33c-.25,1.45-.8,4.71-3.18,7.01-3.51,3.39-7.69,1.47-19.57,1.33-12.41-.15-16.73,1.83-20.06-1.69-2.53-2.67-2.7-6.64-2.76-8.01-.04-.91-.2-6.42,3.12-9.86,2.9-3.01,6.24-2.12,19.42-2.07,14.51.05,17.83-1,20.62,2.08,3.57,3.96,2.53,10.63,2.43,11.22ZM243.25,487.71c-4.61-.35-9.32-.04-13.96-.04v-.11c-5.24,0-10.48-.04-15.72,0-6.82.07-6.82-4.57-6.89-9.53-.07-5.31,1.05-9.04,7.53-8.9,9.92.21,19.8.25,29.72-.07,6.37-.18,9.35,1.65,9.53,8.72.18,7.81-2.78,10.52-10.2,9.92ZM255.32,459.75c-38.44-.74-76.91-.25-115.35-.25s-76.91-.42-115.39.21c-11.68.21-16.04-2.43-15.93-15.19.63-73.99.25-147.99.35-221.98,0-21.56,4.15-25.74,25.39-25.78,71.07-.11,142.18-.11,213.26.03,20.4,0,24.09,3.87,24.13,24.83.07,73.99-.35,147.99.39,221.98.11,13.65-4.33,16.39-16.85,16.14Z"/><path class="cls-1" d="M56.26,147c-.18,10.2,3.66,13.01,13.22,12.94,47.2-.28,94.39-.32,141.62.04,10.09.07,14.52-2.46,14.28-13.68-.67-32.04-.63-64.11,0-96.15.21-10.48-3.9-12.66-13.29-12.48-23.88.49-47.76.18-71.67.18s-46.63.35-69.91-.18c-9.92-.25-14.63,1.58-14.35,13.19.81,32.04.63,64.11.11,96.15ZM65.13,137.3c.77-26.2.56-52.44.07-78.64-.18-9.11,2.71-12.31,11.89-12.24,42.52.35,85.07.32,127.59.03,8.62-.07,10.94,3.45,10.87,11.43-.32,26.8-.6,53.6.07,80.39.28,10.8-4.54,12.31-13.57,12.1-20.96-.46-41.96-.14-62.92-.14-19.8,0-39.63-.42-59.43.18-9.88.32-14.91-1.48-14.56-13.12Z"/><path class="cls-2" d="M431.82,88.13c.07-9.5-2.39-13.93-12.63-13.65-19.8.49-39.67.32-59.47.04-8.44-.11-12.73,2.15-12.7,11.78.32,60.66-.03,121.33.32,181.99.07,13.65,8.3,21.24,21.91,22.51,5.24.49,10.48.49,15.72.74,2.92,0,5.87,0,8.79.04,30.63-1.86,37.7-6.51,37.81-26.73.25-58.91-.07-117.81.25-176.72ZM421.63,132.13c.67,15.68.14,31.44.14,47.16,0,27.36-.28,54.72.14,82.05.21,14.17-6.05,19.52-19.98,19.91-44.94,1.23-44.94,1.55-44.94-43.78s.6-90.84-.35-136.21c-.32-14.24,4.29-18.36,17.69-17.02,14.95,1.51,34.46-6.08,43.89,2.78,10.34,9.78,2.74,29.68,3.41,45.12Z"/></g></svg>