<svg width="196" height="28" viewBox="0 0 196 28" fill="none" xmlns="http://www.w3.org/2000/svg">
<g clip-path="url(#clip0_30_2)">
<path d="M28.4961 28V14.8015C28.4961 14.2814 28.1516 13.8419 27.4571 13.4773C26.7626 13.1128 25.9259 12.9305 24.9361 12.9305C23.9463 12.9305 23.1042 13.1128 22.4097 13.4773C21.7152 13.8419 21.3707 14.2814 21.3707 14.8015V28H14.2453V14.8015C14.2453 14.2814 13.8953 13.8419 13.2063 13.4773C12.5118 13.1128 11.6751 12.9305 10.6853 12.9305C9.69555 12.9305 8.85341 13.1128 8.16439 13.4773C7.46989 13.8419 7.12538 14.2814 7.12538 14.8015V28H0V14.8015C0 13.4773 0.716366 12.3247 2.15457 11.3329C3.5873 10.3465 5.49579 9.69787 7.86909 9.38694H13.436C14.8195 9.49416 16.2796 9.89623 17.8162 10.5931C19.1013 9.99808 20.534 9.59602 22.1199 9.38694H27.6867C30.06 9.69787 31.9631 10.3465 33.4013 11.3329C34.834 12.3194 35.5558 13.4719 35.5558 14.8015V28H28.507H28.4961Z" fill="#008BCD"/>
<path d="M50.3916 28C48.9042 28 47.5207 27.8606 46.2356 27.5711C44.9505 27.287 43.824 26.8903 42.8616 26.3864C41.8937 25.8824 41.1281 25.282 40.5594 24.5958C39.9907 23.9096 39.7063 23.1752 39.7063 22.3925V9.34942H46.8317V22.3925C46.8317 22.9125 47.1762 23.3521 47.8707 23.7166C48.5597 24.0812 49.4019 24.2635 50.3971 24.2635H53.9571V9.34942H61.0824V28H50.3971H50.3916Z" fill="#008BCD"/>
<path d="M73.1732 0H66.0479V28H73.1732V0Z" fill="#008BCD"/>
<path d="M92.0175 28H88.4576C86.9701 28 85.5757 27.8606 84.2633 27.5711C82.9508 27.287 81.8134 26.8903 80.851 26.3864C79.8885 25.8824 79.1339 25.282 78.587 24.5958C78.0402 23.9096 77.7722 23.1752 77.7722 22.3925V0H84.8976V9.34406H92.023V13.0431H84.8976V22.3871C84.8976 22.9071 85.2421 23.3467 85.9366 23.7113C86.6311 24.0758 87.4678 24.2581 88.463 24.2581H92.023V27.9946L92.0175 28Z" fill="#008BCD"/>
<path d="M102.484 0.509285H95.3586V5.18399H102.484V0.509285Z" fill="#008BCD"/>
<path d="M102.484 9.34406H95.3586V27.9946H102.484V9.34406Z" fill="#008BCD"/>
<path d="M121.334 28H117.774C116.287 28 114.892 27.8606 113.58 27.5711C112.267 27.287 111.13 26.8903 110.167 26.3864C109.205 25.8824 108.45 25.282 107.903 24.5958C107.362 23.9096 107.089 23.1752 107.089 22.3925V0H114.214V9.34406H121.339V13.0431H114.214V22.3871C114.214 22.9071 114.559 23.3467 115.253 23.7113C115.947 24.0758 116.784 24.2581 117.774 24.2581H121.334V27.9946V28Z" fill="#008BCD"/>
<path d="M130.679 16.785V14.914C130.679 14.394 131.024 13.9544 131.718 13.5899C132.413 13.2253 133.255 13.0431 134.245 13.0431C135.235 13.0431 136.077 13.2253 136.766 13.5899C137.46 13.9544 137.805 14.394 137.805 14.914V16.785H132.73V20.5215H144.925V14.914C144.925 14.1367 144.64 13.4076 144.072 12.7321C143.503 12.0567 142.732 11.467 141.769 10.963C140.807 10.4538 139.681 10.0624 138.39 9.77293C137.105 9.4888 135.721 9.34406 134.234 9.34406C132.747 9.34406 131.363 9.4888 130.078 9.77293C128.793 10.0571 127.666 10.4538 126.698 10.963C125.736 11.467 124.965 12.062 124.402 12.7321C123.833 13.4076 123.549 14.1367 123.549 14.914V22.3925C123.549 23.1698 123.833 23.9043 124.402 24.5905C124.97 25.2767 125.736 25.8771 126.698 26.381C127.666 26.8849 128.787 27.2816 130.078 27.5658C131.363 27.8499 132.752 27.9946 134.234 27.9946H143.809V24.2581H134.234C133.244 24.2581 132.402 24.0758 131.708 23.7113C131.013 23.3467 130.669 22.9071 130.669 22.3871V20.5162" fill="#008BCD"/>
<path d="M168.379 25.4697C167.684 25.8342 167.017 26.1719 166.377 26.4829C165.732 26.7938 165.054 27.0618 164.338 27.2816C163.621 27.5014 162.828 27.6783 161.964 27.807C161.1 27.941 160.121 28 159.033 28C157.551 28 156.162 27.8553 154.877 27.5711C153.587 27.287 152.466 26.8903 151.503 26.3864C150.535 25.8824 149.77 25.282 149.201 24.5958C148.632 23.9096 148.348 23.1752 148.348 22.3979V14.9194C148.348 14.1421 148.632 13.413 149.201 12.7375C149.77 12.062 150.541 11.4723 151.503 10.9631C152.466 10.4591 153.592 10.0624 154.877 9.77829C156.162 9.49416 157.551 9.34942 159.033 9.34942C160.121 9.34942 161.111 9.41911 162.003 9.56385C162.894 9.7086 163.736 9.90695 164.529 10.1696C165.322 10.427 166.077 10.7325 166.793 11.0864C167.509 11.4348 168.264 11.8208 169.057 12.2336L164.081 14.9569C163.835 14.8283 163.61 14.7103 163.413 14.6085C163.217 14.5066 162.992 14.3619 162.746 14.1796L162.817 14.2171C162.276 13.933 161.707 13.6649 161.111 13.4183C160.515 13.1717 159.826 13.0484 159.033 13.0484C158.043 13.0484 157.201 13.2307 156.507 13.5953C155.812 13.9598 155.468 14.3994 155.468 14.9194V22.3979C155.468 22.9179 155.812 23.3575 156.507 23.722C157.201 24.0865 158.038 24.2688 159.033 24.2688C159.826 24.2688 160.515 24.1509 161.111 23.9204C161.702 23.6845 162.271 23.4164 162.817 23.1055L162.746 23.143C162.992 23.0144 163.217 22.8911 163.413 22.7731C163.61 22.6552 163.835 22.5212 164.081 22.3657L168.384 24.703V25.4804L168.379 25.4697Z" fill="#008BCD"/>
<path d="M185.298 28V14.914C185.298 14.394 184.954 13.9544 184.259 13.5899C183.565 13.2253 182.722 13.0431 181.733 13.0431H178.173V27.9946H171.047V0H178.173V9.34406H181.733C183.22 9.34406 184.604 9.4888 185.889 9.77293C187.174 10.0571 188.3 10.4538 189.268 10.963C190.231 11.467 190.996 12.062 191.57 12.7321C192.139 13.4076 192.424 14.1313 192.424 14.914V28H185.298Z" fill="#008BCD"/>
<path d="M188.864 3.50067C188.864 2.87881 189.022 2.29983 189.34 1.75302C189.657 1.21156 190.089 0.782692 190.646 0.47176C191.199 0.155466 191.795 0 192.429 0C193.064 0 193.654 0.155466 194.206 0.466399C194.759 0.777331 195.196 1.2062 195.519 1.74765C195.836 2.28911 196 2.87344 196 3.50067C196 4.1279 195.847 4.68543 195.541 5.22152C195.235 5.75761 194.803 6.18648 194.25 6.50814C193.698 6.82979 193.091 6.99062 192.435 6.99062C191.778 6.99062 191.177 6.82979 190.619 6.50814C190.067 6.18648 189.635 5.75761 189.329 5.22152C189.022 4.68543 188.864 4.11181 188.864 3.49531M189.361 3.50067C189.361 4.03676 189.498 4.54069 189.777 5.00708C190.05 5.47348 190.428 5.84338 190.904 6.11143C191.379 6.37948 191.888 6.5135 192.435 6.5135C192.982 6.5135 193.496 6.37948 193.966 6.10607C194.436 5.83802 194.813 5.46812 195.087 5.01245C195.366 4.55141 195.502 4.04748 195.502 3.50067C195.502 2.95386 195.366 2.46065 195.092 1.99426C194.819 1.53322 194.447 1.16332 193.977 0.895271C193.506 0.621865 192.992 0.487842 192.44 0.487842C191.888 0.487842 191.379 0.621865 190.909 0.895271C190.439 1.16332 190.067 1.53322 189.788 1.9889C189.509 2.44457 189.372 2.95386 189.372 3.50067M193.878 2.65365C193.878 2.90025 193.813 3.12005 193.676 3.31304C193.539 3.50603 193.353 3.64541 193.107 3.74191L194.239 5.5807H193.441L192.457 3.9349H191.817V5.5807H191.117V1.43136H192.353C192.878 1.43136 193.26 1.53322 193.506 1.73693C193.753 1.94065 193.873 2.24622 193.873 2.65901M191.822 3.35593H192.336C192.588 3.35593 192.796 3.29159 192.949 3.16293C193.102 3.03427 193.178 2.86808 193.178 2.66973C193.178 2.43921 193.113 2.27302 192.976 2.17117C192.839 2.06931 192.626 2.02106 192.331 2.02106H191.828V3.35593H191.822Z" fill="#008BCD"/>
</g>
<defs>
<clipPath id="clip0_30_2">
<rect width="196" height="28" fill="white"/>
</clipPath>
</defs>
</svg>
