<svg width="677" height="369" viewBox="0 0 677 369" fill="none" xmlns="http://www.w3.org/2000/svg">
<path d="M78.0402 368.48V290.4C78.0306 284.544 75.2018 282.762 71.3202 278.88L65.8802 273.12L52.4114 259.36C50.2098 256.999 47.6946 254.896 45.733 252.32C41.8418 247.21 39.6498 240.823 39.6402 234.4V116C39.6498 110.202 41.5666 104.106 44.901 99.3602C47.5154 95.6386 52.0274 91.453 55.3202 88.1602L73.5602 69.9202L88.6002 54.8802C94.2354 49.245 98.0562 44.7938 105.88 42.1858C108.437 41.3346 110.859 40.8034 113.56 40.8002H154.2C156.402 40.797 158.933 40.5378 160.92 39.5234C163.285 38.3138 167.759 33.3218 169.88 31.2002L185.56 15.2002C188.037 12.7234 191.183 9.33779 193.88 7.27699C198.351 3.85619 204.866 1.44979 210.52 1.44019H217.24H229.4L234.84 1.76019H261.4L266.2 2.08019C274.024 2.09299 278.716 1.60019 286.04 5.36339C290.978 7.90099 294.341 11.661 298.2 15.5202L313.56 30.8802C315.551 32.8706 320.716 38.4354 322.84 39.5234C325.724 40.9986 329.295 40.8002 332.44 40.8002H347.8C353.756 40.7298 355.368 38.6722 359.32 34.7202L365.4 28.6402L377.56 16.4802C380.306 13.7346 383.781 10.0002 386.84 7.76339C391.695 4.20819 398.098 2.08979 404.12 2.08019H581.4C595.285 2.10259 602.485 11.325 611.48 20.3202L641.88 50.7202L645.404 54.5602L658.201 67.3602C666.268 75.4274 675.461 82.6818 675.48 95.2002V126.88L675.8 131.36V144.16C675.794 148.893 674.789 153.251 670.04 155.392C668.856 155.923 666.856 156.359 665.56 156.263C658.54 155.728 656.29 150.381 656.28 144.16V97.1202C656.223 92.189 653.762 90.4418 650.521 87.2002L640.92 77.6002L608.28 44.9602L605.068 41.4402L598.68 35.0402L591.64 28.0002C587.506 23.8658 585.669 21.2898 579.48 21.2802H405.72C398.7 21.2898 395.909 25.6514 391.32 30.2402L376.6 44.9602L368.28 53.133C359.727 60.1442 352.072 60.0002 341.72 60.0002H327.64C321.778 59.9298 315.141 58.0802 310.36 54.6402C307.301 52.4418 303.532 48.3714 300.76 45.6002L288.92 33.7602L282.84 27.6802C279 23.8402 277.093 21.2898 271.32 21.2802H264.28L258.84 20.9602H232.6L227.16 20.6402H212.76C207.019 20.6498 205.381 22.8994 201.56 26.7202L194.187 34.4002L183.32 45.2802C179.957 48.6434 178.274 50.9954 174.36 53.9522C168.984 58.0162 162.178 59.9906 155.48 60.0002H115.8C109.64 60.0098 106.728 64.2722 102.68 68.3202L79.0002 92.0002L66.2002 104.8C61.957 109.043 58.8498 111.226 58.8402 117.6V232.8C58.853 240.647 63.6658 242.499 68.3058 247.84L77.0802 256.8L85.0834 265.12L90.1074 270.24C94.3346 275.101 97.2306 281.661 97.2402 288.16V325.28V336.8L97.5026 340.64L97.2402 344.16V368.48H78.0402ZM92.7602 2.12499H110.68H144.92C147.464 2.08339 149.595 2.43539 151.64 4.10899C156.869 8.38739 156.28 16.6594 150.36 20.0386C148.415 21.149 146.776 21.277 144.6 21.2802H97.2402C91.4098 21.2898 89.653 23.4274 85.7202 27.3602L80.2802 32.8002L47.3202 66.0802L27.8002 85.6002C23.973 89.4274 20.4498 91.6002 20.4402 97.4402V246.88V340.32V361.76C20.4402 362.938 20.7442 367.508 19.9282 368.154C19.4194 368.554 18.197 368.48 17.5602 368.48H3.16019C0.763393 368.436 0.923393 367.757 0.920193 365.6V99.0402C0.929793 91.9842 2.63539 84.893 6.96819 79.2002L16.2674 69.6002L18.853 66.7202L35.1602 50.4002L65.2402 20.3202C70.4146 15.1458 76.3346 8.30099 82.8402 5.04659C86.2482 3.34099 89.0578 2.77459 92.7602 2.12499ZM386.52 368.48V271.52C386.508 264.007 381.192 261.613 376.735 256.48L368.92 248.48L360.268 239.52C357.896 237.04 355.81 235.303 353.714 232.48C350.44 228.077 348.13 221.671 348.12 216.16V115.36C348.14 102.659 355.877 96.0834 364.12 87.8402L376.597 75.3602L383.96 67.6802L397.08 54.5602L405.4 46.4546C410.767 42.2274 417.439 39.8498 424.28 39.8402H559.64C565.535 39.8498 571.762 41.709 576.6 45.101C580.45 47.7986 584.124 51.8434 587.48 55.2002L597.72 65.1202L606.36 73.7474L609.56 76.6434L621.4 88.4802C626.482 93.501 631.058 96.7554 634.236 103.52C637.737 110.976 637.081 117.36 637.081 125.28V156C637.09 162.25 639.64 164 643.8 168.16L650.84 175.2L657.548 181.92L662.04 186.72C666.22 190.899 669.96 194.119 672.661 199.52C673.852 201.898 675.16 206.157 675.48 208.8V211.36L675.8 214.88V294.88V339.36L675.48 344.16V368.48H656.28V213.28C656.277 211.539 656.258 210.442 655.528 208.8C654.514 206.512 652.892 205.091 651.16 203.36L644.124 196.32L641.228 193.12L632.92 184.8C629.564 181.443 625.874 178.125 623.141 174.24C619.832 169.543 617.89 163.351 617.88 157.6V117.6C617.868 110.151 613.672 108.25 608.92 103.52L584.92 79.8402L572.44 67.6802C567.736 62.9762 565.215 59.0498 558.04 59.0402H425.56C418.712 59.0498 416.613 62.5474 412.12 67.0402L396.773 82.4002L394.188 85.2802L375 104.48C370.808 108.672 367.33 110.906 367.32 117.28V213.92C367.33 220.055 369.976 221.693 374.04 225.76L379.16 231.2L390.668 242.72L393.253 245.6C395.666 248.122 398.015 250.115 400.127 252.96C403.538 257.552 405.711 263.872 405.72 269.6V368.48H386.52ZM348.12 368.48V291.68C348.111 285.431 345.903 283.703 341.72 279.52L335.64 273.44L323.8 261.6C321.17 258.97 317.458 255.527 315.314 252.64C311.413 247.392 309.41 240.919 309.4 234.4V117.28C309.391 111.869 307.276 110.035 303.64 106.4L298.84 101.6L268.12 70.8802L262.68 65.4402C259.167 61.9266 257.66 60.0098 252.44 60.0002H224.28C222.603 59.997 221.083 59.8946 219.48 59.3282C215.567 57.9394 212.856 53.917 213.109 49.7602C213.452 44.1954 217.605 40.8098 223 40.8002H255.32C257.288 40.8258 259.503 41.3218 261.4 41.853C269.57 44.1442 273.24 48.4802 279 54.2402L312.6 87.8402C320.828 96.0674 328.581 102.704 328.6 115.36V233.12C328.61 239.37 330.818 241.098 335 245.28L341.08 251.36L352.92 263.2C355.564 265.843 359.247 269.255 361.407 272.16C365.324 277.424 367.311 283.856 367.32 290.4V368.48H348.12ZM116.76 368.48V271.84C116.751 266.026 114.584 264.224 110.68 260.32L104.309 253.92L88.8658 237.92C85.733 234.458 84.0786 233.389 81.6594 228.96C79.0226 224.128 78.0498 218.413 78.0402 212.96V163.68V136.16C78.1106 130.163 79.8002 124.24 83.0642 119.2C85.1826 115.93 88.1042 113.296 90.8402 110.56L102.68 98.7202C106.207 95.1938 114.155 86.8098 117.72 84.333C122.28 81.165 128.488 79.2098 134.04 79.2002H234.84C247.682 79.2194 253.935 86.5986 262.68 94.5058L276.76 107.331C279.493 109.875 282.45 112.285 284.62 115.36C288.213 120.451 290.191 126.733 290.2 132.96V368.48H271V212V159.84V133.6C270.94 128.403 268.341 125.783 264.6 122.535L245.72 105.386C241.458 101.539 239.419 98.4098 233.24 98.4002H135.64C129.727 98.4098 128.04 100.88 124.12 104.8L116.12 112.8L105.56 123.36C103.048 125.872 99.2882 129.034 98.0306 132.32C97.4386 133.863 97.2434 136.413 97.2402 138.08V212C97.2434 213.597 97.4738 216.631 98.0306 218.08C99.1186 220.925 100.943 222.378 102.997 224.48L109.72 231.52L117.067 238.88L120.6 242.72C124.027 246.163 127.912 249.639 130.699 253.6C134.098 258.426 135.951 264.669 135.96 270.56V368.48H116.76ZM617.88 368.48V233.12C617.874 228.157 616.482 226.602 613.08 223.2L607.375 217.44L592.6 202.4L586.933 196.64C582.68 191.751 579.49 184.967 579.48 178.4V138.08C579.477 136.413 579.282 133.863 578.69 132.32C577.432 129.034 573.672 125.872 571.16 123.36L559.96 112.16L552.6 104.8C548.626 100.826 547.061 98.4098 541.08 98.4002H444.12C438.14 98.4098 436.575 100.826 432.6 104.8L424.6 112.8L413.08 124.32C408.738 128.663 405.73 130.535 405.72 137.12V204C405.717 206.826 405.189 209.216 403.103 211.303C398.975 215.431 391.752 214.803 388.373 210.08C386.856 207.962 386.524 205.888 386.52 203.36V135.2C386.584 129.84 388.453 123.648 391.436 119.2C394.04 115.315 404.076 105.805 407.96 101.92L417.56 92.3202L424.6 85.4946C429.631 81.5298 436.104 79.2098 442.52 79.2002H542.68C548.399 79.2098 554.677 81.2194 559.32 84.5602C562.581 86.9058 568.946 93.6258 572.12 96.8002L585.56 110.24C589.57 114.25 592.943 117.207 595.541 122.4C599.167 129.651 598.68 136.979 598.68 144.8V176.16C598.69 181.68 601.42 183.699 605.08 187.36L610.84 193.12L621.708 204L624.293 206.88C626.738 209.437 629.362 211.699 631.487 214.56C634.975 219.255 637.071 225.674 637.081 231.52V368.48H617.88ZM124.76 137.261C131.672 136.375 135.951 140.967 135.96 147.68V203.68C135.957 206.621 135.256 209.479 133.023 211.575C128.501 215.821 120.731 214.653 117.848 209.12C116.917 207.331 116.763 205.648 116.76 203.68V147.36C116.786 142.064 119.41 138.298 124.76 137.261ZM548.44 137.271C555.33 136.307 559.951 140.432 559.96 147.36V194.72C559.964 196.579 560.114 198.442 560.888 200.16C561.858 202.314 563.756 203.955 565.4 205.6L573.08 213.28L581.708 221.92L585.24 225.76C588.45 228.983 592.031 232.067 594.376 236C597.308 240.919 598.671 246.947 598.68 252.64V341.6V362.08C598.68 363.226 598.978 367.511 598.168 368.154C597.66 368.554 596.437 368.48 595.8 368.48H581.4C579.004 368.436 579.164 367.757 579.16 365.6V310.88L579.48 306.08V253.92C579.477 251.751 579.196 248.823 578.204 246.88C577.32 245.159 575.423 243.463 574.04 242.08L567.32 235.36L555.48 223.52C547.196 215.235 540.78 208.826 540.76 196.32V147.04C540.821 141.994 543.471 138.439 548.44 137.271ZM540.76 368.48V279.52V267.04C540.76 264.615 540.556 261.655 541.263 259.36C542.68 254.771 546.504 252.909 551 252.96C556.802 253.031 559.951 257.811 559.96 263.2V368.48H540.76ZM39.6402 368.48V301.92C39.6434 299.92 39.749 298.298 40.7058 296.48C43.6402 290.906 51.3586 289.619 55.9314 293.978C58.2258 296.167 58.837 298.88 58.8402 301.92V368.48H39.6402ZM309.4 368.48V302.24C309.404 299.178 309.996 296.186 312.309 293.978C318.162 288.4 328.584 291.799 328.6 301.28V368.48H309.4Z" fill="#ffffff"/>
</svg>
