<svg width="69" height="54" viewBox="0 0 69 54" fill="none" xmlns="http://www.w3.org/2000/svg">
<path d="M5.44885 20.2582C3.95437 20.2582 2.9477 20.3639 1.7344 19.2747C-0.120494 17.6092 0.0348573 13.4719 2.03268 11.9555C3.05644 11.1771 4.08642 11.2315 5.2935 11.247C7.72631 11.2812 7.64086 13.607 6.51923 14.3528C5.68033 14.9121 4.77463 14.4367 4.29925 14.9137C3.93107 15.2819 3.95903 16.3803 4.40955 16.6817C4.70627 16.879 5.86364 16.8883 6.20852 16.792C6.80663 16.6242 6.93712 15.967 7.09247 15.4419L8.26693 11.5578C9.4709 7.37223 10.5459 4.26027 14.4592 1.8055C18.1364 -0.503222 22.2765 0.0607522 26.4213 0.0607522H48.9472C49.9011 0.0731814 50.6779 0.244083 51.5882 0.505096C56.0282 1.77598 58.7965 5.04486 60.0673 9.38266L61.6332 14.5097C61.7917 15.0084 62.0744 16.2684 62.4162 16.5916C62.612 16.778 64.9422 17.4679 64.9422 15.7526C64.9422 14.3264 63.9402 14.8018 63.0842 14.6045C62.2811 14.4196 61.7622 13.781 61.7296 12.9561C61.6395 10.6753 65.3881 10.9907 66.6573 11.7473C68.8975 13.0835 69.1958 17.3498 67.4061 19.1427C66.2021 20.3468 65.0991 20.2582 63.5503 20.2582C65.4161 22.2143 67.4978 24.5214 68.4128 27.0943C69.1352 29.1233 68.9876 30.7485 68.9876 32.8428V40.4557C68.986 41.798 68.7685 42.8157 67.8675 43.8737C67.4853 44.3227 66.547 45.0747 66.3497 45.4413C66.0763 45.9494 66.1944 48.2876 66.1913 49.0007C66.1757 52.2354 63.8206 53.9678 60.754 53.9724H57.1809C54.31 53.9724 51.9393 53.8745 50.7291 50.7098C50.4806 50.0619 50.5023 49.675 50.5008 49.0007V45.8934H18.4984C18.4984 48.6527 19.0095 51.4105 16.3235 53.1785C14.843 54.1542 13.0393 53.9724 11.3522 53.9724C8.14265 53.9724 4.43286 54.5224 3.07198 50.7098C2.80011 49.9469 2.80943 49.6331 2.80788 48.8454C2.80633 48.154 2.91818 45.9416 2.64942 45.4413C2.45213 45.0747 1.5138 44.3227 1.13164 43.8737C0.2306 42.8157 0.0131084 41.798 0.0115548 40.4557V32.9981C0.0115548 30.3383 -0.174867 28.7007 0.949877 26.1621C1.78878 24.2651 3.99787 21.7792 5.44885 20.2582ZM65.5698 35.6394C65.5698 32.8148 65.9784 29.6236 64.5896 27.0943C63.5705 25.2377 60.6654 22.6617 60.0999 21.3458L58.9332 17.617L57.1374 11.8685C56.2814 9.02842 55.7361 6.92167 53.1417 5.1008C52.41 4.58654 51.3645 4.05208 50.5008 3.81437C49.5687 3.55802 48.9768 3.48034 48.0151 3.47878H25.6445C22.6509 3.47878 19.3 3.05619 16.6342 4.63625C15.7005 5.18935 14.8911 5.92734 14.1765 6.74145C12.9896 8.09779 12.668 9.45723 12.129 11.0917L9.85151 18.3938L8.79823 21.6565L4.6519 26.7835C3.03159 29.5848 3.42929 32.5336 3.42929 35.6394H10.4201C11.0524 35.6378 11.5868 35.6891 12.1119 35.2618C13.1387 34.4275 13.2335 31.3528 12.3744 30.3896C11.5091 29.4185 9.16797 29.737 7.93448 29.7355C7.23229 29.7339 6.52855 29.7557 5.93044 29.316C4.97969 28.6168 4.95328 27.2994 5.93044 26.6111C6.77556 26.0145 8.90232 26.1497 9.95405 26.1621C11.5588 26.1807 13.2289 26.4852 14.4577 27.5883C16.4788 29.4061 16.3266 31.025 16.3235 33.4642C16.3203 35.2556 15.9273 36.3789 14.613 37.6529C12.8669 39.3417 11.0881 39.2127 8.86659 39.2127H3.42929C3.42929 40.5178 3.42618 41.941 4.9828 42.3869C5.337 42.4894 5.85121 42.4754 6.22561 42.4754H22.3822V38.4359C22.3822 37.8828 22.3324 36.9071 22.5204 36.4162C22.8902 35.4514 23.6094 35.1872 24.5571 35.1733H36.9852H42.8885C43.6404 35.1733 45.0433 35.0692 45.6818 35.3985C46.6325 35.8895 46.6154 36.5715 46.617 37.5037V42.4754H62.7735C63.1728 42.4754 63.6295 42.4878 64.0163 42.3931C65.7128 41.9798 65.5698 40.5831 65.5698 39.2127H60.2879C58.0229 39.2127 56.1758 39.3417 54.4047 37.6327C52.0201 35.3442 52.0248 30.0493 54.4047 27.7623C55.6879 26.5381 57.33 26.1823 59.0451 26.1621C60.176 26.1497 62.3525 25.971 63.2225 26.695C64.4109 27.6815 63.934 29.706 61.5307 29.7355C60.3081 29.7495 57.6671 29.4154 56.7972 30.2839C56.5564 30.5247 56.3964 30.8028 56.314 31.1338C56.0919 32.0162 56.1198 34.457 56.7754 35.1127C57.3362 35.6735 58.0058 35.6378 58.7344 35.6394H65.5698ZM13.8409 16.9551C14.7327 16.7376 17.1359 16.8402 18.1877 16.8402H26.732H53.9185C54.4374 16.8417 55.006 16.7982 55.4487 17.1105C56.3466 17.7304 56.314 19.3089 55.4487 19.9242C54.9159 20.2971 54.3737 20.2567 53.7631 20.2582H21.6054H15.0806C14.4592 20.2551 13.9295 20.266 13.4324 19.8232C12.5344 19.0215 12.7799 17.5393 13.8409 16.9551ZM20.5179 26.2506L28.1302 26.1621H43.1992L48.4812 26.2506C49.3947 26.5132 49.7955 27.2698 49.7069 28.1818C49.5609 29.6718 48.0944 29.7339 46.9277 29.7106H25.7999H20.8286C19.9773 29.4978 19.3823 29.1 19.2922 28.1818C19.1943 27.172 19.5998 26.6142 20.5179 26.2506ZM43.1992 38.5913H25.7999V42.4754H43.1992V38.5913ZM15.0806 45.8934H6.22561C6.22561 46.8101 6.05317 49.0474 6.53787 49.7481C6.94023 50.3322 7.43891 50.3882 8.08983 50.399H13.2164C14.6596 50.3788 15.062 49.7714 15.0806 48.3793V45.8934ZM62.7735 45.8934H53.9185V48.3793C53.9278 49.0909 54.0164 49.8304 54.7108 50.2172C55.0992 50.4317 55.6584 50.399 56.0934 50.399H60.754C62.25 50.3897 62.7533 49.8863 62.7735 48.3793V45.8934Z" fill="#5BC2E7"/>
</svg>
