<svg width="68" height="69" viewBox="0 0 68 69" fill="none" xmlns="http://www.w3.org/2000/svg">
<path d="M7.85544 7.2951V13.3577C7.85408 13.7956 7.89336 14.3143 7.61977 14.6848C7.25544 15.1806 6.33717 15.2654 5.92408 14.7818C5.66404 14.4786 5.69113 14.0031 5.68842 13.6272V8.3729C5.68571 6.75081 5.31596 7.37055 4.81755 6.35068C4.5873 5.87914 4.60627 5.37931 4.60491 4.87005C4.6022 3.543 4.19047 0.69626 5.68842 0.119636C5.99316 0.00242479 6.44281 0.0199391 6.77193 0.0199391H13.1375C13.9082 0.0199391 15.3425 -0.109397 15.9763 0.290737C16.7917 0.805387 16.793 1.72556 16.7944 2.57972C16.7957 3.32205 16.8621 5.34967 16.6874 5.94785C16.2892 7.31531 15.7149 6.61339 15.7109 8.3729V12.6841C15.7109 13.9519 15.6012 14.8545 16.1605 16.0522C17.393 18.6902 21.3925 21.7511 21.3993 26.1566V54.4489V65.6311C21.3966 67.7355 20.5203 68.9952 18.2842 68.9992H2.84421C0.87087 68.9723 0.00270877 67.5752 0 65.7658V57.9518V36.5305V25.7525C0.0284421 23.349 1.64829 21.1435 3.02976 19.2856C3.47942 18.6821 4.08754 17.5275 4.87579 17.4197C6.01889 17.2634 6.39541 18.2483 5.92408 19.1509C4.98143 20.9508 2.17243 23.0256 2.16702 26.4261V28.7164H19.2323C19.2323 26.9623 19.4219 25.6595 18.7081 24.001C17.4919 21.1758 14.9213 19.0889 14.0084 16.7259C13.4125 15.1833 13.5439 14.1459 13.5439 12.5494V7.2951H7.85544ZM14.6274 2.04082H6.77193V5.1395H14.6274V2.04082ZM28.4421 13.8966C26.6828 13.5248 26.8006 11.9404 26.8168 10.5285C26.8236 9.94784 26.8683 9.41433 27.2069 8.91719C27.8177 8.01857 28.6778 7.97007 29.661 7.96873H38.4646C39.4641 7.97007 40.2916 8.01723 40.9228 8.91719C41.2681 9.41029 41.3006 9.81581 41.3088 10.3938C41.3264 11.8407 41.516 13.5086 39.6835 13.8966C39.7621 14.8545 39.8894 16.2004 40.4487 16.9953C41.2356 18.1149 42.1255 18.2604 43.0681 19.0593C44.3575 20.156 44.9629 21.6716 44.9656 23.3274V33.2971C44.9642 33.9384 44.9805 34.3075 44.7083 34.9138C44.1096 36.2381 43.6139 35.8164 43.6112 37.4735V45.5571C43.6153 47.26 44.1029 46.7022 44.7056 47.9821C44.9791 48.5614 44.9642 48.9818 44.9656 49.5988V65.4964C44.9615 67.7732 43.7331 68.9952 41.4442 68.9992H26.6814C24.3925 68.9952 23.1641 67.7732 23.16 65.4964V49.7335C23.1613 49.0141 23.1735 48.5075 23.5216 47.8474C24.1433 46.6672 24.5117 47.1562 24.5144 45.5571V37.3388C24.5117 35.7585 24.123 36.3216 23.4823 35.0485C23.1519 34.3924 23.1613 34.003 23.16 33.2971V23.3274C23.1627 21.6811 23.7695 20.1452 25.0575 19.0607C25.8376 18.4032 26.8832 18.0772 27.5225 17.2526C28.2484 16.3176 28.3893 15.0431 28.4421 13.8966ZM39.1417 10.1243H28.9839V11.8758H39.1417V10.1243ZM37.5165 14.0314H30.6091C30.4777 15.6454 30.2665 17.2823 29.2493 18.612C28.1008 20.1115 27.0349 20.1088 26.2033 21.0492C25.1875 22.1971 25.327 23.2722 25.327 24.6746H42.7986C42.7986 23.2722 42.9381 22.1971 41.9223 21.0492C41.0812 20.098 39.8921 20.0105 38.7761 18.4773C37.6032 16.866 37.8293 15.7693 37.5165 14.0314ZM64.4688 26.6955H56.8842C56.4589 26.6942 55.9199 26.7346 55.5677 26.4611C54.9894 26.0138 55.0734 25.1017 55.6937 24.7353C56.0729 24.5116 56.593 24.5413 57.0196 24.5399H62.8435C63.7293 24.5399 64.9035 24.4214 65.6823 24.8646C66.5924 25.3833 66.6344 26.1755 66.6358 27.0997C66.6358 27.4392 66.6046 28.1506 66.717 28.4416C66.8877 28.8835 67.2534 29.0303 67.5879 29.5301C67.9983 30.1431 67.9888 30.577 67.9902 31.2762V60.2421V64.8228C67.9902 66.4395 68.2394 68.3364 66.2295 68.913C65.8814 69.0141 65.5049 68.9992 65.1459 68.9992H49.5705C47.2342 68.9952 46.5936 67.7786 46.5909 65.6311V43.6709V31.4109C46.599 30.7993 46.6681 30.193 46.9972 29.6595C47.5552 28.7568 48.0577 28.998 48.0807 27.7733C48.1145 25.9424 48.2053 24.5682 50.5186 24.5399C51.0265 24.5345 51.8418 24.4699 52.259 24.7743C52.817 25.1799 52.8089 26.0717 52.259 26.48C51.9204 26.7319 51.4612 26.6942 51.0603 26.6955H50.2477V28.447H64.4688V26.6955ZM42.7986 26.8303H25.327V28.5817H42.7986V26.8303ZM65.8231 41.7848V33.4318C65.8231 32.94 65.9518 31.0283 65.6105 30.7602C65.3654 30.5689 64.7748 30.6026 64.4688 30.6026H52.4147H49.8414C49.5516 30.6079 49.1953 30.5972 48.9746 30.8181C48.7145 31.0768 48.7592 31.6076 48.7579 31.9498V41.7848H51.1958C52.6585 41.7753 52.5122 41.1583 53.9045 40.2624C54.9379 39.5968 56.3248 39.1819 57.5614 39.2304C58.8196 39.2789 60.0602 39.7491 61.0828 40.4658C62.3302 41.3402 62.0986 41.7632 63.2498 41.7848H65.8231ZM19.2323 30.7373H2.16702V32.2193H19.2323V30.7373ZM42.7986 30.7373H25.327C25.327 31.5012 25.1279 33.8117 25.6751 34.294C25.9703 34.554 26.4471 34.5082 26.8168 34.5096H37.2456H41.3088C41.6799 34.5082 42.1729 34.5514 42.4695 34.294C42.8501 33.9653 42.7972 33.3483 42.7986 32.8929V30.7373ZM19.2323 34.3749H2.16702V48.521H19.2323V34.3749ZM41.4442 36.6652H26.6814V46.2307H41.4442V36.6652ZM6.36561 38.4799C7.80262 38.3129 8.28071 39.0283 8.93895 38.8909C9.21253 38.8343 9.96286 38.3897 10.8351 38.4449C11.5895 38.4921 12.2924 38.9299 12.7312 38.8936C13.1687 38.8585 13.808 38.3614 14.7628 38.4422C18.7609 38.7763 18.402 44.715 14.3565 44.4671C13.3326 44.4038 12.9804 43.9619 12.5579 43.9983C12.1109 44.0387 11.6545 44.5587 10.4288 44.4671C9.51862 44.3984 9.10418 43.9808 8.74662 43.9835L7.58456 44.3769C6.8559 44.5682 6.09067 44.4954 5.41754 44.1586C3.08394 42.9932 3.08529 39.2007 6.36561 38.4799ZM31.1563 38.9205C31.9472 38.7265 35.0149 38.8154 36.0267 38.8208C36.4289 38.8235 36.8759 38.8006 37.2117 39.0552C37.7657 39.4688 37.7278 40.3391 37.2117 40.7272C36.8298 41.0087 36.2095 40.9751 35.7558 40.9764L31.289 40.8888C30.3166 40.5736 30.2191 39.4648 31.1563 38.9205ZM6.77328 40.676C5.53944 41.0276 5.9769 42.263 6.77328 42.263C7.65905 42.263 8.08568 40.8646 6.77328 40.676ZM10.6996 40.676C9.49018 40.8538 9.81252 42.263 10.6996 42.263C11.4947 42.263 11.9308 41.0276 10.6996 40.676ZM14.4933 40.6611C13.1226 41.1057 13.9542 42.4732 14.7601 42.2347C15.5687 41.9976 15.654 40.8093 14.4933 40.6611ZM56.8842 41.4196C55.844 41.5934 54.9352 41.9451 54.1998 42.7332C51.6508 45.4681 53.4562 49.8494 57.1551 49.9976C61.0422 50.1539 63.1916 45.3442 60.3812 42.6335C59.9478 42.2159 59.3478 41.8656 58.7803 41.6622C58.0882 41.4143 57.6115 41.3536 56.8842 41.4196ZM32.2411 42.4233C32.9481 42.2496 34.1752 42.3196 34.9431 42.3237C35.2885 42.325 35.703 42.3088 36.0118 42.4813C36.6646 42.8477 36.7242 43.7989 36.1309 44.2448C35.768 44.5183 35.2398 44.4779 34.8077 44.4793C34.293 44.4806 32.6244 44.5372 32.2411 44.3796C31.4028 44.036 31.373 42.938 32.2411 42.4233ZM51.0603 43.9404H48.7579V47.4432H51.0603C50.7475 45.7106 50.7475 45.6729 51.0603 43.9404ZM65.8231 43.9404H63.6561V47.4432H65.8231V43.9404ZM42.7986 52.1586C42.7986 51.3287 43.0288 49.1138 42.3611 48.6018C42.0306 48.3472 41.5688 48.3876 41.1733 48.3863H30.7446H26.9523C26.5568 48.3876 26.0949 48.3472 25.7645 48.6018C25.2783 48.975 25.3284 49.5934 25.327 50.1377V52.1586H42.7986ZM65.8231 49.5988H63.3852C62.0092 49.6069 62.4182 50.0448 60.9474 51.0323C59.7826 51.815 58.5609 52.1882 57.1551 52.1572C55.9768 52.1303 54.5912 51.6561 53.6337 50.9744L52.1438 49.7362C51.6752 49.5032 49.4188 49.5988 48.7579 49.5988V63.0713H65.8231V49.5988ZM19.2323 50.6766H2.16702V52.1586H19.2323V50.6766ZM19.2323 54.3142H2.16702V65.3617C2.16973 66.8868 2.6397 66.9757 4.06316 66.9784H15.5754C16.4355 66.9784 18.6038 67.2343 19.0738 66.4219C19.2607 66.0973 19.2323 65.5947 19.2323 65.2269V54.3142ZM42.7986 54.3142H25.327V56.2003C25.9487 56.2003 27.8326 56.102 28.2918 56.358C29.0746 56.7958 28.9094 57.7955 28.1658 58.1795C27.643 58.4489 25.9852 58.356 25.327 58.356V64.0144C25.327 64.6449 25.2105 65.9154 25.583 66.4098C26.0245 66.9932 26.9672 66.977 27.6295 66.9784H40.6316C42.2379 66.9703 42.7959 66.7655 42.7986 65.0922V58.356H33.5888C33.0903 58.3546 32.5567 58.3869 32.1274 58.0852C31.4421 57.6042 31.4962 56.7325 32.2398 56.3378C32.5486 56.1747 32.9752 56.2017 33.3179 56.2003H42.7986V54.3142ZM53.2341 55.0875C53.9547 54.9097 55.0328 54.9878 55.8007 54.9878H60.4056C60.8065 54.9892 61.2656 54.9514 61.6042 55.2034C62.1541 55.6116 62.1622 56.5035 61.6042 56.909C61.2318 57.1811 60.7103 57.1421 60.2702 57.1434H54.4463C54.0197 57.1421 53.4996 57.1717 53.1204 56.9481C52.3213 56.4765 52.4919 55.5281 53.2341 55.0875ZM65.8231 65.2269H48.7579C48.7592 66.7089 48.8148 66.9757 50.3831 66.9784H62.0309H64.3333C64.7383 66.9757 65.4209 67.008 65.685 66.6402C65.8773 66.3721 65.8231 65.5718 65.8231 65.2269Z" fill="#5BC2E7"/>
</svg>
