<svg width="88" height="69" viewBox="0 0 88 69" fill="none" xmlns="http://www.w3.org/2000/svg">
<path d="M25.276 0H34.0402L36.6179 0.136324L41.6014 0.465917C46.5661 0.809315 51.4895 1.46678 56.3802 2.41414C62.522 3.60309 68.8047 5.21137 74.4241 8.03103C81.2138 11.4391 87.988 17.2131 88 25.5029V39.8256C87.9966 41.9343 87.3951 44.2345 86.6785 46.2104C86.108 47.7807 84.9824 49.7065 83.9839 51.0421C81.3289 54.59 77.6566 57.2509 73.393 58.4778C69.6554 59.5528 67.4111 59.1784 63.7696 59.527C60.3997 59.8496 57.5471 60.5433 54.3181 61.52L49.6782 63.2595C45.8203 64.8091 41.995 66.5606 37.9927 67.7064C33.5968 68.9661 30.7957 69.0403 26.3071 68.9885C24.0714 68.9609 20.5159 68.0619 18.4022 67.2715C10.4216 64.2845 4.65444 58.3225 1.66087 50.3518C0.894435 48.3139 0.0403574 44.7488 0.0145804 42.5866V31.8877C0.0145804 27.2268 -0.217412 24.6039 1.16939 19.9809C2.72288 14.8058 5.43462 10.9145 9.29429 7.21136C11.1124 5.46676 13.5716 3.89127 15.8245 2.76789C19.1961 1.08541 21.6466 0.633302 25.276 0ZM84.5631 38.2725C83.5784 39.0974 82.1143 41.3096 81.1244 41.8186C80.0624 42.3622 78.7736 41.691 78.6034 40.5158C78.4316 39.3269 80.6175 37.4183 81.3461 36.3743C82.9769 34.0361 84.3569 30.6349 84.3912 27.7462C84.4187 25.3942 84.4754 24.1673 83.6901 21.8791C82.5748 18.6229 80.0847 15.9723 77.3455 13.9913C72.6283 10.5849 66.6206 8.54699 61.0201 7.14751C54.6051 5.54441 48.0165 4.54528 41.4296 4.08972L36.6179 3.76012L33.8683 3.58756C30.3764 3.58239 26.8312 3.35978 23.3857 4.01206C18.0533 5.02155 12.6264 8.36753 9.2015 12.5608C7.90405 14.1501 6.87641 15.8964 5.98453 17.7376C4.6699 20.452 3.62851 24.0223 3.62336 27.056V30.1621C3.6646 33.5823 5.21809 38.1172 6.95718 41.0335C8.55879 43.7186 10.5814 46.1827 13.0749 48.0861C15.2608 49.7548 17.2113 50.8592 19.7769 51.8324C21.4284 52.4571 23.1864 52.873 24.9323 53.1128C34.5678 54.4398 41.7355 50.2431 50.3656 46.9731C53.4743 45.7962 56.7085 44.8437 59.989 44.2984L64.2852 43.8342C65.5568 43.7807 68.9663 43.3372 69.9406 43.8342C71.1367 44.5296 71.1814 45.9981 70.1108 46.804C69.487 47.2733 68.6346 47.244 67.894 47.2457H67.0347L65.3163 47.4252H63.7696C59.3549 47.8704 55.7203 48.8316 51.5685 50.3605C46.3375 52.2863 41.3969 54.8488 35.9305 56.0757C30.7614 57.2957 26.3002 57.2233 21.1517 56.0757C19.0483 55.5632 16.3366 54.3674 14.4497 53.3096C11.4218 51.6133 8.84405 49.3613 6.59287 46.728L3.62336 42.7591L3.87425 44.6573C4.43619 47.8359 5.34526 50.1137 6.85064 52.9403C8.07762 55.2457 10.2463 57.7306 12.2157 59.4234C14.1833 61.1145 15.7437 62.0515 18.0585 63.1646C20.3629 64.2741 24.0954 65.3337 26.6508 65.3647C30.1015 65.4044 32.3527 65.3751 35.7587 64.5209C42.4916 62.8298 48.6454 59.2509 55.3492 57.382C57.9956 56.6452 60.8568 56.0774 63.5978 55.8893C66.8079 55.6685 69.365 55.8876 72.5338 54.9351C75.5463 54.0309 78.3886 52.0481 80.4164 49.6616C81.3083 48.6107 82.3944 46.9506 82.9632 45.6927C83.556 44.3812 84.2228 41.9533 84.362 40.5158C84.4651 39.4494 84.3173 39.6495 84.5631 38.2725ZM25.7916 6.90248H34.3839C35.0885 6.87487 36.0147 6.93181 36.5457 7.45813C37.4067 8.30713 37.4617 10.4728 34.8994 10.49H27.3382C25.3396 10.5142 22.5952 11.289 20.808 12.1742C18.7218 13.2062 16.7284 14.616 15.1663 16.3571C8.57254 23.7014 8.91967 34.7557 16.1682 41.5357C17.3848 42.6746 18.8146 43.6754 20.2925 44.4399C28.2627 48.5675 35.7174 45.5184 43.3199 42.3139L49.6782 39.8342C54.5432 38.0654 59.324 37.2285 64.457 36.8765L66.1755 36.7194C67.7805 36.7005 68.7051 36.8075 70.2998 36.2846C74.7919 34.8126 77.5724 30.8972 77.5174 26.1932C77.4727 22.4952 74.0495 20.0172 71.159 18.3554C66.3559 15.5944 60.0818 13.8999 54.6618 12.811L48.6471 11.7791C46.6658 11.2717 46.7551 9.09919 47.9666 8.48487C48.7915 8.0086 50.4928 8.37788 51.3967 8.48487L59.6453 10.1673C64.2422 11.3201 69.4973 12.9404 73.5649 15.3908C75.7508 16.7074 77.7958 18.2036 79.2754 20.3261C81.0505 22.8714 81.1605 24.6022 81.1261 27.5737C81.0711 32.2087 77.9057 36.6815 73.9086 38.8092C72.0114 39.8204 69.8616 40.3398 67.7221 40.3432L64.2852 40.5158L61.3638 40.8351C57.1175 41.3441 52.9863 42.5262 48.9908 44.0395L37.1334 48.6745C30.9487 50.5451 23.8445 50.8402 18.0585 47.5166C16.2592 46.483 14.5442 45.2699 13.0749 43.7945C11.164 41.8739 9.6208 39.5546 8.55879 37.0646C6.96577 33.3303 6.84376 30.8472 6.88844 26.8834C6.90219 25.8239 7.17371 24.2984 7.42632 23.2596C8.86124 17.3615 12.69 12.2295 18.0585 9.36666C20.5812 8.02068 22.9887 7.36494 25.7916 6.90248ZM40.3985 7.308C43.0656 7.27521 42.9075 10.5763 40.9141 10.811C38.5976 11.0854 37.7899 7.86537 40.3985 7.308ZM29.5722 13.6617H30.2596C32.0502 13.786 33.736 14.1449 35.2431 15.1872C38.9361 17.7411 40.0205 22.4745 37.3431 26.1932C36.764 26.9973 35.915 27.7618 35.0713 28.276C33.2617 29.3821 31.6532 29.6686 29.5722 29.6444C23.3049 29.5702 18.8301 22.8903 22.5419 17.3925C24.3549 14.7075 26.5941 14.0793 29.5722 13.6617ZM29.9159 17.2838C28.1338 17.484 26.6559 17.8929 25.5596 19.4633C23.3462 22.6298 26.4308 25.9412 29.744 26.0189C30.7304 26.0413 31.5828 25.9343 32.4936 25.5202C33.0521 25.2648 33.5848 24.899 34.0093 24.452C34.3873 24.0517 34.6795 23.6013 34.8788 23.0871C36.1762 19.7566 33.004 17.3149 29.9159 17.2838ZM75.4552 41.6789C76.1374 41.5149 76.7251 41.4891 77.2871 41.9947C78.1893 42.8074 78.0449 44.5607 76.6547 45.0266C74.7266 45.6754 73.192 42.9058 75.4552 41.6789Z" fill="#5BC2E7"/>
</svg>
