<svg width="55" height="69" viewBox="0 0 55 69" fill="none" xmlns="http://www.w3.org/2000/svg">
<path d="M32.4427 7.42052C31.4575 7.42052 29.5884 7.64957 28.9836 6.72123C28.6833 6.26312 28.706 5.65679 28.7046 5.12997V1.89625C28.7126 1.29397 28.7674 0.66339 29.284 0.264564C29.6618 -0.0278181 30.1251 0.011256 30.5737 0.00990863H39.6519C42.8453 0.00990863 44.9547 -0.170641 48.0626 1.00967C49.5659 1.58096 50.9436 2.40825 52.3347 3.2059C52.81 3.47807 54.1077 4.1868 54.4428 4.50748C55.1877 5.22024 55.2198 6.43962 54.332 7.05403C53.7993 7.42187 53.0864 7.41917 52.4683 7.42052H41.6545V12.1364C42.2045 12.1364 43.7545 12.0852 44.191 12.2239C45.9172 12.771 45.5261 15.0252 45.5261 16.448C49.5365 16.6339 52.3281 19.3476 52.3347 23.4544V57.4085V62.3938C52.3347 63.4649 52.4175 64.5873 52.1358 65.6275C51.5578 67.7658 49.8075 68.9919 47.6621 68.996H40.0524C39.3342 68.9825 38.5919 68.6685 38.7801 67.7833C38.927 67.0934 39.4557 66.987 40.0524 66.9749H46.4606C48.7862 66.9641 50.1947 66.1368 50.1987 63.6064V29.1134V25.4755V23.5891C50.1733 21.4293 48.9651 19.52 46.8611 18.8787C46.1696 18.6685 45.4446 18.6052 44.725 18.6038H29.5056C26.1881 18.6092 24.0373 20.4026 24.032 23.8586V44.4736C24.0307 44.9115 24.0694 45.4302 23.7997 45.8007C23.3632 46.403 22.4113 46.3397 22.0521 45.6781C21.8692 45.3386 21.8959 44.8535 21.8959 44.4736V23.3196C21.9026 19.2856 24.8117 16.6285 28.7046 16.448C28.7046 15.0252 28.3135 12.771 30.0397 12.2239C30.4722 12.0865 31.9074 12.1364 32.4427 12.1364V7.42052ZM51.4002 5.12997C49.124 4.10461 48.6073 3.30291 45.6596 2.55512C43.4821 2.00404 41.0897 2.03098 38.8509 2.03098H30.8407V5.26471H45.1256H49.2642L51.4002 5.12997ZM39.6519 7.42052H34.5788V12.1364H39.6519V7.42052ZM5.20801 19.4122V13.888C5.20801 12.9677 5.13192 11.6378 5.45633 10.789C5.85283 9.75553 6.73262 9.45507 7.74458 9.44159H12.4172C13.1034 9.44564 13.7015 9.4928 14.2742 9.93339C15.0512 10.5316 15.0859 11.2417 15.0873 12.1364V19.4122C15.3543 19.419 15.628 19.4136 15.8883 19.489C17.3969 19.9256 17.0898 21.564 17.0898 22.7807C19.4542 23.1553 20.4007 24.9837 20.4274 27.2271V47.9768H28.4376C31.8753 47.9768 34.6295 47.6696 36.8991 50.941C38.385 53.082 38.1834 54.8255 38.1834 57.2737V64.8191C38.1714 67.3535 36.7362 68.9919 34.1783 68.996H9.74713C7.32538 68.9663 6.01304 67.1285 6.00903 64.8191V54.9832C6.02772 51.0906 9.0943 47.9835 12.9512 47.9768H18.2914V47.4378H2.13743V64.4149C2.13877 65.385 2.25625 66.1745 3.20546 66.6838C3.91303 67.0638 5.56847 66.824 5.27877 68.1875C5.09587 69.0445 4.29084 69.0108 3.60597 68.9946C1.30437 68.938 0.00538104 67.1595 0.00137594 64.9538V30.7303C0.00271097 30.3072 -0.0373399 29.7709 0.233672 29.4206C0.676904 28.8453 1.58072 28.9288 1.94385 29.5459C2.16547 29.9232 2.1361 30.4406 2.13743 30.865V33.5598H18.2914V28.8439C18.2914 28.15 18.3634 26.8956 18.1405 26.2839C17.716 25.1211 16.9924 24.9379 15.8883 24.9365H4.54049C3.80089 24.9379 3.2642 24.9284 2.70082 25.5038C2.09338 26.1249 1.8998 27.9115 0.550075 27.1839C-0.324373 26.7137 0.0921582 25.3434 0.472643 24.667C0.790381 24.1025 1.31238 23.5783 1.87042 23.2563C2.18282 23.0758 2.78893 22.902 2.99185 22.6864C3.31894 22.3374 3.16808 21.5007 3.23083 21.0291C3.38302 19.8771 4.13998 19.4392 5.20801 19.4122ZM12.9512 11.5974H9.07961L7.55767 11.7348L7.34407 12.8101V19.4122H12.9512V11.5974ZM9.63098 13.4864C10.0408 13.3423 10.5255 13.2695 10.8913 13.5835C11.4173 14.0348 11.2637 15.0454 10.6736 15.3674C9.63632 15.9346 8.43079 14.5051 9.63098 13.4864ZM43.39 14.2922H30.8407V16.448H43.39V14.2922ZM14.9538 21.568H5.34152V22.7807H14.9538V21.568ZM36.1808 31.3271C37.1581 31.2045 38.0258 31.2773 38.9844 31.4929C39.7868 31.6748 40.4129 31.9267 41.1205 32.3485C44.8319 34.5636 44.9921 37.7771 44.9921 41.6441V45.821C44.964 48.1452 44.2778 50.4587 42.5663 52.0957C41.9936 52.6441 40.9135 53.6439 40.0671 53.1884C39.8054 53.0483 39.6519 52.8422 39.5758 52.5552C39.3288 51.6107 40.2554 51.1135 40.8414 50.5893C41.4475 50.0464 42.0176 49.2676 42.338 48.5157C43.0963 46.7358 42.8587 42.3905 42.856 40.2967C42.8533 38.8631 42.6504 37.3338 41.8414 36.1198C39.7961 33.0491 35.7483 32.56 33.1329 35.1995C31.3253 37.0239 31.3747 38.9978 31.3747 41.3746V44.6083C31.3747 44.9573 31.4054 45.4733 31.2185 45.7751C30.8887 46.3033 30.0076 46.3518 29.5991 45.8978C29.2173 45.4747 29.24 44.7404 29.2386 44.2041C29.2333 40.4786 28.6939 36.2653 31.643 33.4372C32.1771 32.9251 32.8579 32.4657 33.5108 32.1208C34.4146 31.6424 35.1929 31.4902 36.1808 31.3271ZM18.2914 35.7156H2.13743V45.282H18.2914V35.7156ZM36.0473 55.5221C36.038 52.407 34.1556 50.138 30.9742 50.1326H13.2182C10.0275 50.138 8.15443 52.4002 8.14509 55.5221H36.0473ZM36.0473 57.6779H8.14509V64.4149C8.14776 66.4063 8.87268 66.952 10.8152 66.9749H24.032H31.5082C32.4841 66.9749 34.2744 67.0908 35.1101 66.6448C36.0233 66.1584 36.046 65.327 36.0473 64.4149V57.6779Z" fill="#5BC2E7"/>
</svg>
