<svg width="69" height="69" viewBox="0 0 69 69" fill="none" xmlns="http://www.w3.org/2000/svg">
<path d="M22.8722 10.5068H17.7881C17.1925 10.5068 16.1074 10.6042 15.631 10.2539C15.1168 9.87891 15.1749 9.32662 15.1734 8.7627V6.72793C15.1734 6.37766 15.2039 5.90385 15.0252 5.59573C14.7522 5.12192 14.1072 5.01292 13.6525 3.96647C12.8536 2.125 14.0288 0.130937 16.045 0.00739733C17.6515 -0.091434 18.8906 0.891066 19.0678 2.51306C19.1492 3.25866 18.892 4.09291 18.4112 4.66701C18.0742 5.0696 17.6937 5.24982 17.5005 5.59137C17.2593 6.02158 17.3523 7.74822 17.3523 8.34702H23.4532C23.674 8.32958 23.966 8.32958 24.1766 8.34702C24.9697 8.61299 25.0409 9.21906 25.0511 9.92542V16.7564H29.8446V6.72793C29.8446 6.4387 29.8621 5.98815 29.7575 5.72363C29.5991 5.32104 29.1474 5.01873 28.8583 4.68735C28.4066 4.16994 28.1509 3.49411 28.1509 2.80374C28.1509 1.32854 29.2331 0.103322 30.7162 0.00739733C32.2995 -0.0943409 33.6693 0.859091 33.7608 2.51306C33.8 3.22378 33.7361 3.7906 33.3352 4.39958C32.5247 5.63497 32.0279 4.86612 32.0235 6.72793V16.7564H36.9623V6.72793C36.9594 4.90827 36.4685 5.64805 35.6507 4.40103C35.2497 3.78915 35.1858 3.22523 35.225 2.51306C35.3224 0.750086 36.6544 0.00013035 38.2697 0.0451858C39.763 0.0858811 40.835 1.3329 40.835 2.80374C40.835 3.49411 40.5793 4.16994 40.1276 4.68735C39.8385 5.01873 39.3867 5.32104 39.2284 5.72363C39.1238 5.98815 39.1412 6.4387 39.1412 6.72793V16.7564H43.9348V9.92542C43.9508 8.75107 44.359 8.34266 45.5327 8.32667H51.6336C51.6336 7.74822 51.7265 6.02158 51.4854 5.59137C51.2922 5.24982 50.9116 5.0696 50.5746 4.66701C50.0938 4.09291 49.8367 3.25866 49.9181 2.51306C50.1069 0.783514 51.2922 -0.00132305 52.9409 0.0451858C54.9513 0.100415 56.1206 2.15117 55.3333 3.96647C54.8787 5.01292 54.2337 5.12192 53.9606 5.59573C53.782 5.90385 53.8125 6.37766 53.8125 6.72793C53.811 7.57672 54.0565 9.74083 53.3549 10.2539C52.9554 10.5475 52.3962 10.5053 51.9241 10.5068H46.1137V16.7564H50.762C51.192 16.7593 51.6757 16.7288 51.9822 17.0921C52.2379 17.3959 52.2117 17.8377 52.2146 18.2098V22.8607H58.4608V17.7738C58.4608 17.2041 58.3576 16.0631 58.6932 15.6155C59.0738 15.1053 59.6388 15.1591 60.2039 15.1577H62.2375C62.5876 15.1577 63.0612 15.1882 63.3691 15.0094C63.8426 14.7362 63.9516 14.0909 64.9975 13.636C66.8452 12.8337 68.8062 14.0313 68.9877 16.0297C69.1315 17.595 67.9927 18.8856 66.4501 19.0542C65.6468 19.1429 64.7665 18.8188 64.1724 18.2781C63.9037 18.0339 63.6771 17.6575 63.3735 17.486C62.9435 17.2448 61.2178 17.3378 60.6397 17.3378V23.4421C60.6222 24.6702 60.2693 25.0234 59.0418 25.0408H52.2146V29.837H62.2375C62.5266 29.837 62.9769 29.8545 63.2413 29.7498C63.6436 29.5914 63.9458 29.1394 64.277 28.8502C64.8261 28.3691 65.5712 28.1017 66.3048 28.1482C69.1199 28.3211 69.8317 31.7846 67.8968 33.2322C66.9788 33.9196 65.5204 33.9574 64.5631 33.3296C63.3168 32.5113 64.0562 32.02 62.2375 32.0171H52.2146V36.9587H62.2375C64.0562 36.9558 63.3168 36.4645 64.5631 35.6463C65.5204 35.0184 66.9788 35.0562 67.8968 35.7437C69.8317 37.1913 69.1199 40.6547 66.3048 40.8277C65.5712 40.8742 64.8261 40.6067 64.277 40.1257C63.9458 39.8364 63.6436 39.3844 63.2413 39.226C62.9769 39.1214 62.5266 39.1388 62.2375 39.1388H52.2146V43.935H59.0418C60.2155 43.951 60.6237 44.3594 60.6397 45.5338V51.6381C61.2178 51.6381 62.9435 51.7311 63.3735 51.4898C63.6771 51.3183 63.9037 50.9419 64.1724 50.6977C64.7665 50.1571 65.6468 49.8329 66.4501 49.9216C69.2928 50.2326 69.6835 53.7077 67.8968 55.0318C66.9628 55.7236 65.5277 55.7367 64.5646 55.1073C63.3241 54.2993 64.0765 53.8225 62.2375 53.8182H59.9134C59.2394 53.8051 58.6975 53.6975 58.4768 52.9461C58.4651 52.7819 58.4651 52.5363 58.4768 52.3648V46.1151H52.2146V50.0393C52.2146 50.4724 52.2742 51.4113 52.0664 51.7616C51.8035 52.2078 51.3648 52.2107 50.9073 52.2194H46.1137V58.4691H51.1978C51.7672 58.4691 52.9075 58.3659 53.3549 58.7016C53.8648 59.0824 53.811 59.6478 53.8125 60.2131V62.2479C53.8125 62.5982 53.782 63.072 53.9606 63.3801C54.2337 63.8539 54.8787 63.9629 55.3333 65.0094C56.1308 66.8479 54.9528 68.8391 52.9409 68.9684C51.3358 69.0716 50.0938 68.0804 49.9181 66.4628C49.8367 65.7172 50.0938 64.8829 50.5746 64.3088C50.9116 63.9062 51.2922 63.726 51.4854 63.3845C51.7265 62.9543 51.6336 61.2276 51.6336 60.6492H45.5327C44.8267 60.639 44.221 60.5678 43.9552 59.7742C43.9377 59.5635 43.9377 59.2713 43.9552 59.0504V52.2194H39.1412V62.2479C39.1412 62.5371 39.1238 62.9877 39.2284 63.2522C39.3867 63.6548 39.8385 63.9571 40.1276 64.2885C40.6084 64.8379 40.8756 65.5835 40.8292 66.3174C40.6563 69.1341 37.1948 69.8463 35.748 67.9104C35.0609 66.9918 35.0231 65.5326 35.6507 64.5748C36.4685 63.3278 36.9594 64.0676 36.9623 62.2479V52.2194H32.0235V62.2479C32.0264 64.0676 32.5174 63.3278 33.3352 64.5748C33.7361 65.1867 33.8 65.7506 33.7608 66.4628C33.6635 68.2258 32.3315 68.9757 30.7162 68.9307C29.2229 68.89 28.1509 67.6429 28.1509 66.1721C28.1509 65.4817 28.4066 64.8059 28.8583 64.2885C29.1474 63.9571 29.5991 63.6548 29.7575 63.2522C29.8621 62.9877 29.8446 62.5371 29.8446 62.2479V52.2194H25.0511V59.0504C25.0351 60.2248 24.6269 60.6332 23.4532 60.6492H17.3523C17.3523 61.2276 17.2593 62.9543 17.5005 63.3845C17.6937 63.726 18.0742 63.9062 18.4112 64.3088C18.8891 64.88 19.1521 65.7201 19.0678 66.4628C18.8746 68.1807 17.682 68.9772 16.045 68.9307C14.0346 68.8754 12.8652 66.8247 13.6525 65.0094C14.1072 63.9629 14.7522 63.8539 15.0252 63.3801C15.2039 63.072 15.1734 62.5982 15.1734 62.2479C15.1749 61.3265 14.8582 59.1129 15.7632 58.6173C16.0842 58.4414 16.5563 58.4691 16.9165 58.4691H22.8722V52.2194H18.9502C18.5173 52.2194 17.5789 52.279 17.2288 52.0712C16.7829 51.8081 16.78 51.3692 16.7713 50.9114V46.1151H10.5251V51.2021C10.5251 51.7979 10.6224 52.8836 10.2723 53.3604C9.89757 53.8749 9.34559 53.8167 8.78198 53.8182H6.74835C6.39827 53.8182 5.92472 53.7877 5.61677 53.9664C5.14323 54.2397 5.03428 54.885 3.98841 55.3399C2.15088 56.1378 0.16082 54.9591 0.0315394 52.9461C-0.071595 51.3401 0.919076 50.0975 2.53582 49.9216C3.281 49.8402 4.11479 50.0975 4.68856 50.5785C5.09093 50.9157 5.27105 51.2965 5.61241 51.4898C6.04238 51.7311 7.76807 51.6381 8.3462 51.6381V45.6791C8.34765 45.044 8.28955 44.4597 8.93595 44.1051C9.40224 43.8507 10.8113 43.935 11.3967 43.935H16.7713V39.1388H6.74835C6.45928 39.1388 6.00897 39.1214 5.7446 39.226C5.34223 39.3844 5.04009 39.8364 4.7089 40.1257C4.15982 40.6067 3.41464 40.8742 2.68108 40.8277C-0.134057 40.6547 -0.845829 37.1913 1.08903 35.7437C2.00562 35.0562 3.46693 35.017 4.42129 35.6463C5.65599 36.4573 4.88757 36.9543 6.74835 36.9587H16.7713V32.0171H6.74835C4.88757 32.0215 5.65599 32.5186 4.42129 33.3296C3.81265 33.7307 3.24614 33.7946 2.53582 33.7554C0.882761 33.6638 -0.0701424 32.2933 0.0315394 30.7091C0.127411 29.2251 1.35195 28.1424 2.82633 28.1424C3.51632 28.1424 4.19178 28.3982 4.7089 28.8502C5.04009 29.1394 5.34223 29.5914 5.7446 29.7498C6.00897 29.8545 6.45928 29.837 6.74835 29.837H16.7713V25.0408H9.94406C8.77036 25.0248 8.36218 24.6164 8.3462 23.4421V17.3378C7.76807 17.3378 6.04238 17.2448 5.61241 17.486C5.27105 17.6793 5.09093 18.0601 4.68856 18.3973C4.11769 18.8755 3.27809 19.1385 2.53582 19.0542C0.933602 18.874 -0.0701424 17.6212 0.0315394 16.0297C0.16082 14.0167 2.15088 12.838 3.98841 13.636C5.03428 14.0909 5.14323 14.7362 5.61677 15.0094C5.92472 15.1882 6.39827 15.1577 6.74835 15.1577C7.59666 15.1591 9.75958 14.9135 10.2723 15.6155C10.5658 16.0152 10.5236 16.5747 10.5251 17.0471V22.8607H16.7713V18.2098C16.7742 17.7796 16.7437 17.2956 17.1068 16.989C17.4104 16.7332 17.852 16.7593 18.2239 16.7564H22.8722V10.5068ZM16.0638 2.31831C15.2548 2.86915 15.968 3.46214 16.4488 3.28918C16.9064 3.1264 17.0414 2.24564 16.0638 2.31831ZM30.7481 2.31831C29.9957 2.85752 30.6305 3.46504 31.1331 3.28918C31.6357 3.11477 31.7257 2.24418 30.7481 2.31831ZM37.8528 2.31831C37.0437 2.86915 37.7569 3.46214 38.2377 3.28918C38.6953 3.1264 38.8304 2.24564 37.8528 2.31831ZM52.5371 2.31831C51.7846 2.85752 52.4194 3.46504 52.922 3.28918C53.4246 3.11477 53.5147 2.24418 52.5371 2.31831ZM2.69996 15.7012C1.9112 16.1968 2.45738 16.8858 2.95271 16.7622C3.42916 16.643 3.62672 15.7405 2.69996 15.7012ZM66.0332 15.7012C65.2444 16.1968 65.7906 16.8858 66.2859 16.7622C66.7624 16.643 66.9599 15.7405 66.0332 15.7012ZM50.181 18.7912H18.8049V50.1847H50.181V18.7912ZM22.4582 22.1369C23.1336 21.8956 23.9021 21.9887 24.6153 21.9887H28.392H41.4654H45.3874C45.7898 21.9901 46.3229 21.9465 46.6497 22.2212C47.0405 22.5511 46.9838 23.1252 46.9853 23.5874V41.4643V45.3884C46.9838 45.791 47.0274 46.3244 46.7529 46.6514C46.4231 47.0424 45.8493 46.9857 45.3874 46.9872H27.5205H23.5985C23.1961 46.9857 22.663 47.0293 22.3362 46.7546C21.9454 46.4247 22.0021 45.8506 22.0006 45.3884V28.093V23.5874C22.0021 22.9014 21.9134 22.6194 22.4582 22.1369ZM44.9516 24.0234H24.0342V44.9524H44.9516V24.0234ZM42.1946 28.2063C43.3087 28.0537 43.4932 28.7615 43.499 29.6917V34.4879C43.4976 34.8295 43.5194 35.2989 43.3291 35.6027C42.9688 36.1492 42.0014 36.1899 41.6354 35.6027C41.4465 35.3105 41.4669 34.8338 41.4654 34.4879V29.6917C41.4712 28.901 41.4538 28.6104 42.1946 28.2063ZM2.82633 30.398C1.92282 30.6611 2.34988 31.4896 2.82633 31.4896C3.30279 31.4896 3.72985 30.6611 2.82633 30.398ZM66.1595 30.398C65.256 30.6611 65.6831 31.4896 66.1595 31.4896C66.636 31.4896 67.0631 30.6611 66.1595 30.398ZM2.69996 37.5023C1.9112 37.9979 2.45738 38.6868 2.95271 38.5633C3.42916 38.4441 3.62672 37.5415 2.69996 37.5023ZM66.0332 37.5023C65.2444 37.9979 65.7906 38.6868 66.2859 38.5633C66.7624 38.4441 66.9599 37.5415 66.0332 37.5023ZM2.82633 52.1991C1.92282 52.4621 2.34988 53.2906 2.82633 53.2906C3.30279 53.2906 3.72985 52.4621 2.82633 52.1991ZM66.1595 52.1991C65.256 52.4621 65.6831 53.2906 66.1595 53.2906C66.636 53.2906 67.0631 52.4621 66.1595 52.1991ZM16.0638 65.6867C15.2548 66.2375 15.968 66.8305 16.4488 66.6575C16.9064 66.4948 17.0414 65.614 16.0638 65.6867ZM30.7481 65.6867C29.9957 66.2259 30.6305 66.8334 31.1331 66.6575C31.6357 66.4831 31.7257 65.6125 30.7481 65.6867ZM37.8528 65.6867C37.0437 66.2375 37.7569 66.8305 38.2377 66.6575C38.6953 66.4948 38.8304 65.614 37.8528 65.6867ZM52.5371 65.6867C51.7846 66.2259 52.4194 66.8334 52.922 66.6575C53.4246 66.4831 53.5147 65.6125 52.5371 65.6867Z" fill="#5BC2E7"/>
</svg>
