<svg width="83" height="69" viewBox="0 0 83 69" fill="none" xmlns="http://www.w3.org/2000/svg">
<path d="M52.5671 14.3087C52.5689 12.3527 53.0409 10.3795 53.9089 8.62172C55.2801 5.84027 56.8364 3.95151 59.4837 2.26092C62.7863 0.149844 65.4043 -0.0379979 69.1669 0.00508534C74.4235 0.0671251 79.4743 4.0325 81.6547 8.62172C82.4692 10.3347 82.9965 12.2355 83 14.1364V54.6346C82.9983 56.2166 82.7493 57.2816 82.2513 58.7706C80.6449 63.57 76.6869 67.2528 71.7606 68.5108C69.7721 69.0192 68.7536 68.9606 66.7461 68.9382C64.5777 68.9123 61.8561 68.0369 60.0024 66.9391C58.0727 65.7948 55.6346 63.8354 54.815 61.7002H54.4692C53.864 63.2771 52.325 64.7729 51.0109 65.8C46.0206 69.6999 38.5386 70.1014 33.2007 66.6393C31.6186 65.6122 29.5799 64.006 28.8779 62.2172L25.0738 65.5846C23.317 66.9995 21.3803 67.9197 19.1947 68.466C9.55821 70.8752 0.115375 63.7269 0.00125143 53.7729C-0.0696433 47.4914 2.87854 44.1843 7.09073 39.9863L11.9323 35.161L25.5925 21.5467C27.6087 19.5373 31.9558 14.9446 34.0653 13.5677C37.4925 11.3273 39.9461 10.9879 43.9214 11.0344C45.2321 11.0499 47.0149 11.4463 48.2443 11.9064C49.9336 12.5406 51.1025 13.285 52.5671 14.3087ZM80.2334 33.093V19.134C80.2334 14.8653 80.3388 10.9189 77.4114 7.4154C72.3208 1.32515 62.9748 1.30447 58.0174 7.58773C55.9874 10.1607 55.3389 13.3488 55.3337 16.549V33.093H80.2334ZM40.9819 14.014C36.4809 14.7585 34.7189 16.7593 31.6445 19.8234L24.3821 27.0613C23.8962 27.5456 21.7971 29.4998 21.6743 29.991C21.5221 30.5942 22.4403 31.3283 22.8259 31.7143L27.3217 36.195L30.773 39.6416C31.1396 40.0242 31.8814 40.9996 32.3379 41.1426C32.8809 41.3115 33.7558 40.6446 34.2382 40.3844C35.4123 39.7502 37.0792 39.1246 38.3882 38.8575C39.711 38.587 42.2511 38.4767 43.5756 38.6835L46.861 39.3831C47.5405 39.297 48.4483 38.2319 48.9359 37.746C49.6743 37.0101 52.1366 34.7474 52.4392 33.9546C52.5896 33.5617 52.5671 32.9982 52.5671 32.576V19.8234C52.5671 19.4632 52.5879 18.9514 52.4634 18.617C52.1763 17.8381 50.6806 16.5973 49.9734 16.1216C47.1497 14.2225 44.3312 13.6969 40.9819 14.014ZM30.2612 43.2606L22.1343 35.161L20.2322 33.2688C19.9711 33.0206 19.582 32.6104 19.1947 32.6104C18.7036 32.6104 17.9774 33.4463 17.6385 33.7823L14.1802 37.229L8.99278 42.3989C5.38234 45.9973 3.09468 48.0463 2.89583 53.4282C2.67969 59.3393 6.82444 64.5713 12.624 65.8C13.2949 65.9413 14.9064 66.1343 15.5635 66.093C19.3486 65.8534 21.8455 64.7316 24.555 62.0449C25.0029 61.6003 26.6196 60.0424 26.8704 59.6322C27.3113 58.9084 26.8496 58.1467 26.6715 57.3919C26.2081 55.4445 26.2617 54.7001 26.2842 52.7389C26.3119 50.4469 27.2784 47.7895 28.4646 45.8456L30.2612 43.2606ZM80.2334 35.8503H55.3337V46.0179C55.3372 48.3599 56.6859 50.0815 56.679 52.7389V55.8409C56.5148 56.7336 56.1153 57.7555 56.4335 58.5982C57.0058 60.1044 57.9949 61.4417 59.1379 62.5602C64.391 67.6905 72.9987 67.1218 77.5497 61.3556C80.3821 57.7659 80.2334 53.9297 80.2334 49.6369V35.8503ZM52.5671 38.263L49.9734 41.0203L52.5671 43.0883V38.263ZM49.1088 44.1223C43.9404 40.1776 36.4118 41.1116 32.2151 46.0179C29.5471 49.1372 28.6912 53.6626 29.867 57.5642C30.2647 58.8843 30.9235 60.4525 31.9904 61.3556L43.2298 50.1539L49.1088 44.1223ZM51.1838 46.1903L46.861 50.3263L39.2527 57.9089L35.7945 61.3556L33.8924 63.5959C37.3057 65.4984 37.9957 66.0154 42.0194 66.0085C43.5739 66.0068 45.1042 65.6725 46.5151 65.0125C53.8623 61.5779 56.1551 52.6097 51.1838 46.1903Z" fill="#5BC2E7"/>
</svg>
