<svg width="69" height="69" viewBox="0 0 69 69" fill="none" xmlns="http://www.w3.org/2000/svg">
<path d="M30.1513 44.878V16.8293C30.1672 15.6919 30.7601 14.8813 31.2747 13.8841L33.6665 9.2561C34.255 8.11591 34.7827 7.4764 34.7899 6.17073V2.2439C34.7928 0.445976 35.4669 0.00280488 37.2542 0H57.9832H62.187C62.9422 0.00981707 63.5046 0.0785366 63.9975 0.708232C64.3976 1.22152 64.3599 1.77829 64.3613 2.38415V6.31098C64.3773 7.44835 64.9702 8.25896 65.4848 9.2561L67.8766 13.8841C68.5448 15.1772 68.9971 15.6302 69 17.1098V46.4207V65.9146C68.9899 67.9341 67.6983 68.9972 65.666 69H21.4538L19.7984 68.8598L18.2647 69H4.34874C1.69891 68.9958 0.00434874 67.3563 0 64.7927V34.5C0.00289916 32.5436 0.75958 30.6601 2.0729 29.1707C2.47008 28.7205 2.99483 28.2269 3.47899 27.8637C3.7805 27.6365 4.3067 27.3448 4.4908 27.0376C4.63866 26.7922 4.63286 26.5005 4.63866 26.2256V24.122C4.22408 24.122 3.43695 24.1935 3.13109 23.8976C2.85277 23.6283 2.90061 23.0757 2.89916 22.7195C2.89771 22.1389 2.85277 20.5233 2.98034 20.0549C3.33548 18.7324 4.58792 17.968 5.94328 17.9512H16.3803C17.8023 17.954 18.9431 18.4 19.536 19.7744C19.8042 20.3943 19.7273 22.2497 19.7143 23C19.7085 23.3001 19.7201 23.669 19.4824 23.8976C19.1765 24.1935 18.3894 24.122 17.9748 24.122V26.2256C17.9994 27.5229 18.5024 27.2073 19.8592 28.4751C20.8899 29.4386 21.7379 30.6475 22.1742 31.9756C22.7903 33.8493 22.6134 35.2363 22.6134 37.1646V44.878H30.1513ZM39.4286 1.68293C38.9169 1.68293 37.2238 1.59598 36.8643 1.82598C36.4642 2.08402 36.5309 2.67726 36.5294 3.08537V6.73171H39.4286V1.68293ZM44.0672 1.68293H41.1681V4.06707L44.0672 3.5061V1.68293ZM48.7059 1.68293H45.8067V3.36585H48.7059V1.68293ZM53.3445 1.68293H50.4454V3.5061L53.3445 4.06707V1.68293ZM57.9832 1.68293H55.084V6.73171H57.9832V1.68293ZM62.6219 6.73171V2.80488C62.6146 2.45146 62.6291 2.04756 62.287 1.82598C61.9275 1.59598 60.2344 1.68293 59.7227 1.68293V6.73171H62.6219ZM52.7647 5.89024C51.176 4.97866 47.3911 5.18061 45.5168 5.18902C44.6427 5.19323 42.2784 5.36713 41.7479 6.03049C43.054 6.22543 44.1354 6.57463 45.5168 6.59146H48.9958C49.9322 6.58024 51.9805 6.34043 52.7647 5.89024ZM53.3445 7.71341L50.8803 8.2239C48.8798 8.5086 45.4777 8.52262 43.4874 8.2239L41.1681 7.71341V8.69512C41.1681 9.02329 41.1362 9.4861 41.3159 9.77079C41.7812 10.5113 43.9324 10.8661 44.792 10.9965C46.4489 11.2462 49.5394 11.1354 51.1702 10.7315C51.7558 10.587 52.8502 10.2869 53.1749 9.77079C53.4243 9.3725 53.3445 8.21409 53.3445 7.71341ZM39.4286 8.41463H37.2542C36.1308 8.42165 36.2525 8.45951 35.406 10.0976L32.6155 15.7073H57.1134L58.2789 15.4871L59.469 13.3232L61.8971 8.41463H55.084V9.2561C55.084 9.5997 55.1029 10.0583 54.9768 10.378C54.423 11.7833 52.1254 12.4312 50.7353 12.6766C48.3652 13.0932 44.4688 13.0357 42.1828 12.291C40.6375 11.7889 39.4373 11.1101 39.4286 9.39634V8.41463ZM63.6366 9.81707H63.3466L60.8461 14.7256C60.1779 16.0187 59.7256 16.4716 59.7227 17.9512V53.1524V65.0732C59.7299 65.6426 59.7792 66.4097 60.2199 66.836C60.9331 67.5274 63.8859 67.3283 64.9412 67.3171C66.9315 67.2932 67.2576 66.5724 67.2605 64.7927V17.9512C67.2576 16.4716 66.8053 16.0187 66.1371 14.7256L63.6366 9.81707ZM57.9832 17.3902H31.8908V44.878H36.0945C36.4961 44.8795 37.0281 44.8374 37.3542 45.1024C37.7369 45.4138 37.6978 45.9804 37.6876 46.4207L37.2788 50.3476L36.2641 60.1646L35.548 66.0549C35.4016 66.5065 35.161 66.902 34.9349 67.3171H58.2731C57.7716 66.0212 57.9832 63.5838 57.9832 62.128V52.0305V17.3902ZM17.9748 22.439C17.9748 21.6845 18.0458 20.5317 17.3631 20.0156C16.8528 19.6313 15.9816 19.6355 15.3655 19.6341H6.95798C4.69809 19.6608 4.63866 20.5513 4.63866 22.439H17.9748ZM16.2353 24.122H6.37815V26.9268H16.2353V24.122ZM48.1261 30.9939C48.1724 30.4624 48.5102 28.7556 48.8291 28.3727C49.2002 27.9296 50.2004 27.8973 50.4004 28.6182C50.7049 29.7163 49.3814 31.5507 50.1888 32.3585C50.5266 32.6951 51.2876 32.9138 51.75 33.099C53.014 33.6066 55.2783 34.6529 55.6073 36.0427C55.9523 37.4998 55.0942 38.2375 53.7794 38.6947C53.1054 38.9289 52.3675 38.8588 52.0892 39.5558C51.6529 40.6497 52.2487 40.7352 52.6009 41.6524C52.9329 42.5177 52.8705 43.7912 52.398 44.5976C51.6746 45.8317 50.3396 46.6423 48.9958 47.1149C45.6415 48.2944 39.6591 47.941 37.563 44.7378C37.0484 43.951 36.9425 42.5248 37.273 41.6524C37.6094 40.7647 38.2805 40.48 37.7326 39.4282C37.4615 38.9093 36.7642 38.9093 36.2395 38.7424C34.8957 38.316 33.9999 37.6779 34.2405 36.1829C34.4942 34.6024 36.9107 33.6207 38.2689 33.0583C38.6922 32.883 39.3749 32.667 39.6851 32.3585C40.4926 31.5507 39.1691 29.7163 39.4735 28.6182C39.6736 27.8973 40.6738 27.9296 41.0449 28.3727C41.3638 28.7556 41.7015 30.4624 41.7479 30.9939C43.6034 30.001 46.2706 30.001 48.1261 30.9939ZM20.874 38.1463C20.874 35.0441 21.0508 32.2379 18.5532 29.8776C17.5559 28.9351 17.0297 28.6126 15.6555 28.6098H6.95798C5.58378 28.6126 5.05758 28.9351 4.06027 29.8776C1.56265 32.2379 1.7395 35.0441 1.7395 38.1463H20.874ZM50.1555 39.2683C50.2772 38.8546 50.2932 38.7157 50.3004 38.2866C50.3193 36.9599 50.3164 36.2881 49.6815 35.061C49.3031 34.3289 48.9088 33.81 48.271 33.263C47.7709 32.8353 47.3027 32.5702 46.6765 32.3543C45.8966 32.085 45.4545 32.1074 44.6471 32.1159C42.0871 32.1467 40.0794 34.2532 39.6069 36.6037C39.5518 37.0791 39.5663 37.7901 39.6069 38.2866C39.5808 38.7157 39.5967 38.8546 39.7185 39.2683C43.067 37.7214 46.8069 37.7214 50.1555 39.2683ZM37.979 35.2012C37.1658 35.622 36.512 35.908 36.0945 36.7439L37.6891 37.1646L37.979 35.2012ZM52.0399 35.2012L52.1849 37.1646L53.7794 36.7439C53.3735 35.9333 52.7879 35.6837 52.0399 35.2012ZM20.874 39.8293H1.7395V56.0976H16.0903L15.209 47.6829C15.1452 46.9284 14.7205 45.3296 15.6642 44.9622C15.9193 44.8626 16.3875 44.878 16.6702 44.878H20.874V39.8293ZM44.937 39.9092C43.1482 39.9962 39.5996 40.4505 39.056 42.4939C38.8197 43.383 39.3416 44.0127 40.0084 44.5513C41.2724 45.5737 43.3265 45.9201 44.937 45.9201C46.5475 45.9201 48.6015 45.5737 49.8655 44.5513C50.5251 44.0184 51.0615 43.376 50.8179 42.4939C50.7078 42.097 50.4468 41.8067 50.1497 41.5248C48.7523 40.2023 46.7852 40.0004 44.937 39.9092ZM35.8046 46.561H16.9601L17.5399 51.6098H35.2248L35.8046 46.561ZM35.0798 53.2927H17.6849L17.9501 55.8171L18.543 61.5671C18.6315 62.647 18.7358 65.2176 19.278 66.0549C20.0303 67.2133 21.1856 67.3157 22.4685 67.3171H30.4412C31.7415 67.3115 32.8852 67.1263 33.5708 65.9146C34.0086 65.1377 34.1391 62.5656 34.2217 61.5671L34.8146 55.8171L35.0798 53.2927ZM16.2353 57.7805H1.7395V63.9512C1.74964 64.7043 1.88155 65.7267 2.38021 66.3298C3.05281 67.1446 4.20233 67.3045 5.21849 67.3171H17.8298C16.8441 65.5037 16.9934 64.9245 16.7905 62.9695L16.2353 57.7805Z" fill="#5BC2E7"/>
</svg>
