<svg width="94" height="69" viewBox="0 0 94 69" fill="none" xmlns="http://www.w3.org/2000/svg">
<path d="M46.7839 59.6332C45.9564 61.1772 43.8044 63.1064 42.3807 64.1406C38.4398 66.9995 32.9725 68.9782 28.0703 68.9856H24.7679C21.8637 68.9819 17.7008 67.9348 15.0442 66.7538C7.35516 63.3374 2.43643 56.3341 0.656809 48.2636C0.302719 46.659 0.00183466 44.9591 0 43.3123V39.2779C0.00366932 36.4209 0.963197 31.7942 1.75761 29.0086C3.85462 21.6514 7.91106 13.1206 13.2096 7.55315L14.6938 5.9339C17.4715 3.23638 21.8361 0.082237 25.8687 0.0345581H26.9695C33.1083 0.0437271 39.2526 5.97425 42.5568 10.6706L45.2336 14.705L47.1508 18.0058C48.4424 15.0094 51.2971 10.777 53.4125 8.28667C55.071 6.33551 56.7883 4.58056 58.8926 3.10068C60.2411 2.1526 62.0923 1.08899 63.6628 0.5902C72.4636 -2.20635 79.7564 5.49379 84.3688 11.9543C85.9906 14.2264 88.0326 17.8206 89.137 20.3898L91.6982 26.9915C94.9236 37.1122 95.3015 48.6102 89.2857 57.7994C88.095 59.6167 86.6052 61.4248 84.9448 62.8258C82.9744 64.4872 81.4021 65.5435 79.0739 66.642C76.5953 67.8119 72.271 68.9525 69.5337 68.9856C66.8184 69.0167 64.9012 69.0442 62.195 68.5344C57.3442 67.6194 52.2053 65.0117 48.6185 61.6338L46.7839 59.6332ZM26.6026 3.43993C19.3997 3.81036 13.6279 11.7104 10.3805 17.4557L7.36617 23.6906C2.297 35.5865 0.765054 52.4502 12.4757 61.0709C14.3434 62.4462 16.3358 63.4713 18.5301 64.2177C21.139 65.1052 22.7626 65.3931 25.5018 65.549H26.9695C30.2462 65.3821 32.8826 65.0869 35.9594 63.7721C38.1481 62.8368 40.1938 61.6375 42.0138 60.1026C43.4356 58.9033 44.6483 57.5059 45.6831 55.9656C52.7924 45.3717 49.3873 31.3101 44.4557 20.5732C42.3312 15.9501 38.7664 10.4084 34.8586 7.14055C32.3414 5.03534 29.9435 3.61231 26.6026 3.43993ZM66.2313 3.38858C59.9934 4.42468 54.761 11.4426 51.7008 16.5388L49.5817 20.3898C49.323 20.9069 48.8827 21.6441 48.9102 22.2236C48.9304 22.6655 49.424 23.775 49.6093 24.2408L50.7431 27.5416C51.7815 31.0882 52.5851 34.6678 52.8548 38.361L53.0217 40.1948C53.0658 44.0513 52.6383 47.9115 51.3302 51.5644C50.8972 52.7729 50.356 54.0969 49.7597 55.232C49.5065 55.7162 49.0442 56.3195 49.2075 56.8825C49.3267 57.2969 49.9817 58.0231 50.2862 58.3495C51.3173 59.4571 52.3209 60.3135 53.5721 61.1607C58.2303 64.313 63.0078 65.7269 68.6164 65.4793H70.2675C72.7939 65.1456 76.0926 64.3222 78.3401 63.1376C80.4187 62.0428 82.1507 60.9168 83.844 59.2646C87.8289 55.3714 89.8948 50.2661 90.4415 44.7794V43.1289L90.625 41.6619L90.4562 39.6447C90.1406 32.3847 87.906 25.3796 84.6219 18.9227C82.5451 14.8389 79.9399 11.1529 76.6889 7.91991C73.7919 5.03901 70.4327 2.99065 66.2313 3.38858ZM63.4793 8.60759C64.9984 8.31968 66.0919 9.60151 65.5451 11.0374C65.3415 11.5747 63.261 13.8303 62.7106 14.5216C61.1034 16.537 59.3366 19.3042 58.3184 21.6734C57.8506 22.7645 57.2653 24.5378 57.1112 25.7078C56.9938 26.5899 57.069 28.1101 56.4507 28.7831C55.6691 29.6321 54.306 29.4763 53.7593 28.4512C53.5097 27.9817 53.5666 26.9896 53.5721 26.4413C53.6272 21.7651 56.6947 16.5333 59.3935 12.8712C60.3512 11.5728 62.0831 9.32644 63.4793 8.60759ZM11.1951 26.9273C12.5307 26.6834 13.4848 27.4169 13.3563 28.8253L12.0868 33.043C11.2905 36.0761 11.0025 38.3519 11.008 41.4785C11.0098 42.764 11.1878 44.0917 11.5419 45.3295C11.7473 46.0465 12.1968 47.0203 12.2555 47.7134C12.3216 48.513 11.9858 49.2043 11.1841 49.4537C8.6486 50.2404 8.07618 46.0924 7.81382 44.4126C7.1772 40.3397 7.85419 35.1684 8.98984 31.2092C9.40815 29.7495 9.6705 27.5985 11.1951 26.9273Z" fill="#5BC2E7"/>
</svg>
