<svg width="198" height="175" viewBox="0 0 198 175" fill="none" xmlns="http://www.w3.org/2000/svg">
<g clip-path="url(#clip0_15_733)">
<path d="M37.1755 164.207H1.94694C0.881633 164.207 0 163.326 0 162.261V95.8151C0 94.7137 0.881633 93.8694 1.94694 93.8694H37.1388C38.2041 93.8694 39.0857 94.7504 39.0857 95.8151V162.261C39.0857 163.363 38.2041 164.207 37.1388 164.207M3.93061 160.279H35.2286V97.724H3.93061V160.279Z" fill="#0096DA"/>
<path d="M99.7716 97.724C86.694 97.724 74.4247 92.6212 65.2043 83.4068C46.1389 64.354 46.1389 33.3334 65.2043 14.2806C74.4614 5.02946 86.7308 -0.0366211 99.7716 -0.0366211C112.812 -0.0366211 125.119 5.02946 134.339 14.2806C153.404 33.3334 153.404 64.354 134.339 83.4068C125.119 92.6212 112.812 97.724 99.7716 97.724ZM99.7716 3.89143C87.7594 3.89143 76.4451 8.55369 67.9594 17.0706C50.4369 34.6183 50.4369 63.1425 67.9594 80.6535C76.4451 89.1337 87.7594 93.8327 99.7716 93.8327C111.784 93.8327 123.098 89.1704 131.584 80.6535C149.143 63.1425 149.143 34.6183 131.584 17.0706C123.098 8.5904 111.784 3.89143 99.7716 3.89143Z" fill="#0096DA"/>
<path d="M73.7264 69.0163C73.2122 69.0163 72.7346 68.8327 72.3305 68.4656C71.5591 67.6947 71.5591 66.4832 72.3305 65.7123L94.4448 43.5758C95.2162 42.8048 96.4285 42.8048 97.1999 43.5758C97.9713 44.3467 97.9713 45.5948 97.1999 46.3291L75.0856 68.4656C74.7183 68.8327 74.204 69.0163 73.6897 69.0163" fill="#0096DA"/>
<path d="M81.5512 76.8356C81.0369 76.8356 80.5593 76.6521 80.1552 76.2482C79.3838 75.4773 79.3838 74.2292 80.1552 73.4949L102.27 51.3951C103.041 50.6242 104.29 50.6242 105.025 51.3951C105.796 52.166 105.796 53.4142 105.025 54.1484L82.9103 76.285C82.5063 76.6521 82.0287 76.8723 81.5144 76.8723" fill="#0096DA"/>
<path d="M99.7713 74.2658C92.9754 74.2658 86.5835 71.6226 81.7713 66.8135C71.8529 56.9016 71.8529 40.7856 81.7713 30.8737C86.1795 26.4684 92.0937 23.8619 98.4488 23.5316C99.5509 23.4581 100.469 24.3025 100.506 25.3671C100.579 26.4317 99.7346 27.3495 98.6693 27.4229C93.306 27.7166 88.2733 29.8825 84.5631 33.5903C76.1876 41.9603 76.1876 55.6167 84.5631 63.9868C88.6407 68.0617 94.0407 70.301 99.7713 70.301C105.502 70.301 110.939 68.0617 114.979 63.9868C118.69 60.279 120.894 55.2863 121.151 49.8899C121.224 48.8252 122.143 47.9809 123.208 48.0543C124.273 48.1277 125.118 49.0455 125.045 50.1101C124.714 56.4611 122.106 62.3715 117.735 66.7401C112.922 71.5492 106.53 74.1923 99.7346 74.1923" fill="#0096DA"/>
<path d="M102.747 175C101.057 175 99.4039 174.78 97.7876 174.303L36.5876 156.314C35.559 156.021 34.9712 154.919 35.2651 153.891C35.559 152.864 36.661 152.276 37.6896 152.57L98.8896 170.558C101.902 171.439 105.134 171.256 108.037 170.044L190.983 135.353C193.408 134.361 194.657 131.681 193.885 129.185C193.077 126.542 190.249 125.037 187.567 125.808L137.792 140.676C136.763 140.969 135.661 140.382 135.367 139.354C135.073 138.326 135.661 137.225 136.69 136.931L186.465 122.063C191.167 120.668 196.2 123.348 197.632 128.01C198.992 132.452 196.788 137.151 192.526 138.95L109.579 173.642C107.412 174.523 105.098 175 102.783 175" fill="#0096DA"/>
<path d="M129.086 144.64H76.2612C75.1959 144.64 74.3142 143.759 74.3142 142.695C74.3142 141.63 75.1959 140.749 76.2612 140.749H129.086C133.384 140.749 136.91 137.225 136.91 132.93C136.91 128.634 133.384 125.11 129.086 125.11H103.812C100.837 125.11 97.8612 124.339 95.253 122.908L67.151 107.305C65.1306 106.167 62.8163 105.58 60.502 105.58H37.1755C36.1101 105.58 35.2285 104.699 35.2285 103.634C35.2285 102.57 36.1101 101.689 37.1755 101.689H60.502C63.4775 101.689 66.453 102.46 69.0612 103.891L97.1999 119.493C99.2203 120.631 101.535 121.219 103.849 121.219H129.122C135.588 121.219 140.841 126.468 140.841 132.966C140.841 139.464 135.588 144.677 129.122 144.677" fill="#0096DA"/>
</g>
<defs>
<clipPath id="clip0_15_733">
<rect width="198" height="175" fill="white"/>
</clipPath>
</defs>
</svg>
