<svg width="184" height="211" viewBox="0 0 184 211" fill="none" xmlns="http://www.w3.org/2000/svg">
<g clip-path="url(#clip0_15_782)">
<path d="M35.5137 211H13.7131C12.647 211 11.7646 210.12 11.7646 209.057V197.212C11.7646 196.149 12.647 195.269 13.7131 195.269H35.5137C36.5798 195.269 37.4622 196.149 37.4622 197.212V209.057C37.4622 210.12 36.5798 211 35.5137 211ZM15.6616 207.113H33.5652V199.192H15.6616V207.113Z" fill="#0096DA"/>
<path d="M174.221 125.082H158.56C153.156 125.082 148.781 120.681 148.781 115.328V37.2201C148.781 36.1567 149.664 35.2766 150.73 35.2766H182.052C183.118 35.2766 184 36.1567 184 37.2201V115.328C184 120.718 179.626 125.082 174.221 125.082ZM152.678 39.1636V115.328C152.678 118.555 155.325 121.195 158.56 121.195H174.221C177.457 121.195 180.104 118.555 180.104 115.328V39.1636H152.715H152.678Z" fill="#0096DA"/>
<path d="M107.643 211H85.842C84.7759 211 83.8936 210.12 83.8936 209.057V197.212C83.8936 196.149 84.7759 195.269 85.842 195.269H107.643C108.709 195.269 109.591 196.149 109.591 197.212V209.057C109.591 210.12 108.709 211 107.643 211ZM87.7905 207.113H105.694V199.192H87.7905V207.113Z" fill="#0096DA"/>
<path d="M92.0188 62.5958H29.3742C28.3081 62.5958 27.4258 61.7158 27.4258 60.6523V17.7116C27.4258 16.6115 28.3081 15.7681 29.3742 15.7681H92.0188C93.0849 15.7681 93.9672 16.6481 93.9672 17.7116V60.6523C93.9672 61.7524 93.0849 62.5958 92.0188 62.5958ZM31.3227 58.7088H90.0336V19.6551H31.3227V58.7088Z" fill="#0096DA"/>
<path d="M119.407 199.155H1.94845C0.882318 199.155 0 198.275 0 197.212V84.0846C0 78.6941 4.37483 74.3303 9.77902 74.3303H111.576C116.981 74.3303 121.355 78.6941 121.355 84.0846V197.212C121.355 198.275 120.473 199.155 119.407 199.155ZM3.93367 195.268H117.459V84.0846C117.459 80.8576 114.812 78.2174 111.576 78.2174H9.77902C6.54386 78.2174 3.8969 80.8576 3.8969 84.0846V195.268H3.93367Z" fill="#0096DA"/>
<path d="M57.6817 160.175C57.167 160.175 56.6523 159.955 56.2847 159.589L34.1532 137.513C33.3812 136.743 33.3812 135.533 34.1532 134.763L45.219 123.725C45.5866 123.358 46.1013 123.175 46.616 123.175C47.1307 123.175 47.6454 123.395 48.013 123.725L57.6817 133.406L81.2102 109.937C81.9822 109.167 83.1954 109.167 83.9674 109.937L95.0332 120.975C95.4008 121.342 95.6214 121.855 95.6214 122.368C95.6214 122.882 95.4008 123.395 95.0332 123.762L59.042 159.662C58.6743 160.029 58.1596 160.249 57.645 160.249M38.3075 136.12L57.6817 155.445L90.9157 122.295L82.6072 114.008L59.0787 137.476C58.7111 137.843 58.1964 138.027 57.6817 138.027C57.167 138.027 56.6523 137.843 56.2847 137.476L46.616 127.796L38.3075 136.083V136.12Z" fill="#0096DA"/>
<path d="M119.407 93.8389C118.341 93.8389 117.459 92.9588 117.459 91.8954V72.2402L106.834 8.80083C106.356 5.97723 103.93 3.92371 101.062 3.92371H20.3301C17.4625 3.92371 14.9994 5.97723 14.5215 8.80083L3.8969 72.5702V91.8954C3.8969 92.9955 3.05135 93.8389 1.94845 93.8389C0.845554 93.8389 0 92.9588 0 91.8954V72.2402L10.6613 8.17744C11.4701 3.44699 15.5141 0 20.3301 0H101.025C105.841 0 109.885 3.44699 110.694 8.17744L121.355 71.9468V91.932C121.355 93.0322 120.51 93.8756 119.444 93.8756" fill="#0096DA"/>
<path d="M150.73 199.302C141.024 199.302 133.12 191.418 133.12 181.737V173.926C133.12 166.372 126.981 160.248 119.407 160.248C118.341 160.248 117.459 159.368 117.459 158.305C117.459 157.242 118.341 156.361 119.407 156.361C129.113 156.361 137.017 164.246 137.017 173.926V181.737C137.017 189.291 143.156 195.415 150.73 195.415C158.303 195.415 164.442 189.291 164.442 181.737V123.175C164.442 122.112 165.325 121.231 166.391 121.231C167.457 121.231 168.339 122.112 168.339 123.175V181.737C168.339 191.418 160.435 199.302 150.73 199.302Z" fill="#0096DA"/>
</g>
<defs>
<clipPath id="clip0_15_782">
<rect width="184" height="211" fill="white"/>
</clipPath>
</defs>
</svg>
