<svg width="184" height="211" viewBox="0 0 184 211" fill="none" xmlns="http://www.w3.org/2000/svg">
<g clip-path="url(#clip0_15_793)">
<path d="M60.696 175.723C39.1528 175.723 21.6167 158.232 21.6167 136.743C21.6167 115.254 39.1528 97.7627 60.696 97.7627C82.2393 97.7627 99.7753 115.254 99.7753 136.743C99.7753 158.232 82.2393 175.723 60.696 175.723ZM60.696 101.65C41.285 101.65 25.5136 117.381 25.5136 136.743C25.5136 156.105 41.285 171.836 60.696 171.836C80.107 171.836 95.8784 156.105 95.8784 136.743C95.8784 117.381 80.107 101.65 60.696 101.65Z" fill="#0096DA"/>
<path d="M79.2614 138.686H60.696C59.6299 138.686 58.7476 137.806 58.7476 136.743V110.817C58.7476 109.754 59.6299 108.874 60.696 108.874C61.7621 108.874 62.6445 109.754 62.6445 110.817V134.799H79.2614C80.3276 134.799 81.2099 135.679 81.2099 136.743C81.2099 137.806 80.3276 138.686 79.2614 138.686Z" fill="#0096DA"/>
<path d="M35.5134 211H13.676C12.6099 211 11.7275 210.12 11.7275 209.057V197.212C11.7275 196.149 12.6099 195.269 13.676 195.269H35.4766C36.5427 195.269 37.425 196.149 37.425 197.212V209.057C37.425 210.12 36.5427 211 35.4766 211M15.6612 207.113H33.5649V199.192H15.6612V207.113Z" fill="#0096DA"/>
<path d="M174.221 125.082H158.56C153.156 125.082 148.781 120.681 148.781 115.328V37.2201C148.781 36.1567 149.663 35.2766 150.729 35.2766H182.051C183.118 35.2766 184 36.1567 184 37.2201V115.328C184 120.718 179.625 125.082 174.221 125.082ZM152.678 39.1636V115.328C152.678 118.555 155.325 121.195 158.56 121.195H174.221C177.456 121.195 180.103 118.555 180.103 115.328V39.1636H152.714H152.678Z" fill="#0096DA"/>
<path d="M107.643 211H85.842C84.7759 211 83.8936 210.12 83.8936 209.057V197.212C83.8936 196.149 84.7759 195.269 85.842 195.269H107.643C108.709 195.269 109.591 196.149 109.591 197.212V209.057C109.591 210.12 108.709 211 107.643 211ZM87.7905 207.113H105.694V199.192H87.7905V207.113Z" fill="#0096DA"/>
<path d="M92.0183 62.5958H29.3737C28.3076 62.5958 27.4253 61.7158 27.4253 60.6523V17.7116C27.4253 16.6481 28.3076 15.7681 29.3737 15.7681H92.0183C93.0844 15.7681 93.9667 16.6481 93.9667 17.7116V60.6523C93.9667 61.7158 93.0844 62.5958 92.0183 62.5958ZM31.3222 58.7088H90.0331V19.6551H31.3222V58.7088Z" fill="#0096DA"/>
<path d="M119.407 199.155H1.94845C0.882318 199.155 0 198.275 0 197.212V84.0846C0 78.6941 4.37483 74.3303 9.77902 74.3303H111.576C116.981 74.3303 121.355 78.6941 121.355 84.0846V197.212C121.355 198.312 120.473 199.155 119.407 199.155ZM3.8969 195.268H117.422V84.0846C117.422 80.8576 114.775 78.2174 111.54 78.2174H9.77902C6.54386 78.2174 3.8969 80.8576 3.8969 84.0846V195.268Z" fill="#0096DA"/>
<path d="M119.407 93.8389C118.341 93.8389 117.459 92.9588 117.459 91.8954V72.2402L106.834 8.80083C106.356 5.97723 103.93 3.92371 101.062 3.92371H20.3301C17.4625 3.92371 14.9994 5.97723 14.5215 8.8375L3.8969 72.5702V91.8954C3.8969 92.9588 3.05135 93.8389 1.94845 93.8389C0.845554 93.8389 0 92.9588 0 91.8954V72.2402L10.6613 8.14077C11.4701 3.41032 15.5141 0 20.3301 0H101.025C105.841 0 109.885 3.44699 110.694 8.14077L121.355 71.9101V91.8954C121.355 92.9588 120.51 93.8389 119.444 93.8389" fill="#0096DA"/>
<path d="M150.729 199.302C141.024 199.302 133.12 191.418 133.12 181.737V173.926C133.12 166.409 126.98 160.248 119.407 160.248C118.341 160.248 117.458 159.368 117.458 158.305C117.458 157.242 118.341 156.361 119.407 156.361C129.112 156.361 137.017 164.246 137.017 173.926V181.737C137.017 189.255 143.156 195.415 150.729 195.415C158.302 195.415 164.442 189.291 164.442 181.737V123.175C164.442 122.112 165.324 121.231 166.39 121.231C167.456 121.231 168.339 122.112 168.339 123.175V181.737C168.339 191.418 160.435 199.302 150.729 199.302Z" fill="#0096DA"/>
</g>
<defs>
<clipPath id="clip0_15_793">
<rect width="184" height="211" fill="white"/>
</clipPath>
</defs>
</svg>
