<svg width="211" height="152" viewBox="0 0 211 152" fill="none" xmlns="http://www.w3.org/2000/svg">
<g clip-path="url(#clip0_15_832)">
<path d="M13.6871 54.5576C12.6229 54.5576 11.7422 53.6794 11.7422 52.6182V33.1151C11.7422 32.054 12.6229 31.1758 13.6871 31.1758C14.7512 31.1758 15.6319 32.054 15.6319 33.1151V52.6182C15.6319 53.6794 14.7512 54.5576 13.6871 54.5576Z" fill="#0096DA"/>
<path d="M13.6871 81.8547C12.6229 81.8547 11.7422 80.9765 11.7422 79.9154V60.4122C11.7422 59.3511 12.6229 58.4729 13.6871 58.4729C14.7512 58.4729 15.6319 59.3511 15.6319 60.4122V79.9154C15.6319 80.9765 14.7512 81.8547 13.6871 81.8547Z" fill="#0096DA"/>
<path d="M31.3749 124.703C31.3015 125.361 31.2648 125.984 31.2648 126.642C31.2648 127.301 31.3015 127.959 31.3749 128.618H13.6509C12.5868 128.618 11.7061 127.74 11.7061 126.642V87.6725C11.7061 86.6113 12.5868 85.7332 13.6509 85.7332C14.7151 85.7332 15.6325 86.6113 15.6325 87.6725V124.703H31.3749Z" fill="#0096DA"/>
<path d="M42.9708 126.642C42.9708 127.337 43.0442 127.996 43.1543 128.618H39.2645C39.1178 127.996 39.0811 127.301 39.0811 126.642C39.0811 125.984 39.0811 125.325 39.2278 124.703H43.1543C43.0442 125.325 42.9708 125.984 42.9708 126.642Z" fill="#0096DA"/>
<path d="M66.4189 126.642C66.4189 127.301 66.4189 127.996 66.2354 128.618H62.3457C62.4558 127.996 62.5292 127.337 62.5292 126.642C62.5292 125.984 62.4558 125.325 62.3457 124.703H66.2721C66.3822 125.325 66.4189 125.984 66.4189 126.642Z" fill="#0096DA"/>
<path d="M132.838 1.97593V126.642C132.838 127.74 131.994 128.618 130.894 128.618H74.1254C74.1987 127.96 74.2354 127.301 74.2354 126.642C74.2354 125.984 74.1987 125.362 74.1254 124.703H128.949V3.91526H15.6325V25.3577C15.6325 26.4189 14.7518 27.2971 13.6509 27.2971C12.5501 27.2971 11.7061 26.4189 11.7061 25.3577V1.97593C11.7061 0.87819 12.5868 0 13.6509 0H130.894C131.994 0 132.838 0.87819 132.838 1.97593Z" fill="#0096DA"/>
<path d="M183.515 124.703H179.552C179.662 125.325 179.735 125.984 179.735 126.642C179.735 127.338 179.662 127.996 179.552 128.618H183.478C183.625 127.996 183.661 127.301 183.661 126.642C183.661 125.984 183.625 125.325 183.515 124.703ZM206.927 58.729L176.176 21.9182C172.8 17.8931 167.882 15.5879 162.672 15.5879H130.893C129.829 15.5879 128.948 16.4661 128.948 17.5638V126.642C128.948 127.74 129.829 128.618 130.893 128.618H148.617C148.544 127.96 148.507 127.301 148.507 126.642C148.507 125.984 148.544 125.362 148.617 124.703H132.838V19.5032H162.672C166.708 19.5032 170.561 21.2961 173.167 24.4064L203.917 61.2172C205.972 63.6688 207.11 66.779 207.11 69.9625V124.703H191.368C191.441 125.362 191.478 125.984 191.478 126.642C191.478 127.301 191.441 127.96 191.368 128.618H209.055C210.156 128.618 211 127.74 211 126.642V69.9625C211 65.8643 209.569 61.8758 206.927 58.729ZM179.552 124.703C179.662 125.325 179.735 125.984 179.735 126.642C179.735 127.338 179.662 127.996 179.552 128.618H183.478C183.625 127.996 183.661 127.301 183.661 126.642C183.661 125.984 183.625 125.325 183.515 124.703H179.552ZM156.433 124.703C156.323 125.325 156.287 125.984 156.287 126.642C156.287 127.301 156.287 127.996 156.47 128.618H160.396C160.286 127.996 160.213 127.338 160.213 126.642C160.213 125.984 160.286 125.325 160.396 124.703H156.433ZM183.515 124.703H179.552C179.662 125.325 179.735 125.984 179.735 126.642C179.735 127.338 179.662 127.996 179.552 128.618H183.478C183.625 127.996 183.661 127.301 183.661 126.642C183.661 125.984 183.625 125.325 183.515 124.703Z" fill="#0096DA"/>
<path d="M66.2724 124.703C65.3183 118.117 59.6305 113.03 52.7317 113.03C45.8329 113.03 40.1818 118.117 39.2277 124.703H43.1542C44.0716 120.275 47.998 116.909 52.7317 116.909C57.4655 116.909 61.4286 120.275 62.346 124.703C62.4561 125.325 62.5295 125.984 62.5295 126.642C62.5295 127.338 62.4561 127.996 62.346 128.618C61.3919 133.082 57.4288 136.412 52.7317 136.412C48.0347 136.412 44.1082 133.082 43.1542 128.618H39.2644C40.1818 135.241 45.8696 140.291 52.7317 140.291C59.5938 140.291 65.3183 135.241 66.2357 128.618C66.3825 127.996 66.4192 127.301 66.4192 126.642C66.4192 125.984 66.4192 125.325 66.2724 124.703ZM66.2724 124.703C65.3183 118.117 59.6305 113.03 52.7317 113.03C45.8329 113.03 40.1818 118.117 39.2277 124.703C39.1176 125.325 39.0809 125.984 39.0809 126.642C39.0809 127.301 39.0809 127.996 39.2644 128.618C40.1818 135.241 45.8696 140.291 52.7317 140.291C59.5938 140.291 65.3183 135.241 66.2357 128.618C66.3825 127.996 66.4192 127.301 66.4192 126.642C66.4192 125.984 66.4192 125.325 66.2724 124.703ZM52.7317 136.412C48.0347 136.412 44.1082 133.082 43.1542 128.618C43.0441 127.996 42.9707 127.338 42.9707 126.642C42.9707 125.984 43.0441 125.325 43.1542 124.703C44.0716 120.275 47.998 116.909 52.7317 116.909C57.4655 116.909 61.4286 120.275 62.346 124.703C62.4561 125.325 62.5295 125.984 62.5295 126.642C62.5295 127.338 62.4561 127.996 62.346 128.618C61.3919 133.082 57.4288 136.412 52.7317 136.412ZM66.2724 124.703C65.3183 118.117 59.6305 113.03 52.7317 113.03C45.8329 113.03 40.1818 118.117 39.2277 124.703C39.1176 125.325 39.0809 125.984 39.0809 126.642C39.0809 127.301 39.0809 127.996 39.2644 128.618C40.1818 135.241 45.8696 140.291 52.7317 140.291C59.5938 140.291 65.3183 135.241 66.2357 128.618C66.3825 127.996 66.4192 127.301 66.4192 126.642C66.4192 125.984 66.4192 125.325 66.2724 124.703ZM52.7317 136.412C48.0347 136.412 44.1082 133.082 43.1542 128.618C43.0441 127.996 42.9707 127.338 42.9707 126.642C42.9707 125.984 43.0441 125.325 43.1542 124.703C44.0716 120.275 47.998 116.909 52.7317 116.909C57.4655 116.909 61.4286 120.275 62.346 124.703C62.4561 125.325 62.5295 125.984 62.5295 126.642C62.5295 127.338 62.4561 127.996 62.346 128.618C61.3919 133.082 57.4288 136.412 52.7317 136.412ZM66.2724 124.703C65.3183 118.117 59.6305 113.03 52.7317 113.03C45.8329 113.03 40.1818 118.117 39.2277 124.703C39.1176 125.325 39.0809 125.984 39.0809 126.642C39.0809 127.301 39.0809 127.996 39.2644 128.618C40.1818 135.241 45.8696 140.291 52.7317 140.291C59.5938 140.291 65.3183 135.241 66.2357 128.618C66.3825 127.996 66.4192 127.301 66.4192 126.642C66.4192 125.984 66.4192 125.325 66.2724 124.703ZM52.7317 136.412C48.0347 136.412 44.1082 133.082 43.1542 128.618C43.0441 127.996 42.9707 127.338 42.9707 126.642C42.9707 125.984 43.0441 125.325 43.1542 124.703C44.0716 120.275 47.998 116.909 52.7317 116.909C57.4655 116.909 61.4286 120.275 62.346 124.703C62.4561 125.325 62.5295 125.984 62.5295 126.642C62.5295 127.338 62.4561 127.996 62.346 128.618C61.3919 133.082 57.4288 136.412 52.7317 136.412ZM66.2724 124.703C65.3183 118.117 59.6305 113.03 52.7317 113.03C45.8329 113.03 40.1818 118.117 39.2277 124.703C39.1176 125.325 39.0809 125.984 39.0809 126.642C39.0809 127.301 39.0809 127.996 39.2644 128.618C40.1818 135.241 45.8696 140.291 52.7317 140.291C59.5938 140.291 65.3183 135.241 66.2357 128.618C66.3825 127.996 66.4192 127.301 66.4192 126.642C66.4192 125.984 66.4192 125.325 66.2724 124.703ZM52.7317 136.412C48.0347 136.412 44.1082 133.082 43.1542 128.618C43.0441 127.996 42.9707 127.338 42.9707 126.642C42.9707 125.984 43.0441 125.325 43.1542 124.703C44.0716 120.275 47.998 116.909 52.7317 116.909C57.4655 116.909 61.4286 120.275 62.346 124.703C62.4561 125.325 62.5295 125.984 62.5295 126.642C62.5295 127.338 62.4561 127.996 62.346 128.618C61.3919 133.082 57.4288 136.412 52.7317 136.412ZM76.1069 124.703C75.1161 112.701 65.0248 103.26 52.7317 103.26C40.4387 103.26 30.3474 112.701 29.3566 124.703C29.3199 125.325 29.2832 125.984 29.2832 126.642C29.2832 127.301 29.3199 127.96 29.3566 128.618C30.3841 140.62 40.4387 150.024 52.7317 150.024C65.0248 150.024 75.0794 140.62 76.1069 128.618C76.1436 127.96 76.1802 127.301 76.1802 126.642C76.1802 125.984 76.1436 125.325 76.1069 124.703ZM52.7317 148.085C41.5396 148.085 32.3656 139.522 31.3749 128.618C31.3015 127.96 31.2648 127.301 31.2648 126.642C31.2648 125.984 31.3015 125.362 31.3749 124.703C32.3289 113.799 41.5396 105.236 52.7317 105.236C63.9239 105.236 73.1712 113.799 74.1253 124.703C74.1987 125.362 74.2354 125.984 74.2354 126.642C74.2354 127.301 74.1987 127.96 74.1253 128.618C73.1345 139.522 63.9239 148.085 52.7317 148.085ZM52.7317 113.03C45.8696 113.03 40.1818 118.117 39.2277 124.703C39.1176 125.325 39.0809 125.984 39.0809 126.642C39.0809 127.301 39.0809 127.996 39.2644 128.618C40.1818 135.241 45.8696 140.291 52.7317 140.291C59.5938 140.291 65.3183 135.241 66.2357 128.618C66.3825 127.996 66.4192 127.301 66.4192 126.642C66.4192 125.984 66.4192 125.325 66.2724 124.703C65.3183 118.117 59.6305 113.03 52.7317 113.03ZM52.7317 136.412C48.0347 136.412 44.1082 133.082 43.1542 128.618C43.0441 127.996 42.9707 127.338 42.9707 126.642C42.9707 125.984 43.0441 125.325 43.1542 124.703C44.0716 120.275 47.998 116.909 52.7317 116.909C57.4655 116.909 61.4286 120.275 62.346 124.703C62.4561 125.325 62.5295 125.984 62.5295 126.642C62.5295 127.338 62.4561 127.996 62.346 128.618C61.3919 133.082 57.4288 136.412 52.7317 136.412ZM66.2724 124.703C65.3183 118.117 59.6305 113.03 52.7317 113.03C45.8329 113.03 40.1818 118.117 39.2277 124.703C39.1176 125.325 39.0809 125.984 39.0809 126.642C39.0809 127.301 39.0809 127.996 39.2644 128.618C40.1818 135.241 45.8696 140.291 52.7317 140.291C59.5938 140.291 65.3183 135.241 66.2357 128.618C66.3825 127.996 66.4192 127.301 66.4192 126.642C66.4192 125.984 66.4192 125.325 66.2724 124.703ZM52.7317 136.412C48.0347 136.412 44.1082 133.082 43.1542 128.618C43.0441 127.996 42.9707 127.338 42.9707 126.642C42.9707 125.984 43.0441 125.325 43.1542 124.703C44.0716 120.275 47.998 116.909 52.7317 116.909C57.4655 116.909 61.4286 120.275 62.346 124.703C62.4561 125.325 62.5295 125.984 62.5295 126.642C62.5295 127.338 62.4561 127.996 62.346 128.618C61.3919 133.082 57.4288 136.412 52.7317 136.412ZM66.2724 124.703C65.3183 118.117 59.6305 113.03 52.7317 113.03C45.8329 113.03 40.1818 118.117 39.2277 124.703C39.1176 125.325 39.0809 125.984 39.0809 126.642C39.0809 127.301 39.0809 127.996 39.2644 128.618C40.1818 135.241 45.8696 140.291 52.7317 140.291C59.5938 140.291 65.3183 135.241 66.2357 128.618C66.3825 127.996 66.4192 127.301 66.4192 126.642C66.4192 125.984 66.4192 125.325 66.2724 124.703ZM52.7317 136.412C48.0347 136.412 44.1082 133.082 43.1542 128.618C43.0441 127.996 42.9707 127.338 42.9707 126.642C42.9707 125.984 43.0441 125.325 43.1542 124.703C44.0716 120.275 47.998 116.909 52.7317 116.909C57.4655 116.909 61.4286 120.275 62.346 124.703C62.4561 125.325 62.5295 125.984 62.5295 126.642C62.5295 127.338 62.4561 127.996 62.346 128.618C61.3919 133.082 57.4288 136.412 52.7317 136.412ZM66.2724 124.703C65.3183 118.117 59.6305 113.03 52.7317 113.03C45.8329 113.03 40.1818 118.117 39.2277 124.703C39.1176 125.325 39.0809 125.984 39.0809 126.642C39.0809 127.301 39.0809 127.996 39.2644 128.618C40.1818 135.241 45.8696 140.291 52.7317 140.291C59.5938 140.291 65.3183 135.241 66.2357 128.618C66.3825 127.996 66.4192 127.301 66.4192 126.642C66.4192 125.984 66.4192 125.325 66.2724 124.703ZM52.7317 136.412C48.0347 136.412 44.1082 133.082 43.1542 128.618C43.0441 127.996 42.9707 127.338 42.9707 126.642C42.9707 125.984 43.0441 125.325 43.1542 124.703C44.0716 120.275 47.998 116.909 52.7317 116.909C57.4655 116.909 61.4286 120.275 62.346 124.703C62.4561 125.325 62.5295 125.984 62.5295 126.642C62.5295 127.338 62.4561 127.996 62.346 128.618C61.3919 133.082 57.4288 136.412 52.7317 136.412ZM66.2724 124.703C65.3183 118.117 59.6305 113.03 52.7317 113.03C45.8329 113.03 40.1818 118.117 39.2277 124.703C39.1176 125.325 39.0809 125.984 39.0809 126.642C39.0809 127.301 39.0809 127.996 39.2644 128.618C40.1818 135.241 45.8696 140.291 52.7317 140.291C59.5938 140.291 65.3183 135.241 66.2357 128.618C66.3825 127.996 66.4192 127.301 66.4192 126.642C66.4192 125.984 66.4192 125.325 66.2724 124.703ZM52.7317 136.412C48.0347 136.412 44.1082 133.082 43.1542 128.618C43.0441 127.996 42.9707 127.338 42.9707 126.642C42.9707 125.984 43.0441 125.325 43.1542 124.703C44.0716 120.275 47.998 116.909 52.7317 116.909C57.4655 116.909 61.4286 120.275 62.346 124.703C62.4561 125.325 62.5295 125.984 62.5295 126.642C62.5295 127.338 62.4561 127.996 62.346 128.618C61.3919 133.082 57.4288 136.412 52.7317 136.412ZM66.2724 124.703C65.3183 118.117 59.6305 113.03 52.7317 113.03C45.8329 113.03 40.1818 118.117 39.2277 124.703H43.1542C44.0716 120.275 47.998 116.909 52.7317 116.909C57.4655 116.909 61.4286 120.275 62.346 124.703C62.4561 125.325 62.5295 125.984 62.5295 126.642C62.5295 127.338 62.4561 127.996 62.346 128.618C61.3919 133.082 57.4288 136.412 52.7317 136.412C48.0347 136.412 44.1082 133.082 43.1542 128.618H39.2644C40.1818 135.241 45.8696 140.291 52.7317 140.291C59.5938 140.291 65.3183 135.241 66.2357 128.618C66.3825 127.996 66.4192 127.301 66.4192 126.642C66.4192 125.984 66.4192 125.325 66.2724 124.703Z" fill="white"/>
<path d="M78.0513 124.703C77.0972 111.676 66.0885 101.321 52.7313 101.321C39.3741 101.321 28.4021 111.676 27.448 124.703C27.3746 125.361 27.3379 125.984 27.3379 126.642C27.3379 127.301 27.3746 127.959 27.448 128.618C28.4388 141.681 39.4108 152 52.7313 152C66.0518 152 77.0605 141.681 78.0513 128.618C78.1247 127.959 78.1614 127.301 78.1614 126.642C78.1614 125.984 78.1247 125.361 78.0513 124.703ZM74.2349 126.642C74.2349 127.301 74.1982 127.959 74.1249 128.618C73.1341 139.522 63.9235 148.085 52.7313 148.085C41.5391 148.085 32.3652 139.522 31.3744 128.618C31.301 127.959 31.2643 127.301 31.2643 126.642C31.2643 125.984 31.301 125.361 31.3744 124.703C32.3285 113.799 41.5391 105.236 52.7313 105.236C63.9235 105.236 73.1708 113.799 74.1249 124.703C74.1982 125.361 74.2349 125.984 74.2349 126.642Z" fill="#0096DA"/>
<path d="M66.2725 124.703C65.3184 118.116 59.6306 113.03 52.7318 113.03C45.8331 113.03 40.1819 118.116 39.2278 124.703C39.1178 125.325 39.0811 125.984 39.0811 126.642C39.0811 127.301 39.0811 127.996 39.2645 128.618C40.1819 135.241 45.8698 140.291 52.7318 140.291C59.5939 140.291 65.3184 135.241 66.2358 128.618C66.3826 127.996 66.4193 127.301 66.4193 126.642C66.4193 125.984 66.4193 125.325 66.2725 124.703ZM52.7318 136.412C48.0348 136.412 44.1084 133.082 43.1543 128.618C43.0442 127.996 42.9708 127.337 42.9708 126.642C42.9708 125.984 43.0442 125.325 43.1543 124.703C44.0717 120.275 47.9981 116.909 52.7318 116.909C57.4656 116.909 61.4287 120.275 62.3461 124.703C62.4562 125.325 62.5296 125.984 62.5296 126.642C62.5296 127.337 62.4562 127.996 62.3461 128.618C61.392 133.082 57.4289 136.412 52.7318 136.412Z" fill="#0096DA"/>
<path d="M193.349 124.703C192.358 112.701 182.267 103.26 169.974 103.26C157.681 103.26 147.59 112.701 146.599 124.703C146.562 125.325 146.525 125.984 146.525 126.642C146.525 127.301 146.562 127.96 146.599 128.618C147.626 140.62 157.681 150.024 169.974 150.024C182.267 150.024 192.322 140.62 193.349 128.618C193.386 127.96 193.422 127.301 193.422 126.642C193.422 125.984 193.386 125.325 193.349 124.703ZM169.974 148.085C158.782 148.085 149.608 139.522 148.617 128.618C148.544 127.96 148.507 127.301 148.507 126.642C148.507 125.984 148.544 125.362 148.617 124.703C149.571 113.799 158.782 105.236 169.974 105.236C181.166 105.236 190.413 113.799 191.367 124.703C191.441 125.362 191.478 125.984 191.478 126.642C191.478 127.301 191.441 127.96 191.367 128.618C190.377 139.522 181.166 148.085 169.974 148.085ZM169.974 113.03C163.112 113.03 157.387 118.117 156.433 124.703C156.323 125.325 156.286 125.984 156.286 126.642C156.286 127.301 156.286 127.996 156.47 128.618C157.387 135.241 163.112 140.291 169.974 140.291C176.836 140.291 182.561 135.241 183.478 128.618C183.625 127.996 183.661 127.301 183.661 126.642C183.661 125.984 183.625 125.325 183.515 124.703C182.561 118.117 176.873 113.03 169.974 113.03ZM169.974 136.412C165.277 136.412 161.35 133.082 160.396 128.618C160.286 127.996 160.213 127.338 160.213 126.642C160.213 125.984 160.286 125.325 160.396 124.703C161.314 120.275 165.24 116.909 169.974 116.909C174.708 116.909 178.634 120.275 179.551 124.703C179.662 125.325 179.735 125.984 179.735 126.642C179.735 127.338 179.662 127.996 179.551 128.618C178.597 133.082 174.671 136.412 169.974 136.412Z" fill="white"/>
<path d="M195.258 124.703C194.304 111.676 183.332 101.321 169.974 101.321C156.617 101.321 145.645 111.676 144.691 124.703C144.618 125.361 144.581 125.984 144.581 126.642C144.581 127.301 144.581 127.959 144.691 128.618C145.682 141.681 156.654 152 169.974 152C183.295 152 194.267 141.681 195.258 128.618C195.331 127.959 195.368 127.301 195.368 126.642C195.368 125.984 195.331 125.361 195.258 124.703ZM191.478 126.642C191.478 127.301 191.441 127.959 191.368 128.618C190.377 139.522 181.167 148.085 169.974 148.085C158.782 148.085 149.608 139.522 148.618 128.618C148.544 127.959 148.507 127.301 148.507 126.642C148.507 125.984 148.544 125.361 148.618 124.703C149.572 113.799 158.782 105.236 169.974 105.236C181.167 105.236 190.414 113.799 191.368 124.703C191.441 125.361 191.478 125.984 191.478 126.642Z" fill="#0096DA"/>
<path d="M183.515 124.703C182.561 118.116 176.873 113.03 169.975 113.03C163.076 113.03 157.388 118.116 156.434 124.703C156.324 125.325 156.287 125.984 156.287 126.642C156.287 127.301 156.287 127.996 156.471 128.618C157.388 135.241 163.112 140.291 169.975 140.291C176.837 140.291 182.561 135.241 183.479 128.618C183.625 127.996 183.662 127.301 183.662 126.642C183.662 125.984 183.625 125.325 183.515 124.703ZM169.975 136.412C165.278 136.412 161.351 133.082 160.397 128.618C160.287 127.996 160.214 127.337 160.214 126.642C160.214 125.984 160.287 125.325 160.397 124.703C161.314 120.275 165.241 116.909 169.975 116.909C174.708 116.909 178.635 120.275 179.552 124.703C179.662 125.325 179.736 125.984 179.736 126.642C179.736 127.337 179.662 127.996 179.552 128.618C178.598 133.082 174.672 136.412 169.975 136.412Z" fill="#0096DA"/>
<path d="M198.854 63.0833L169.938 27.041C168.066 24.7357 165.314 23.3818 162.305 23.3818H146.526C145.462 23.3818 144.581 24.26 144.581 25.3578V64.3274C144.581 65.3886 145.462 66.2668 146.526 66.2668H197.349C198.083 66.2668 198.781 65.8277 199.111 65.169C199.404 64.4738 199.331 63.6688 198.854 63.0833ZM148.471 62.3515V27.2971H162.305C164.103 27.2971 165.791 28.1021 166.892 29.4926L193.276 62.3515H148.471Z" fill="#0096DA"/>
<path d="M162.158 77.9392H146.526C145.462 77.9392 144.581 77.061 144.581 75.9999C144.581 74.9387 145.462 74.0605 146.526 74.0605H162.158C163.222 74.0605 164.103 74.9387 164.103 75.9999C164.103 77.061 163.222 77.9392 162.158 77.9392Z" fill="#0096DA"/>
<path d="M72.2904 28.2485H1.94487C0.880696 28.2485 0 27.4069 0 26.3092C0 25.2115 0.880696 24.3699 1.94487 24.3699H72.2904C73.3546 24.3699 74.2353 25.2481 74.2353 26.3092C74.2353 27.3704 73.3546 28.2485 72.2904 28.2485Z" fill="#0096DA"/>
<path d="M52.7683 54.5576H1.94487C0.880696 54.5576 0 53.6794 0 52.6183C0 51.5571 0.880696 50.679 1.94487 50.679H52.7317C53.7958 50.679 54.6765 51.5571 54.6765 52.6183C54.6765 53.6794 53.7958 54.5576 52.7317 54.5576H52.7683Z" fill="#0096DA"/>
<path d="M33.2096 82.4766H1.94487C0.880696 82.4766 0 81.5984 0 80.5372C0 79.4761 0.880696 78.5979 1.94487 78.5979H33.2096C34.2737 78.5979 35.1544 79.4761 35.1544 80.5372C35.1544 81.5984 34.2737 82.4766 33.2096 82.4766Z" fill="#0096DA"/>
</g>
<defs>
<clipPath id="clip0_15_832">
<rect width="211" height="152" fill="white"/>
</clipPath>
</defs>
</svg>
