<svg width="199" height="199" viewBox="0 0 199 199" fill="none" xmlns="http://www.w3.org/2000/svg">
<g clip-path="url(#clip0_15_775)">
<path d="M109.129 199C100.839 199 93.3926 196.618 88.2938 194.713C74.3547 189.583 61.3692 181.815 47.4667 170.273C44.202 167.598 40.9007 164.594 37.6726 161.369C34.4446 158.145 31.4367 154.884 28.7589 151.586C17.2041 137.699 9.46415 124.764 4.29198 110.804C2.12774 105.014 -0.66009 96.1839 0.146915 86.5838C0.660463 80.4281 3.15484 75.115 7.55668 70.7547L18.2678 59.9455C25.6042 52.9103 35.5451 53.0569 42.4046 59.8722C44.4221 61.7042 59.2783 76.7273 59.9019 77.3502C63.5335 80.9777 65.4409 85.2281 65.4776 89.6251C65.4776 94.0587 63.5701 98.3091 59.9386 101.937L55.9036 105.967C54.2896 107.579 52.6756 109.228 50.9515 110.84C52.8223 114.651 55.2066 118.315 58.6181 122.639C61.4059 126.083 64.1937 129.161 67.0916 132.093C69.9895 134.987 73.0708 137.772 76.5556 140.593C80.8474 143.964 84.5156 146.346 88.3305 148.215C89.9445 146.493 91.5952 144.88 93.2459 143.268L97.2809 139.238C104.617 131.909 114.521 131.909 121.895 139.238C122.518 139.861 137.558 154.664 139.465 156.789C142.803 160.123 144.637 164.264 144.637 168.624C144.637 172.984 142.84 177.162 139.429 180.716L128.497 191.525C124.132 195.885 118.777 198.377 112.651 198.927C111.514 199.037 110.376 199.073 109.239 199.073M30.4463 58.5164C27.1082 58.5164 23.8435 59.9455 21.0557 62.6203L10.3078 73.4662C6.60295 77.2036 4.47539 81.7105 4.03521 86.877C3.30157 95.7076 5.90599 103.952 7.96019 109.411C12.9489 122.932 20.5054 135.537 31.7668 149.058C34.4079 152.245 37.3058 155.433 40.4238 158.548C43.5784 161.699 46.7698 164.594 49.9244 167.195C63.4601 178.444 76.0787 185.992 89.6144 190.975C95.08 192.991 103.297 195.629 112.174 194.896C117.346 194.456 121.895 192.331 125.599 188.63L136.457 177.931C139.172 175.11 140.602 171.849 140.602 168.514C140.602 165.18 139.172 162.029 136.531 159.354C134.623 157.265 119.217 142.059 119.033 141.876C113.128 135.977 105.828 135.977 99.922 141.839L95.887 145.87C93.9795 147.775 92.0354 149.717 90.1279 151.769L89.1742 152.795L87.8903 152.209C83.3784 150.157 78.9766 147.372 74.0245 143.488C70.4297 140.557 67.2383 137.699 64.2304 134.731C61.2225 131.726 58.3613 128.538 55.4634 124.984C51.5384 120.001 48.7506 115.604 46.6964 111.134L46.1095 109.851L47.1366 108.898C49.1908 106.993 51.0983 105.088 53.0057 103.182L57.0774 99.1152C59.9753 96.2205 61.4793 92.9228 61.4793 89.5884C61.4793 86.2174 59.9386 82.9197 57.0407 80.0616C56.8573 79.8784 41.6343 64.489 39.6168 62.6569C36.8656 59.9088 33.711 58.5164 30.3729 58.5164" fill="#0096DA"/>
<path d="M88.2938 194.713C74.318 189.583 61.3325 181.815 47.4667 170.273C44.202 167.598 40.9007 164.594 37.6726 161.369C34.4446 158.145 31.4734 154.884 28.7589 151.586C17.2041 137.699 9.42747 124.764 4.29198 110.804C2.12774 105.015 -0.66009 96.1839 0.146915 86.5838C0.660463 80.4281 3.15484 75.1151 7.55668 70.7181L18.2678 59.9088C25.6042 52.8737 35.5451 53.0202 42.4046 59.8355C44.4221 61.6676 59.2783 76.6906 59.9019 77.3135C63.5335 80.9411 65.4409 85.1915 65.4776 89.5885C65.4776 94.0221 63.5701 98.2725 59.9386 101.9L55.9036 105.931C54.2896 107.543 52.6756 109.192 50.9515 110.804C52.8223 114.615 55.2066 118.279 58.6181 122.566C61.4059 126.01 64.1937 129.125 67.0916 132.019C69.9895 134.914 73.0708 137.662 76.5556 140.483C80.8474 143.855 84.5156 146.236 88.3305 148.105C89.9445 146.383 91.5952 144.771 93.2459 143.158L97.2809 139.128C104.617 131.799 114.521 131.799 121.895 139.128C122.518 139.751 137.558 154.554 139.465 156.679C142.803 160.013 144.637 164.154 144.637 168.514C144.637 172.875 142.84 177.052 139.429 180.606L128.497 191.415L125.746 188.63L136.604 177.931C139.319 175.11 140.749 171.849 140.749 168.514C140.749 165.18 139.319 162.029 136.641 159.354C134.733 157.265 119.327 142.059 119.143 141.913C113.238 136.013 105.938 136.013 100.032 141.876L95.9971 145.906C94.0896 147.812 92.1454 149.754 90.238 151.806L89.2842 152.832L88.0004 152.245C83.4885 150.193 79.1233 147.409 74.1346 143.525C70.5397 140.593 67.3484 137.735 64.3405 134.767C61.3325 131.763 58.4713 128.575 55.5735 125.021C51.6485 120.038 48.8606 115.641 46.8065 111.17L46.2195 109.888L47.2466 108.935C49.3008 107.03 51.2083 105.124 53.1158 103.219L57.1875 99.1519C60.0854 96.2572 61.5893 92.9595 61.5893 89.6251C61.5893 86.2541 60.0487 82.9563 57.1508 80.0983C56.9674 79.9151 41.7443 64.5257 39.7268 62.6936C34.2245 57.1974 26.7047 57.2706 21.0924 62.6569L10.3445 73.5028C6.63963 77.2403 4.51208 81.7472 4.07189 86.9136C3.33825 95.7442 5.94268 103.989 7.99687 109.448C12.9856 122.969 20.5421 135.574 31.8035 149.094C34.4446 152.282 37.3425 155.47 40.4605 158.584C43.6151 161.736 46.8065 164.63 49.9611 167.232C63.4968 178.481 76.1154 186.029 89.6511 191.012L88.2938 194.676V194.713Z" fill="#0096DA"/>
<path d="M142.326 113.149C137.117 113.149 131.909 112.416 126.883 110.95L125.489 110.547V109.082C125.489 108.862 125.489 89.2954 125.563 83.8358C114.962 77.7899 108.432 66.6509 108.432 54.4493C108.432 41.5148 115.622 29.8995 127.25 24.1468L130.075 22.7544V48.5867L142.326 54.4127L154.615 48.5867V22.7544L157.439 24.1468C169.031 29.9361 176.257 41.5148 176.257 54.4493C176.257 66.6143 169.764 77.7533 159.2 83.7991C159.2 84.019 159.2 84.2755 159.2 84.4953V110.584L157.769 110.987C152.707 112.416 147.498 113.112 142.326 113.112M129.414 107.616C137.851 109.815 146.765 109.815 155.312 107.616V84.4953C155.312 83.9457 155.312 83.4694 155.202 82.9564L155.018 81.6007L156.229 80.9777C166.17 75.7747 172.332 65.5883 172.332 54.4493C172.332 44.1164 167.123 34.6995 158.503 29.2399V51.0416L142.326 58.7364L126.15 51.0416V29.2399C117.566 34.6995 112.32 44.1164 112.32 54.4493C112.32 65.5883 118.483 75.7747 128.424 80.9777L129.634 81.6007L129.488 82.9197C129.488 83.506 129.414 94.9015 129.414 107.579" fill="#0096DA"/>
<path d="M142.363 113.149C137.154 113.149 131.945 112.416 126.92 110.95C124.352 110.218 121.821 109.338 119.437 108.239L87.7069 111.097L90.6048 79.4388C87.3401 72.1471 85.7261 64.4524 85.7261 56.5379C85.7261 25.3193 111.147 -0.0366211 142.363 -0.0366211C173.58 -0.0366211 199 25.3559 199 56.5379C199 81.7106 182.053 104.099 157.806 110.987C152.744 112.416 147.535 113.149 142.363 113.149ZM120.097 104.318L120.574 104.538C122.922 105.601 125.416 106.517 127.984 107.25C137.338 109.961 147.315 109.925 156.742 107.286C179.302 100.874 195.075 80.0251 195.075 56.6111C195.075 27.5544 171.415 3.92066 142.326 3.92066C113.238 3.92066 89.5777 27.5544 89.5777 56.6111C89.5777 64.1226 91.155 71.4509 94.3097 78.3395L94.5298 78.8159L91.962 106.847L120.06 104.318H120.097Z" fill="#0096DA"/>
</g>
<defs>
<clipPath id="clip0_15_775">
<rect width="199" height="199" fill="white"/>
</clipPath>
</defs>
</svg>
