<svg width="200" height="199" viewBox="0 0 200 199" fill="none" xmlns="http://www.w3.org/2000/svg">
<g clip-path="url(#clip0_15_720)">
<path d="M59.5729 55.8622V59.1612C59.5729 63.4132 58.8734 66.8587 54.1237 69.4612L39.1385 77.9652C35.3829 80.0912 34.1679 81.704 34.1679 84.9663V88.6685H59.4993C59.757 88.6685 59.8307 88.7418 59.8307 88.9617V91.4176C59.8307 91.6009 59.7202 91.7108 59.4993 91.7108H32.2165C30.9647 91.7108 30.6333 91.0144 30.6333 89.9514V84.9663C30.6333 80.4211 32.2533 78.0752 37.408 75.2161L52.4669 66.7121C55.5965 64.916 56.0383 62.3502 56.0383 59.1612V55.8622C56.0383 49.0444 50 48.1647 43.299 48.1647H32.9529C32.6215 48.1647 32.5847 48.0914 32.5847 47.8714V45.9287C32.5847 45.6721 32.6583 45.5622 32.9161 45.5622C36.9293 45.2689 40.0221 45.1223 43.3358 45.1223C51.8778 45.1223 59.5729 46.2953 59.5729 55.8622Z" fill="#0096DA"/>
<path d="M59.5729 55.8622V59.1612C59.5729 63.4132 58.8734 66.8587 54.1237 69.4612L39.1385 77.9652C35.3829 80.0912 34.1679 81.704 34.1679 84.9663V88.6685H59.4993C59.757 88.6685 59.8306 88.7418 59.8306 88.9617V91.4176C59.8306 91.6009 59.7202 91.7108 59.4993 91.7108H32.2165C30.9647 91.7108 30.6333 91.0144 30.6333 89.9514V84.9663C30.6333 80.4211 32.2533 78.0752 37.408 75.2161L52.4669 66.7121C55.5965 64.916 56.0383 62.3502 56.0383 59.1612V55.8622C56.0383 49.0444 50 48.1647 43.299 48.1647H32.9529C32.6215 48.1647 32.5847 48.0914 32.5847 47.8714V45.9287C32.5847 45.6721 32.6583 45.5622 32.9161 45.5622C36.9293 45.2689 40.0221 45.1223 43.3358 45.1223C51.8778 45.1223 59.5729 46.2953 59.5729 55.8622Z" stroke="#0096DA" stroke-width="0.25" stroke-miterlimit="10"/>
<path d="M78.0561 45.4522C78.4979 45.4522 78.6084 45.7088 78.4979 46.1486L69.2196 75.8758H87.4081V62.6434C87.4081 62.3501 87.5185 62.0936 87.8499 62.0202L90.1695 61.0672C90.6113 60.9572 90.8691 60.9939 90.8691 61.4338V75.8758H99.2638C99.7056 75.8758 99.8897 76.0591 99.8897 76.4257V78.3684C99.8897 78.8082 99.7056 78.9182 99.2638 78.9182H90.8691V91.161C90.8691 91.5275 90.685 91.7108 90.3168 91.7108H87.9972C87.629 91.7108 87.4449 91.5275 87.4449 91.161V78.9182H66.1636C65.7954 78.9182 65.6113 78.8082 65.6113 78.3684V77.3054C65.6113 76.6822 65.7954 75.9125 66.0532 75.2894L75.0738 45.8554C75.1842 45.4888 75.4051 45.4155 75.7733 45.4155H78.0929L78.0561 45.4522Z" fill="#0096DA"/>
<path d="M78.0561 45.4522C78.4979 45.4522 78.6084 45.7088 78.4979 46.1486L69.2196 75.8758H87.4081V62.6434C87.4081 62.3501 87.5185 62.0936 87.8499 62.0202L90.1695 61.0672C90.6113 60.9572 90.8691 60.9939 90.8691 61.4338V75.8758H99.2638C99.7056 75.8758 99.8897 76.0591 99.8897 76.4257V78.3684C99.8897 78.8082 99.7056 78.9182 99.2638 78.9182H90.8691V91.161C90.8691 91.5275 90.685 91.7108 90.3168 91.7108H87.9972C87.629 91.7108 87.4449 91.5275 87.4449 91.161V78.9182H66.1636C65.7954 78.9182 65.6113 78.8082 65.6113 78.3684V77.3054C65.6113 76.6822 65.7954 75.9125 66.0532 75.2894L75.0738 45.8554C75.1842 45.4888 75.4051 45.4155 75.7733 45.4155H78.0929L78.0561 45.4522Z" stroke="#0096DA" stroke-width="0.25" stroke-miterlimit="10"/>
<path d="M91.4579 171.729C90.9424 171.729 90.4638 171.545 90.0588 171.142L78.9027 160.036C78.1295 159.266 78.1295 158.02 78.9027 157.287C79.6758 156.517 80.9277 156.517 81.6641 157.287L92.8202 168.393C93.5934 169.163 93.5934 170.409 92.8202 171.142C92.4152 171.509 91.9365 171.729 91.4211 171.729" fill="#0096DA"/>
<path d="M102.467 160.806C101.951 160.806 101.473 160.622 101.068 160.219L89.9114 149.113C89.1382 148.343 89.1382 147.097 89.9114 146.363C90.6846 145.594 91.9365 145.594 92.6729 146.363L103.829 157.47C104.602 158.24 104.602 159.486 103.829 160.219C103.424 160.586 102.945 160.806 102.43 160.806" fill="#0096DA"/>
<path d="M113.439 149.846C112.923 149.846 112.445 149.662 112.04 149.259L100.884 138.153C100.11 137.383 100.11 136.137 100.884 135.403C101.657 134.634 102.872 134.634 103.645 135.403L114.801 146.51C115.574 147.28 115.574 148.526 114.801 149.259C114.396 149.626 113.917 149.846 113.402 149.846" fill="#0096DA"/>
<path d="M31.8483 177.154C31.3328 177.154 30.8542 176.97 30.4492 176.604C10.8247 157.067 0 131.078 0 103.44C0 46.4052 46.6127 0 103.903 0C130.044 0 155.044 9.71358 174.227 27.3446C175.037 28.0777 175.074 29.324 174.337 30.0938C173.601 30.9002 172.349 30.9368 171.576 30.2037C153.13 13.2325 129.087 3.92209 103.903 3.92209C48.785 3.92209 3.9028 48.5679 3.9028 103.44C3.9028 130.052 14.3225 155.051 33.2106 173.818C33.9838 174.588 33.9838 175.797 33.2106 176.567C32.8056 176.97 32.327 177.154 31.8115 177.154" fill="#0096DA"/>
<path d="M173.306 8.39404L169.403 8.8339L171.613 27.9678L152.283 28.7376L152.43 32.6597L175.957 31.7066L173.306 8.39404Z" fill="#0096DA"/>
<path d="M73.9693 199C68.0783 199 62.1873 196.764 57.6954 192.292C53.2035 187.82 50.9575 182.212 50.9575 176.091C50.9575 169.969 53.3507 164.214 57.6954 159.926L106.775 111.065C107.106 110.735 107.438 110.405 107.769 110.112C103.13 93.8001 107.695 76.3523 119.772 64.3294C132.438 51.6835 150.921 47.3948 167.931 53.0397C168.594 53.2596 169.072 53.7728 169.22 54.4326C169.367 55.0924 169.183 55.7888 168.704 56.2654L145.692 79.1747L152.43 97.9421L171.282 104.65L194.293 81.7406C194.772 81.2641 195.472 81.0808 196.134 81.2274C196.797 81.374 197.312 81.8872 197.533 82.5103C203.24 99.4449 198.896 117.809 186.23 130.455C174.117 142.515 156.554 147.023 140.133 142.368C134.647 147.94 107.18 175.321 90.2064 192.255C85.7145 196.727 79.8235 198.963 73.9693 198.963M152.909 54.5426C141.679 54.5426 130.818 58.9045 122.57 67.1152C111.193 78.405 107.143 94.9364 111.93 110.222C112.187 110.991 111.93 111.834 111.267 112.347C110.678 112.824 110.125 113.301 109.573 113.85L60.4936 162.711C56.8854 166.304 54.8971 171.069 54.8971 176.127C54.8971 181.186 56.8854 185.951 60.4936 189.543C64.1019 193.135 68.8883 195.114 73.9693 195.114C79.0503 195.114 83.8368 193.135 87.445 189.543C104.492 172.535 137.04 140.059 138.108 138.922C138.623 138.373 139.433 138.116 140.17 138.336C155.523 143.101 172.128 139.032 183.469 127.743C194.33 116.929 198.527 101.534 194.772 86.8723L173.196 108.315C172.644 108.865 171.871 109.049 171.171 108.755L150.258 101.314C149.706 101.131 149.264 100.691 149.08 100.141L141.606 79.3213C141.348 78.6249 141.532 77.8185 142.047 77.3053L163.586 55.8255C160.052 54.9091 156.444 54.4693 152.909 54.4693" fill="#0096DA"/>
</g>
<defs>
<clipPath id="clip0_15_720">
<rect width="200" height="199" fill="white"/>
</clipPath>
</defs>
</svg>
