<svg width="184" height="222" viewBox="0 0 184 222" fill="none" xmlns="http://www.w3.org/2000/svg">
<g clip-path="url(#clip0_15_805)">
<path d="M33.2707 125.282C32.2046 125.282 31.3223 124.403 31.3223 123.341V118.764C31.3223 117.702 32.2046 116.823 33.2707 116.823C34.3368 116.823 35.2192 117.702 35.2192 118.764V123.341C35.2192 124.403 34.3368 125.282 33.2707 125.282Z" fill="#0096DA"/>
<path d="M33.2707 132.387C32.2046 132.387 31.3223 131.508 31.3223 130.446V122.316C31.3223 121.254 32.2046 120.375 33.2707 120.375C34.3368 120.375 35.2192 121.254 35.2192 122.316V130.446C35.2192 131.508 34.3368 132.387 33.2707 132.387Z" fill="#0096DA"/>
<path d="M41.1013 132.387C40.0352 132.387 39.1528 131.508 39.1528 130.446V122.316C39.1528 121.254 40.0352 120.375 41.1013 120.375C42.1674 120.375 43.0497 121.254 43.0497 122.316V130.446C43.0497 131.508 42.1674 132.387 41.1013 132.387Z" fill="#0096DA"/>
<path d="M25.4402 132.387C24.374 132.387 23.4917 131.508 23.4917 130.446V122.316C23.4917 121.254 24.374 120.375 25.4402 120.375C26.5063 120.375 27.3886 121.254 27.3886 122.316V130.446C27.3886 131.508 26.5063 132.387 25.4402 132.387Z" fill="#0096DA"/>
<path d="M95.9153 128.835C94.8124 128.835 93.9669 127.956 93.9669 126.894V116.53C93.9669 115.98 93.7463 115.468 93.3419 115.065L87.8642 109.608C86.7245 108.473 86.0995 106.971 86.0995 105.397V81.4462C86.0995 80.8969 85.879 80.3476 85.4746 79.9814L76.0999 70.6429C75.7323 70.24 75.1809 70.0203 74.6294 70.0203H68.49C67.4238 70.0203 66.5415 69.1414 66.5415 68.0794C66.5415 67.0173 67.4238 66.1384 68.49 66.1384H74.6294C76.2102 66.1384 77.7543 66.761 78.8572 67.8963L88.2318 77.2348C89.3347 78.3334 89.9964 79.8715 89.9964 81.4462V105.397C89.9964 105.946 90.217 106.459 90.6214 106.862L96.0991 112.282C97.2388 113.417 97.8638 114.918 97.8638 116.53V126.894C97.8638 127.956 96.9815 128.835 95.9153 128.835Z" fill="#0096DA"/>
<path d="M88.0847 128.835C86.9818 128.835 86.1362 127.956 86.1362 126.894V118.764C86.1362 117.702 87.0185 116.823 88.0847 116.823C89.1508 116.823 90.0331 117.702 90.0331 118.764V126.894C90.0331 127.992 89.1508 128.835 88.0847 128.835Z" fill="#0096DA"/>
<path d="M135.068 128.834C134.002 128.834 133.12 127.956 133.12 126.894V110.963C133.12 109.901 134.002 109.022 135.068 109.022C136.134 109.022 137.017 109.901 137.017 110.963V126.894C137.017 127.992 136.134 128.834 135.068 128.834Z" fill="#0096DA"/>
<path d="M158.56 128.835C157.494 128.835 156.612 127.956 156.612 126.894V100.892C156.612 100.343 156.391 99.8303 156.023 99.4274L150.546 93.861C149.443 92.7257 148.818 91.2608 148.818 89.6495V81.373C148.818 80.8237 148.597 80.2744 148.193 79.9081L138.451 70.4232C138.046 70.0569 137.531 69.8372 136.98 69.8372H109.444C108.893 69.8372 108.378 70.0569 107.974 70.4598L98.5256 79.9448C98.1212 80.3476 97.9374 80.8603 97.9374 81.4096V101.332C97.9374 101.881 98.158 102.394 98.5256 102.797L104.04 108.4C105.143 109.535 105.768 111 105.768 112.575V126.857C105.768 127.956 104.886 128.798 103.82 128.798C102.753 128.798 101.871 127.919 101.871 126.857V112.575C101.871 112.025 101.651 111.513 101.283 111.11L95.7684 105.507C94.6655 104.371 94.0405 102.906 94.0405 101.332V81.4096C94.0405 79.8349 94.6655 78.3334 95.7684 77.1981L105.217 67.7132C106.356 66.5779 107.864 65.9553 109.481 65.9553H137.017C138.598 65.9553 140.068 66.5779 141.208 67.6765L150.95 77.1615C152.09 78.2602 152.751 79.8349 152.751 81.4462V89.7227C152.751 90.272 152.972 90.7847 153.34 91.1876L158.854 96.7541C159.957 97.8893 160.582 99.3542 160.582 100.966V126.967C160.582 128.066 159.7 128.908 158.634 128.908" fill="#0096DA"/>
<path d="M142.899 128.835C141.833 128.835 140.95 127.956 140.95 126.894V108.729C140.95 108.18 140.73 107.631 140.325 107.264L134.848 101.808C133.708 100.673 133.083 99.1711 133.083 97.5964V87.562C133.083 86.5 133.965 85.6211 135.031 85.6211C136.098 85.6211 136.98 86.5 136.98 87.562V97.5964C136.98 98.1457 137.2 98.6584 137.605 99.0612L143.083 104.518C144.222 105.653 144.847 107.155 144.847 108.729V126.894C144.847 127.956 143.965 128.835 142.899 128.835Z" fill="#0096DA"/>
<path d="M25.4402 132.387C24.374 132.387 23.4917 131.508 23.4917 130.446V77.5278C23.4917 75.9165 24.1167 74.415 25.2563 73.3164L38.5646 60.0593C39.7043 58.9241 41.2116 58.3015 42.7924 58.3015H52.8655C53.9317 58.3015 54.814 59.1804 54.814 60.2425C54.814 61.3045 53.9317 62.1834 52.8655 62.1834H42.7924C42.241 62.1834 41.7263 62.4031 41.3219 62.806L28.0136 76.063C27.6092 76.4658 27.3886 76.9785 27.3886 77.5278V130.446C27.3886 131.508 26.5063 132.387 25.4402 132.387Z" fill="#0096DA"/>
<path d="M41.1013 128.835C40.0352 128.835 39.1528 127.956 39.1528 126.894V116.493C39.1528 115.944 38.9323 115.431 38.5646 115.028L33.0501 109.425C31.9472 108.29 31.3223 106.825 31.3223 105.25V81.4097C31.3223 79.7984 31.9472 78.2969 33.0869 77.1982L42.4615 67.8597C43.6012 66.7245 45.1085 66.1019 46.6893 66.1019H55.0713C55.6228 66.1019 56.1742 65.8822 56.5418 65.4793L61.9828 59.9495C63.1225 58.7776 64.5195 58.155 66.3209 58.155L78.5998 58.2649C80.1806 58.2649 81.6511 58.8875 82.7908 60.0227L88.2685 65.4793C88.6729 65.8822 89.1876 66.1019 89.7391 66.1019H94.2242C94.7756 66.1019 95.3271 65.8822 95.6947 65.516L101.172 60.0593C102.312 58.9241 103.819 58.3015 105.4 58.3015H141.208C142.825 58.3015 144.332 58.9241 145.472 60.0593L158.744 73.3164C159.883 74.4516 160.508 75.9531 160.508 77.5278V87.5622C160.508 88.6242 159.626 89.5031 158.56 89.5031C157.494 89.5031 156.611 88.6242 156.611 87.5622V77.5278C156.611 76.9785 156.391 76.4658 155.986 76.063L142.715 62.806C142.31 62.4031 141.796 62.1834 141.244 62.1834H105.437C104.886 62.1834 104.371 62.4031 103.966 62.806L98.4887 68.2626C97.3858 69.3612 95.8417 70.0204 94.2609 70.0204H89.7758C88.195 70.0204 86.6509 69.3979 85.548 68.2626L80.0703 62.806C79.6659 62.4398 79.1512 62.22 78.5998 62.1834L66.3209 62.0735C65.8429 62.1834 65.218 62.2933 64.8136 62.6961L59.3726 68.226C58.2697 69.3612 56.6889 70.0204 55.1081 70.0204H46.7261C46.1746 70.0204 45.6599 70.2402 45.2555 70.643L35.8809 79.9815C35.4765 80.3843 35.2559 80.897 35.2559 81.4464V105.287C35.2559 105.836 35.4765 106.349 35.8441 106.752L41.3586 112.355C42.4615 113.49 43.0865 114.955 43.0865 116.53V126.93C43.0865 127.992 42.2042 128.871 41.138 128.871" fill="#0096DA"/>
<path d="M80.2543 128.835C79.1514 128.835 78.3058 127.956 78.3058 126.894V84.7423C78.3058 84.1564 78.0485 83.6071 77.6073 83.2042L72.2766 78.3336C71.909 77.9673 71.3943 77.7842 70.8796 77.7842H50.6231C50.0717 77.7842 49.557 78.004 49.1526 78.4068L43.6749 83.8634C43.2705 84.2662 43.0499 84.7789 43.0499 85.3283V101.369C43.0499 101.918 43.2705 102.431 43.6381 102.833L49.1526 108.473C50.2555 109.608 50.8437 111.073 50.8437 112.648V126.93C50.8437 127.992 49.9614 128.871 48.8952 128.871C47.8291 128.871 46.9468 127.992 46.9468 126.93V112.648C46.9468 112.099 46.7262 111.586 46.3586 111.183L40.8441 105.543C39.7412 104.408 39.153 102.943 39.1162 101.369V85.3283C39.1162 83.7169 39.7412 82.2154 40.8808 81.1168L46.3586 75.6602C47.4982 74.5249 49.0055 73.9023 50.5863 73.9023H70.8429C72.3502 73.9023 73.7839 74.4517 74.8868 75.4405L80.2543 80.3111C81.5042 81.4464 82.2027 83.0577 82.2027 84.7423V126.894C82.2027 127.992 81.3204 128.835 80.2543 128.835Z" fill="#0096DA"/>
<path d="M48.9319 101.185C47.829 101.185 46.9834 100.306 46.9834 99.2443V87.562C46.9834 86.5 47.8657 85.6211 48.9319 85.6211C49.998 85.6211 50.8803 86.5 50.8803 87.562V99.2443C50.8803 100.306 49.998 101.185 48.9319 101.185Z" fill="#0096DA"/>
<path d="M150.729 128.835C149.663 128.835 148.781 127.956 148.781 126.894V104.811C148.781 104.262 148.56 103.749 148.192 103.346L142.715 97.8162C141.575 96.681 140.987 95.1795 140.987 93.6047V85.2917C140.987 84.7423 140.766 84.2296 140.362 83.8268L134.921 78.4068C134.517 78.004 134.002 77.7842 133.45 77.7842H113.304C112.753 77.7842 112.238 78.004 111.834 78.4068L106.356 83.8268C105.951 84.2296 105.731 84.7423 105.731 85.2917V99.2079C105.731 100.27 104.849 101.149 103.782 101.149C102.716 101.149 101.834 100.27 101.834 99.2079V85.2917C101.834 83.6803 102.459 82.1788 103.599 81.0802L109.076 75.6602C110.216 74.5249 111.723 73.9023 113.304 73.9023H133.45C135.068 73.9023 136.575 74.5249 137.678 75.6602L143.156 81.0802C144.296 82.2154 144.92 83.7169 144.92 85.2917V93.6047C144.92 94.1541 145.141 94.6668 145.545 95.0696L151.023 100.599C152.126 101.735 152.751 103.2 152.751 104.811V126.894C152.751 127.992 151.869 128.835 150.803 128.835" fill="#0096DA"/>
<path d="M48.9319 132.387C47.8657 132.387 46.9834 131.508 46.9834 130.446V122.316C46.9834 121.254 47.8657 120.375 48.9319 120.375C49.998 120.375 50.8803 121.254 50.8803 122.316V130.446C50.8803 131.508 49.998 132.387 48.9319 132.387Z" fill="#0096DA"/>
<path d="M80.2541 132.387C79.1512 132.387 78.3057 131.508 78.3057 130.446V122.316C78.3057 121.254 79.188 120.375 80.2541 120.375C81.3203 120.375 82.2026 121.254 82.2026 122.316V130.446C82.2026 131.508 81.3203 132.387 80.2541 132.387Z" fill="#0096DA"/>
<path d="M88.0847 132.387C86.9818 132.387 86.1362 131.508 86.1362 130.446V122.316C86.1362 121.254 87.0185 120.375 88.0847 120.375C89.1508 120.375 90.0331 121.254 90.0331 122.316V130.446C90.0331 131.508 89.1508 132.387 88.0847 132.387Z" fill="#0096DA"/>
<path d="M135.068 132.387C134.002 132.387 133.12 131.508 133.12 130.446V122.316C133.12 121.254 134.002 120.375 135.068 120.375C136.134 120.375 137.017 121.254 137.017 122.316V130.446C137.017 131.508 136.134 132.387 135.068 132.387Z" fill="#0096DA"/>
<path d="M142.899 132.387C141.833 132.387 140.95 131.508 140.95 130.446V122.316C140.95 121.254 141.833 120.375 142.899 120.375C143.965 120.375 144.847 121.254 144.847 122.316V130.446C144.847 131.508 143.965 132.387 142.899 132.387Z" fill="#0096DA"/>
<path d="M150.729 132.387C149.663 132.387 148.781 131.508 148.781 130.446V122.316C148.781 121.254 149.663 120.375 150.729 120.375C151.795 120.375 152.678 121.254 152.678 122.316V130.446C152.678 131.508 151.795 132.387 150.729 132.387Z" fill="#0096DA"/>
<path d="M158.56 132.387C157.494 132.387 156.611 131.508 156.611 130.446V122.316C156.611 121.254 157.494 120.375 158.56 120.375C159.626 120.375 160.508 121.254 160.508 122.316V130.446C160.508 131.508 159.626 132.387 158.56 132.387Z" fill="#0096DA"/>
<path d="M95.9153 132.387C94.8124 132.387 93.9668 131.508 93.9668 130.446V122.316C93.9668 121.254 94.8491 120.375 95.9153 120.375C96.9814 120.375 97.8637 121.254 97.8637 122.316V130.446C97.8637 131.508 96.9814 132.387 95.9153 132.387Z" fill="#0096DA"/>
<path d="M103.746 132.387C102.643 132.387 101.797 131.508 101.797 130.446V122.316C101.797 121.254 102.68 120.375 103.746 120.375C104.812 120.375 105.694 121.254 105.694 122.316V130.446C105.694 131.508 104.812 132.387 103.746 132.387Z" fill="#0096DA"/>
<path d="M92.0184 222C91.761 222 91.5037 221.963 91.2464 221.853C87.5333 220.242 0 182.119 0 130.373V39.2216C0 36.8046 1.47053 34.6439 3.74985 33.765L89.8861 0.402715C91.2464 -0.146608 92.7537 -0.146608 94.1507 0.402715L180.287 33.765C182.566 34.6439 184.037 36.8046 184.037 39.2216V130.373C184.037 182.778 96.5035 220.279 92.7904 221.853C92.5331 221.963 92.2757 222 92.0184 222ZM92.0184 3.91839C91.761 3.91839 91.5405 3.95501 91.3199 4.06487L5.14685 37.3905C4.41159 37.6835 3.8969 38.4159 3.8969 39.2216V130.373C3.8969 177.102 83.2687 214.016 91.9816 217.935C100.695 214.09 180.066 177.688 180.066 130.373V39.2216C180.066 38.4159 179.588 37.6835 178.816 37.3905L92.7169 4.02825C92.4963 3.95501 92.239 3.88177 92.0184 3.88177" fill="#0096DA"/>
</g>
<defs>
<clipPath id="clip0_15_805">
<rect width="184" height="222" fill="white"/>
</clipPath>
</defs>
</svg>
