<svg width="183" height="199" viewBox="0 0 183 199" fill="none" xmlns="http://www.w3.org/2000/svg">
<g clip-path="url(#clip0_15_743)">
<path d="M34.6254 199C33.5285 199 32.6875 198.121 32.6875 197.058V184.563C32.6875 183.464 33.565 182.621 34.6254 182.621C35.6857 182.621 36.5632 183.501 36.5632 184.563V197.058C36.5632 198.121 35.6857 199 34.6254 199Z" fill="#0096DA"/>
<path d="M114.882 132.862C113.822 132.862 112.944 131.983 112.944 130.92C112.944 129.858 113.822 128.978 114.882 128.978C127.753 128.978 134.407 127.329 136.857 126.523L136.381 88.7091C136.381 87.6465 137.222 86.7305 138.319 86.7305C139.38 86.7305 140.257 87.5732 140.257 88.6725L140.733 127.842C140.733 128.612 140.33 129.271 139.636 129.638C139.343 129.784 132.762 132.899 114.846 132.899" fill="#0096DA"/>
<path d="M68.1547 132.862C50.0924 132.862 43.5841 128.832 43.3281 128.648C42.7797 128.282 42.4141 127.659 42.4141 126.999L42.8894 73.4296C42.8894 72.3669 43.7669 71.4875 44.8272 71.4875C45.8876 71.4875 46.7651 72.3669 46.7651 73.4662L46.2898 125.79C48.5202 126.743 55.0284 128.941 68.1182 128.941C69.1785 128.941 70.056 129.821 70.056 130.883C70.056 131.946 69.1785 132.825 68.1182 132.825" fill="#0096DA"/>
<path d="M44.7904 53.8264C43.7301 53.8264 42.8525 52.947 42.8525 51.8844V48.8798C42.8525 20.5559 63.2915 0 91.5185 0C119.745 0 140.184 20.5559 140.184 48.8798C140.184 49.979 139.307 50.8218 138.247 50.8218C137.186 50.8218 136.309 49.9424 136.309 48.8798C136.309 22.8277 117.479 3.884 91.5185 3.884C65.5584 3.884 46.7283 22.791 46.7283 48.8798V51.8844C46.7283 52.947 45.8507 53.8264 44.7904 53.8264Z" fill="#0096DA"/>
<path d="M92.6156 104.502C91.5553 104.502 90.6777 103.622 90.6777 102.56C90.6777 101.497 91.5553 100.618 92.6156 100.618C112.433 100.618 126.693 96.1474 136.199 87.0236V78.5228C136.199 77.4602 137.077 76.5808 138.137 76.5808C139.197 76.5808 140.075 77.4602 140.075 78.5228V87.8298C140.075 88.3427 139.892 88.8557 139.526 89.2221C129.252 99.5184 113.932 104.538 92.6156 104.538" fill="#0096DA"/>
<path d="M75.9418 128.941C74.8814 128.941 74.0039 128.062 74.0039 126.999V111.244C74.0039 110.181 74.8814 109.302 75.9418 109.302C77.0021 109.302 77.8796 110.181 77.8796 111.244V126.999C77.8796 128.062 77.0021 128.941 75.9418 128.941Z" fill="#0096DA"/>
<path d="M107.094 128.941C106.034 128.941 105.156 128.062 105.156 126.999V111.244C105.156 110.181 106.034 109.302 107.094 109.302C108.154 109.302 109.032 110.181 109.032 111.244V126.999C109.032 128.062 108.154 128.941 107.094 128.941Z" fill="#0096DA"/>
<path d="M130.458 81.8571C129.398 81.8571 128.521 80.9777 128.521 79.9151V48.9164C128.521 47.8538 129.398 46.9744 130.458 46.9744C140.038 46.9744 147.863 54.8156 147.863 64.4157C147.863 74.0158 140.075 81.8571 130.458 81.8571ZM132.396 51.0049V77.8265C138.905 76.8738 143.95 71.231 143.95 64.4157C143.95 57.6004 138.941 51.9576 132.396 51.0049Z" fill="#0096DA"/>
<path d="M52.5783 54.7791C52.0664 54.7791 51.5545 54.5592 51.1523 54.1562C50.4211 53.3867 50.4576 52.1409 51.2255 51.4081C54.0408 48.7332 59.891 47.3775 67.2768 45.6554C82.9625 42.0278 104.462 37.0446 113.603 16.7452C114.041 15.7559 115.211 15.3162 116.162 15.7559C117.149 16.1956 117.588 17.3681 117.149 18.3208C107.204 40.379 83.6938 45.8386 68.1543 49.4294C61.6095 50.9317 55.9421 52.2508 53.8946 54.1928C53.529 54.5592 53.0536 54.7424 52.5417 54.7424" fill="#0096DA"/>
<path d="M130.861 50.8584C130.861 50.8584 130.605 50.8584 130.459 50.8217C109.179 46.4247 107.533 28.2506 107.497 28.0673C107.424 27.0047 108.228 26.0521 109.288 25.9788C110.495 25.8689 111.299 26.675 111.373 27.7742C111.409 28.3971 112.908 43.2369 131.226 47.011C132.287 47.2309 132.945 48.2568 132.726 49.3194C132.543 50.2355 131.738 50.8584 130.824 50.8584" fill="#0096DA"/>
<path d="M82.7064 66.3212C82.0483 66.3212 81.3901 65.9914 81.0245 65.3685C80.0007 63.6097 78.0994 62.5471 76.0519 62.5471C74.0043 62.5471 72.103 63.6463 71.0793 65.4051C70.5308 66.3212 69.3242 66.6143 68.4101 66.0647C67.496 65.515 67.2035 64.3059 67.752 63.3898C69.507 60.4585 72.688 58.6631 76.0884 58.6631C79.4888 58.6631 82.7064 60.4952 84.4249 63.4265C84.9734 64.3425 84.6443 65.5517 83.7302 66.1013C83.4377 66.2845 83.0721 66.3578 82.743 66.3578" fill="#0096DA"/>
<path d="M113.639 66.3212C112.981 66.3212 112.323 65.9914 111.957 65.3685C110.934 63.6097 109.032 62.5471 106.985 62.5471C104.937 62.5471 103.072 63.6464 102.049 65.3685C101.5 66.2845 100.33 66.6143 99.3795 66.0647C98.4654 65.5151 98.1363 64.3425 98.6848 63.3899C100.403 60.4585 103.584 58.6265 106.985 58.6265C110.385 58.6265 113.603 60.4585 115.321 63.3899C115.87 64.3059 115.541 65.5151 114.626 66.0647C114.334 66.2479 113.968 66.3212 113.639 66.3212Z" fill="#0096DA"/>
<path d="M91.5185 149.278C79.9279 149.278 69.5804 141.51 66.3263 130.407C66.0338 129.381 66.6188 128.282 67.6426 127.989C68.7029 127.696 69.7632 128.282 70.0557 129.308C72.8346 138.761 81.6829 145.394 91.5185 145.394C101.354 145.394 110.202 138.761 113.054 129.308C113.347 128.282 114.444 127.696 115.468 127.989C116.491 128.282 117.076 129.381 116.784 130.407C113.457 141.51 103.073 149.278 91.5185 149.278Z" fill="#0096DA"/>
<path d="M91.5181 117.216C70.677 117.216 54.2965 96.7335 51.1886 81.4174C45.046 78.5593 40.7681 70.3516 39.6712 63.3165C38.7936 57.6737 39.9271 53.1668 42.7791 51.0049C44.5707 49.6492 47.8614 48.5499 53.3825 51.0782C54.3697 51.5179 54.7719 52.6904 54.3331 53.6797C53.8943 54.6691 52.7243 55.1088 51.7371 54.6324C49.653 53.6797 46.801 52.837 45.0825 54.1194C43.4372 55.3653 42.8156 58.663 43.4738 62.7302C44.461 68.886 48.3001 76.3975 53.5287 78.1929C54.1868 78.4494 54.6987 78.999 54.8084 79.7319C57.0754 93.4358 72.4686 113.332 91.4816 113.332C110.495 113.332 128.484 90.1747 128.484 76.141C128.484 75.0784 129.361 74.199 130.422 74.199C131.482 74.199 132.359 75.0784 132.359 76.141C132.359 91.9701 113.639 117.216 91.4816 117.216" fill="#0096DA"/>
<path d="M92.615 106.443C90.4577 106.443 88.7393 104.685 88.7393 102.559C88.7393 100.434 90.4943 98.6388 92.615 98.6388C96.381 98.6388 99.818 98.4923 103.145 98.1625C105.339 97.9793 107.204 99.5182 107.387 101.68C107.606 103.842 106.034 105.747 103.877 105.93C100.33 106.26 96.637 106.443 92.615 106.443Z" fill="#0096DA"/>
<path d="M181.062 199H1.93786C0.840959 199 0 198.121 0 197.058V181.559C0 164.484 10.7497 149.021 26.7279 143.122L75.2476 125.167C76.2348 124.801 77.3682 125.314 77.7339 126.34C78.0995 127.366 77.5876 128.465 76.6004 128.832L28.0807 146.786C13.6016 152.136 3.91229 166.096 3.91229 181.559V195.116H179.124V181.559C179.124 166.133 169.398 152.136 154.956 146.786L106.436 128.832C105.412 128.465 104.901 127.329 105.266 126.34C105.632 125.351 106.765 124.801 107.752 125.167L156.272 143.122C172.25 149.021 183 164.484 183 181.559V197.058C183 198.121 182.122 199 181.062 199Z" fill="#0096DA"/>
<path d="M148.411 199C147.314 199 146.473 198.121 146.473 197.058V184.563C146.473 183.464 147.35 182.621 148.411 182.621C149.471 182.621 150.348 183.501 150.348 184.563V197.058C150.348 198.121 149.471 199 148.411 199Z" fill="#0096DA"/>
</g>
<defs>
<clipPath id="clip0_15_743">
<rect width="183" height="199" fill="white"/>
</clipPath>
</defs>
</svg>
