<svg width="200" height="212" viewBox="0 0 200 212" fill="none" xmlns="http://www.w3.org/2000/svg">
<g clip-path="url(#clip0_15_763)">
<path d="M166.894 1.94126L165.347 0L163.837 1.94126C162.99 3.00346 150.801 18.6434 141.447 36.0781C140.711 37.4333 140.011 38.7885 139.312 40.1437C140.122 41.4623 140.895 42.8176 141.705 44.1728C142.368 42.7809 143.068 41.3891 143.804 39.9972C151.427 25.3829 161.591 11.4644 165.384 6.37319C171.829 14.8341 196.097 48.0553 196.097 68.1638C196.097 85.0124 182.324 98.7111 165.384 98.7111C161.517 98.7111 157.835 98.0152 154.41 96.6966C153.195 96.2205 151.98 95.671 150.801 95.0484C150.175 96.1838 149.439 97.2827 148.665 98.3082C149.807 98.9675 151.022 99.5536 152.237 100.066C156.288 101.715 160.744 102.63 165.384 102.63C184.46 102.63 200 87.1735 200 68.1638C200 43.7699 168.256 3.62612 166.894 1.94126Z" fill="#0096DA"/>
<path d="M166.894 1.94126L165.347 0L163.837 1.94126C162.99 3.00346 150.801 18.6434 141.447 36.0781C140.711 37.4333 140.011 38.7885 139.312 40.1437C140.122 41.4623 140.895 42.8176 141.705 44.1728C142.368 42.7809 143.068 41.3891 143.804 39.9972C151.427 25.3829 161.591 11.4644 165.384 6.37319C171.829 14.8341 196.097 48.0553 196.097 68.1638C196.097 85.0124 182.324 98.7111 165.384 98.7111C161.517 98.7111 157.835 98.0152 154.41 96.6966C153.195 96.2205 151.98 95.671 150.801 95.0484C150.175 96.1838 149.439 97.2827 148.665 98.3082C149.807 98.9675 151.022 99.5536 152.237 100.066C156.288 101.715 160.744 102.63 165.384 102.63C184.46 102.63 200 87.1735 200 68.1638C200 43.7699 168.256 3.62612 166.894 1.94126Z" fill="#0096DA"/>
<path d="M38.1882 83.291C16.7925 83.291 0 92.7775 0 104.901C0 108.417 1.39937 111.677 3.94034 114.571C10.127 121.713 22.9792 126.511 38.1882 126.511H38.225C39.4403 126.511 40.5818 126.438 41.8707 126.365C42.5336 126.365 43.2333 126.292 44.0066 126.218C47.1 125.925 49.5305 125.559 51.6295 125.12C51.74 125.12 52.1083 125.12 52.7711 124.936C55.5699 124.277 58.1845 123.471 60.5782 122.482C65.6601 120.431 69.7109 117.684 72.4728 114.534C74.977 111.641 76.3764 108.417 76.4132 105.084V104.901C76.4132 92.7775 59.6207 83.291 38.1882 83.291ZM51.8873 121.127L51.2245 121.274C48.9044 121.713 46.5476 122.043 43.5647 122.373C42.9755 122.409 42.4231 122.482 41.613 122.482C40.4345 122.519 39.3298 122.592 38.1882 122.592C19.6281 122.592 3.94034 114.498 3.94034 104.901C3.94034 95.3048 19.6281 87.1735 38.1882 87.1735C56.7483 87.1735 72.4728 95.3048 72.4728 104.901V105.084C72.3255 111.86 64.0766 118.307 51.8873 121.127Z" fill="#0096DA"/>
<path d="M76.413 105.084H72.4727V124.753H76.413V105.084Z" fill="#0096DA"/>
<path d="M143.804 39.9971C143.031 38.6785 142.22 37.36 141.447 36.078C133.787 23.8444 126.349 14.4678 125.723 13.662L124.176 11.7207L122.629 13.662C121.267 15.3835 89.5229 55.9667 89.5229 79.8845C89.5229 98.8575 105.063 114.314 124.176 114.314C135.702 114.314 145.94 108.71 152.237 100.066C153.01 99.004 153.747 97.8686 154.41 96.6965C157.208 91.7518 158.829 86.0013 158.829 79.8845C158.829 68.2003 151.537 52.9633 143.804 39.9971ZM150.801 95.0483C150.175 96.1837 149.438 97.2826 148.665 98.3081C143.067 105.67 134.156 110.432 124.176 110.432C107.236 110.432 93.4633 96.7331 93.4633 79.8845C93.4633 60.2155 117.768 26.5915 124.176 18.0573C127.011 21.72 133.198 30.1443 139.311 40.1436C140.121 41.4622 140.895 42.8175 141.705 44.1727C148.665 56.1499 154.888 69.702 154.888 79.8845C154.888 85.4152 153.415 90.5797 150.801 95.0483Z" fill="#0096DA"/>
<path d="M126.128 103.583C126.128 104.681 125.244 105.524 124.176 105.524C109.961 105.524 98.3613 94.0228 98.3613 79.8846C98.3613 78.7858 99.2451 77.9067 100.313 77.9067C101.381 77.9067 102.302 78.7858 102.302 79.8846C102.302 91.8618 112.097 101.641 124.176 101.641C125.244 101.641 126.128 102.52 126.128 103.583Z" fill="#0096DA"/>
<path d="M38.1883 94.8286C29.1291 94.8286 22.3164 98.6379 22.3164 103.692C22.3164 108.747 29.1291 112.556 38.1883 112.556C47.2474 112.556 54.0601 108.747 54.0601 103.692C54.0601 98.6379 47.2474 94.8286 38.1883 94.8286ZM38.1883 108.637C30.7863 108.637 26.2567 105.744 26.2567 103.692C26.2567 101.641 30.7863 98.7111 38.1883 98.7111C45.5902 98.7111 50.1566 101.605 50.1566 103.692C50.1566 105.78 45.5902 108.637 38.1883 108.637Z" fill="#0096DA"/>
<path d="M44.5591 103.693C44.5591 105.048 41.6866 106.147 38.1882 106.147C34.6898 106.147 31.8174 105.048 31.8174 103.693C31.8174 102.337 34.653 101.239 38.1882 101.239C41.7235 101.239 44.5591 102.337 44.5591 103.693Z" fill="#0096DA"/>
<path d="M45.1114 212H44.8904C19.7017 211.927 0 200.829 0 186.654V104.901H3.90352V186.507C3.90352 198.448 22.2427 208.044 44.8536 208.117L148.996 207.348V126.035L38.1882 126.511V122.629L152.937 122.153V211.231L45.0746 212.037L45.1114 212Z" fill="#0096DA"/>
</g>
<defs>
<clipPath id="clip0_15_763">
<rect width="200" height="212" fill="white"/>
</clipPath>
</defs>
</svg>
