<svg width="1920" height="53" viewBox="0 0 1920 53" fill="none" xmlns="http://www.w3.org/2000/svg">
<g clip-path="url(#clip0_23_542)">
<path d="M81.5412 101.442C79.1651 101.442 77.2295 99.3713 77.2295 96.8291V45.5363C77.2295 41.8041 78.6451 38.1569 81.1151 35.522L93.1692 22.6795C94.0286 21.7677 94.5198 20.5004 94.5198 19.21V4.7525C94.5198 2.21028 96.4481 0.139404 98.8315 0.139404C101.215 0.139404 103.143 2.20255 103.143 4.7525V19.21C103.143 22.9422 101.728 26.5894 99.2504 29.2243L87.1963 42.0668C86.3441 42.9787 85.8457 44.2459 85.8457 45.5363V96.8291C85.8457 99.3713 83.9174 101.442 81.534 101.442" fill="#f2f2f2"/>
<path d="M620.161 55.3653H620.096L592.998 55.2108C589.531 55.1876 586.267 53.7426 583.797 51.1463L571.699 38.3811C570.84 37.4693 569.699 36.9747 568.485 36.9747H537.668C535.292 36.9747 533.356 34.9116 533.356 32.3616C533.356 29.8117 535.292 27.7485 537.668 27.7485H568.485C571.981 27.7485 575.267 29.1935 577.759 31.813L589.856 44.5782C590.716 45.4746 591.85 45.9769 593.049 45.9846L620.139 46.1391H620.161C621.367 46.1391 622.545 45.6137 623.397 44.7096L637.986 29.1008C639.669 27.3004 642.399 27.3004 644.082 29.1008C645.764 30.9012 645.764 33.8221 644.082 35.6225L629.492 51.2313C627.03 53.8585 623.628 55.3653 620.154 55.3653" fill="#f2f2f2"/>
<path d="M81.541 147.465H81.5121L59.3829 147.303C55.9451 147.279 52.695 145.85 50.2394 143.277L44.2088 136.964L29.5474 121.301C27.0485 118.635 25.6763 115.088 25.6763 111.31V63.9501C25.6763 60.1715 27.0485 56.6247 29.5474 53.9589L41.5654 41.1164C42.4176 40.2046 42.916 38.9373 42.9088 37.6469L42.8871 13.9709C42.8871 11.4287 44.8155 9.35782 47.1916 9.3501C49.5677 9.3501 51.5033 11.4132 51.5033 13.9555L51.525 37.6314C51.525 41.3559 50.1166 45.0031 47.6538 47.6381L35.6359 60.4806C34.7692 61.4001 34.2925 62.6364 34.2925 63.9423V111.302C34.2925 112.616 34.7692 113.844 35.6359 114.771L50.2611 130.403L56.2628 136.686C57.1151 137.574 58.2418 138.069 59.4334 138.084L81.5627 138.246C83.946 138.262 85.86 140.341 85.8455 142.89C85.8239 145.425 83.9027 147.473 81.5338 147.473" fill="#f2f2f2"/>
<path d="M4.31969 36.9746C3.21467 36.9746 2.10966 36.5264 1.27187 35.6223C-0.410935 33.8219 -0.410935 30.9011 1.27187 29.1006L7.25918 22.6871C8.12586 21.7598 8.59531 20.5312 8.59531 19.2253V4.74469C8.59531 2.20246 10.5237 0.131592 12.907 0.131592C15.2904 0.131592 17.2188 2.19474 17.2188 4.74469V19.2253C17.2188 22.9962 15.8465 26.5429 13.3548 29.2088L7.36752 35.6146C6.52973 36.5187 5.41749 36.9669 4.31969 36.9669" fill="#f2f2f2"/>
<path d="M240.201 258.241C236.713 258.241 233.304 256.727 230.841 254.084L149.922 167.123C147.437 164.457 146.072 160.91 146.08 157.147L146.159 4.75235C146.159 2.21012 148.087 0.146973 150.471 0.146973C152.854 0.146973 154.783 2.21012 154.783 4.76007L154.703 157.155C154.703 158.461 155.173 159.689 156.032 160.609L236.958 247.578C237.81 248.497 238.995 249.023 240.201 249.023H240.237L305.195 248.551H305.224C307.593 248.551 309.521 250.591 309.535 253.133C309.55 255.683 307.636 257.762 305.253 257.777L240.295 258.249H240.208L240.201 258.241Z" fill="#f2f2f2"/>
<path d="M460.208 193.511C457.832 193.511 455.896 191.448 455.896 188.898V156.266C455.896 152.55 457.232 149.049 459.659 146.391L471.807 133.085C472.645 132.158 473.107 130.944 473.107 129.662V32.3616C473.107 29.8194 475.035 27.7485 477.419 27.7485C479.802 27.7485 481.73 29.8194 481.73 32.3616V129.669C481.73 133.379 480.394 136.887 477.975 139.537L465.827 152.843C464.989 153.763 464.519 154.976 464.519 156.266V188.898C464.519 191.44 462.584 193.511 460.208 193.511Z" fill="#f2f2f2"/>
<path d="M374.147 220.935C371.77 220.935 369.835 218.871 369.835 216.321V174.464C369.835 173.173 369.365 171.952 368.52 171.025L356.423 157.881C353.975 155.223 352.624 151.699 352.624 147.975V109.772C352.624 106.001 353.996 102.454 356.488 99.7808L368.491 86.9383C369.344 86.0265 369.828 84.7669 369.828 83.4765V13.94C369.828 11.39 371.756 9.3269 374.139 9.3269C376.523 9.3269 378.451 11.39 378.451 13.94V83.4688C378.451 87.2396 377.079 90.7864 374.587 93.4522L362.584 106.295C361.717 107.222 361.24 108.451 361.24 109.764V147.967C361.24 149.258 361.71 150.479 362.555 151.406L374.659 164.55C377.108 167.208 378.458 170.731 378.458 174.456V216.314C378.458 218.864 376.53 220.927 374.147 220.927" fill="#f2f2f2"/>
<path d="M391.364 220.935C388.981 220.935 387.053 218.872 387.053 216.322V183.435C387.053 179.664 388.425 176.117 390.924 173.444L402.927 160.601C403.794 159.682 404.264 158.445 404.264 157.147L404.35 54.5386C404.35 50.76 405.73 47.2055 408.236 44.5396L422.738 29.1008L437.342 13.4765C439.834 10.8107 443.149 9.34253 446.673 9.34253H477.505C479.881 9.34253 481.817 11.4057 481.817 13.9556C481.817 16.5056 479.889 18.5687 477.505 18.5687H446.673C445.453 18.5687 444.304 19.0787 443.437 20.006L428.827 35.638L414.317 51.0845C413.443 52.0118 412.966 53.2404 412.966 54.554L412.88 157.163C412.88 160.926 411.508 164.473 409.016 167.131L397.012 179.981C396.146 180.908 395.669 182.137 395.669 183.443V216.329C395.669 218.879 393.741 220.942 391.357 220.942" fill="#f2f2f2"/>
<path d="M181.173 55.1953H167.602C165.219 55.1953 163.291 53.1321 163.291 50.5822C163.291 48.0322 165.219 45.9691 167.602 45.9691H181.173C182.379 45.9691 183.52 45.4668 184.387 44.5627L196.434 31.867C197.3 30.9552 197.799 29.6803 197.799 28.3744V4.75251C197.799 2.21028 199.734 0.139404 202.111 0.139404C204.487 0.139404 206.422 2.20255 206.422 4.75251V28.3821C206.422 32.1375 204.985 35.8079 202.486 38.4428L190.432 51.1385C187.948 53.758 184.661 55.203 181.173 55.203" fill="#f2f2f2"/>
<path d="M314.006 36.9747H291.862C288.338 36.9747 285.023 35.5065 282.531 32.8407L270.527 20.0059C269.661 19.0786 268.512 18.5764 267.292 18.5764L219.292 18.5609C216.909 18.5609 214.98 16.4978 214.98 13.9478C214.98 11.3979 216.909 9.33472 219.292 9.33472L267.292 9.35017C270.816 9.35017 274.131 10.8183 276.623 13.4842L288.627 26.319C289.493 27.2462 290.642 27.7485 291.862 27.7485H314.006C316.382 27.7485 318.318 29.8194 318.318 32.3616C318.318 34.9038 316.382 36.9747 314.006 36.9747Z" fill="#f2f2f2"/>
<path d="M81.6275 18.5687H64.4167C62.0333 18.5687 60.105 16.5056 60.105 13.9556C60.105 11.4057 62.0333 9.34253 64.4167 9.34253H81.6275C84.0109 9.34253 85.9393 11.4057 85.9393 13.9556C85.9393 16.5056 84.0109 18.5687 81.6275 18.5687Z" fill="#f2f2f2"/>
<path d="M460.208 128.858C457.832 128.858 455.896 126.795 455.896 124.245V100.94C455.896 99.6493 455.434 98.4284 454.589 97.5089L442.47 84.3187C440.029 81.6606 438.686 78.1447 438.686 74.4202V41.5799C438.686 39.0377 440.614 36.9668 442.997 36.9668C445.381 36.9668 447.309 39.0299 447.309 41.5799V74.4202C447.309 75.7107 447.771 76.9316 448.623 77.8511L460.735 91.049C463.176 93.7072 464.52 97.223 464.52 100.948V124.253C464.52 126.802 462.584 128.866 460.208 128.866" fill="#f2f2f2"/>
<path d="M460.208 73.609C457.832 73.609 455.896 71.5459 455.896 68.9959V32.3538C455.896 29.8116 457.832 27.7407 460.208 27.7407C462.584 27.7407 464.519 29.8116 464.519 32.3538V68.9959C464.519 71.5381 462.584 73.609 460.208 73.609Z" fill="#f2f2f2"/>
<path d="M339.725 138.061C337.349 138.061 335.414 135.998 335.414 133.448V100.492C335.414 96.7825 336.742 93.2821 339.162 90.6317L351.324 77.2947C352.162 76.3751 352.624 75.162 352.624 73.8715V27.076C352.624 25.7701 352.148 24.5415 351.295 23.622L336.757 8.00541C335.074 6.19726 335.081 3.28413 336.771 1.48371C338.454 -0.308986 341.184 -0.308986 342.867 1.49916L357.406 17.1234C359.883 19.7893 361.248 23.3283 361.248 27.0837V73.8793C361.248 77.5883 359.919 81.0887 357.499 83.7391L345.344 97.0761C344.506 97.9957 344.044 99.2088 344.044 100.499V133.456C344.044 136.005 342.116 138.069 339.733 138.069" fill="#f2f2f2"/>
<path d="M305.303 239.348C302.927 239.348 300.992 237.278 300.999 234.728L301.042 146.6C301.042 145.309 300.551 144.042 299.692 143.13L287.659 130.288C285.189 127.66 283.781 124.013 283.781 120.289V72.9291C283.781 69.1583 285.153 65.6115 287.645 62.9379L299.648 50.0954C302.14 47.4296 305.455 45.9614 308.979 45.9614H322.601C324.977 45.9614 326.913 48.0246 326.913 50.5745C326.913 53.1245 324.977 55.1876 322.601 55.1876H308.979C307.752 55.1876 306.603 55.6976 305.744 56.6171L293.74 69.4597C292.874 70.3869 292.404 71.6155 292.404 72.9214V120.281C292.404 121.571 292.895 122.839 293.748 123.751L305.78 136.593C308.25 139.228 309.666 142.875 309.658 146.6L309.615 234.728C309.615 237.27 307.679 239.341 305.303 239.341" fill="#f2f2f2"/>
<path d="M374.147 147.272C371.771 147.272 369.835 145.201 369.835 142.659V119.415C369.835 115.652 371.207 112.113 373.692 109.44L385.71 96.5586C386.569 95.6313 387.046 94.4104 387.046 93.0968V13.94C387.046 11.39 388.974 9.3269 391.358 9.3269C393.741 9.3269 395.669 11.39 395.669 13.94V93.0968C395.669 96.8599 394.297 100.407 391.813 103.073L379.795 115.954C378.935 116.881 378.458 118.11 378.458 119.408V142.651C378.458 145.193 376.53 147.264 374.147 147.264" fill="#f2f2f2"/>
<path d="M167.689 92.2159C165.32 92.2159 163.391 90.1682 163.377 87.6337C163.363 85.0838 165.284 83.0052 167.667 82.9897L196.788 82.8197C197.958 82.8197 199.07 82.3329 199.922 81.4675L230.913 49.8635C233.376 47.3522 236.611 45.969 240.02 45.969H279.584C281.961 45.969 283.896 48.0321 283.896 50.5821C283.896 53.1321 281.961 55.1952 279.584 55.1952H240.02C238.843 55.1952 237.717 55.6743 236.864 56.5474L205.873 88.1514C203.425 90.6396 200.218 92.0305 196.838 92.0459L167.725 92.2159H167.703H167.689Z" fill="#f2f2f2"/>
<path d="M189.84 73.8022H167.61C165.226 73.8022 163.298 71.739 163.298 69.1891C163.298 66.6391 165.226 64.576 167.61 64.576H189.84C191.06 64.576 192.209 64.066 193.076 63.1387L222.297 31.8825C224.789 29.2166 228.104 27.7407 231.636 27.7407H262.374C264.757 27.7407 266.686 29.8116 266.686 32.3538C266.686 34.8961 264.757 36.9669 262.374 36.9669H231.636C230.429 36.9669 229.252 37.4846 228.4 38.4042L199.186 69.6604C196.694 72.3263 193.379 73.8022 189.847 73.8022" fill="#f2f2f2"/>
<path d="M115.991 147.272C113.608 147.272 111.68 145.201 111.68 142.659V63.9345C111.68 60.2023 113.095 56.5551 115.565 53.9278L127.533 41.1781C128.399 40.2585 128.876 39.0299 128.883 37.724L128.956 4.74462C128.956 2.20239 130.891 0.146973 133.267 0.146973H133.282C135.658 0.146973 137.586 2.21785 137.579 4.7678L137.507 37.7472C137.492 41.5181 136.12 45.0648 133.621 47.723L121.654 60.4727C120.787 61.4 120.303 62.6286 120.303 63.9422V142.666C120.303 145.209 118.375 147.279 115.991 147.279" fill="#f2f2f2"/>
<path d="M184.82 27.7794H184.798C182.415 27.7639 180.494 25.693 180.508 23.1431L180.588 4.72932C180.602 2.19482 182.523 0.139404 184.9 0.139404H184.921C187.305 0.154859 189.226 2.22573 189.211 4.77569L189.132 23.1895C189.117 25.724 187.189 27.7794 184.82 27.7794Z" fill="#f2f2f2"/>
<path d="M339.725 73.6089C337.349 73.6089 335.413 71.5458 335.413 68.9958V36.2946C335.413 34.9887 334.937 33.7524 334.07 32.8328L322.066 19.9904C321.214 19.0786 320.037 18.5531 318.831 18.5531H296.788C294.412 18.5531 292.477 16.49 292.477 13.94C292.477 11.39 294.405 9.3269 296.788 9.3269H318.831C322.363 9.3269 325.67 10.7951 328.169 13.4609L340.173 26.3034C342.665 28.9693 344.037 32.516 344.037 36.2869V68.9881C344.037 71.5303 342.108 73.6012 339.725 73.6012" fill="#f2f2f2"/>
<path d="M77.9298 129.043H68.0352C64.5324 129.043 61.1163 127.521 58.6534 124.855L46.6283 111.858C44.1582 109.185 42.8004 105.646 42.8076 101.89L42.8799 69.1736C42.8799 66.6313 44.8155 64.5759 47.1916 64.5759H47.206C49.5894 64.5759 51.5106 66.6468 51.5106 69.1967L51.4383 101.913C51.4383 103.219 51.9006 104.44 52.76 105.367L64.7852 118.364C65.6374 119.284 66.8219 119.817 68.0352 119.817H77.9298C79.136 119.817 80.3204 119.292 81.1727 118.372L93.1112 105.537C93.9706 104.618 94.4401 103.382 94.4401 102.083V54.7161C94.4401 50.9839 95.8557 47.3367 98.3257 44.7094L110.387 31.8747C111.246 30.9629 111.738 29.6956 111.738 28.4052V4.74469C111.738 2.20246 113.666 0.131592 116.049 0.131592C118.433 0.131592 120.361 2.19474 120.361 4.74469V28.4052C120.361 32.1374 118.945 35.7846 116.468 38.4196L104.414 51.2543C103.555 52.1661 103.064 53.4334 103.064 54.7238V102.091C103.064 105.847 101.699 109.386 99.2213 112.051L87.29 124.886C84.8272 127.529 81.4182 129.043 77.9298 129.043Z" fill="#f2f2f2"/>
<path d="M511.963 55.3884C509.587 55.3884 507.651 53.3252 507.651 50.7752V36.2869C507.651 32.5238 509.016 28.9847 511.501 26.3189L523.476 13.4764C525.974 10.8028 529.289 9.32689 532.821 9.32689H577.051C580.532 9.32689 583.941 10.8414 586.396 13.4764L598.349 26.3034C599.202 27.2152 600.386 27.7407 601.592 27.7407H611.516C612.722 27.7407 613.899 27.2229 614.751 26.3111L626.755 13.4686C627.622 12.5491 628.091 11.3128 628.091 10.0069V4.74469C628.091 2.20246 630.019 0.131592 632.403 0.131592C634.786 0.131592 636.714 2.19474 636.714 4.74469V9.99915C636.714 13.77 635.342 17.3167 632.851 19.9826L620.847 32.8251C618.355 35.491 615.04 36.9591 611.509 36.9591H601.585C598.104 36.9591 594.695 35.4446 592.239 32.8097L580.286 19.9826C579.434 19.0631 578.25 18.5376 577.044 18.5376H532.814C531.586 18.5376 530.438 19.0476 529.571 19.9826L517.604 32.8174C516.744 33.7369 516.268 34.9655 516.268 36.2714V50.7598C516.268 53.302 514.339 55.3729 511.956 55.3729" fill="#f2f2f2"/>
<path d="M632.417 73.8025H584.461C580.929 73.8025 577.621 72.3343 575.123 69.6607L563.119 56.8182C562.252 55.891 561.104 55.381 559.883 55.381H529.138C526.762 55.381 524.826 53.3178 524.826 50.7679C524.826 48.2179 526.755 46.1548 529.138 46.1548H559.883C563.408 46.1548 566.723 47.6229 569.215 50.2888L581.218 63.1313C582.085 64.0508 583.233 64.5685 584.461 64.5685H632.417C634.793 64.5685 636.729 66.6317 636.729 69.1817C636.729 71.7316 634.801 73.7948 632.417 73.7948" fill="#f2f2f2"/>
<path d="M167.689 36.9746C165.305 36.9746 163.377 34.9114 163.377 32.3615V4.74469C163.377 2.20246 165.305 0.131592 167.689 0.131592C170.072 0.131592 172 2.19474 172 4.74469V32.3538C172 34.9037 170.065 36.9669 167.689 36.9669" fill="#f2f2f2"/>
<path d="M64.4171 101.442C62.0409 101.442 60.1053 99.3791 60.1053 96.8369L60.0259 32.3694C60.0259 29.8271 61.9542 27.7563 64.3304 27.7485H64.3376C66.7138 27.7485 68.6421 29.8117 68.6493 32.3539L68.7288 96.8214C68.7288 99.3636 66.8004 101.435 64.4243 101.442H64.4171Z" fill="#f2f2f2"/>
<path d="M408.655 27.7796C407.557 27.7796 406.445 27.3314 405.607 26.4273C403.925 24.6269 403.925 21.706 405.607 19.9056L422.818 1.49185C424.501 -0.316295 427.231 -0.316295 428.914 1.49185C430.597 3.29228 430.597 6.21314 428.914 8.01356L411.703 26.4273C410.865 27.3314 409.753 27.7796 408.655 27.7796Z" fill="#f2f2f2"/>
<path d="M12.9074 101.442C10.5241 101.442 8.5957 99.3714 8.5957 96.8292V54.7085C8.5957 50.9532 9.9535 47.4296 12.4235 44.7637L24.3476 31.898C25.2071 30.9785 25.6765 29.7499 25.6765 28.444V13.9556C25.6765 11.4057 27.6049 9.34253 29.9883 9.34253C32.3716 9.34253 34.3 11.4057 34.3 13.9556V28.4363C34.3 32.1917 32.9422 35.7152 30.4721 38.3811L18.5481 51.2468C17.6958 52.174 17.2192 53.3949 17.2192 54.6931V96.8137C17.2192 99.3559 15.2836 101.427 12.9074 101.427" fill="#f2f2f2"/>
<path d="M494.637 64.4057C492.253 64.4057 490.325 62.3348 490.332 59.7849L490.411 4.60537C490.411 2.06315 492.347 0 494.723 0H494.73C497.107 0 499.035 2.07087 499.035 4.62083L498.956 59.8003C498.956 62.3425 497.02 64.4057 494.644 64.4057" fill="#f2f2f2"/>
<path d="M718.483 101.442C716.106 101.442 714.171 99.3713 714.171 96.8291V45.5363C714.171 41.8041 715.586 38.1569 718.057 35.522L730.111 22.6795C730.97 21.7677 731.461 20.5004 731.461 19.21V4.7525C731.461 2.21028 733.39 0.139404 735.773 0.139404C738.156 0.139404 740.085 2.20255 740.085 4.7525V19.21C740.085 22.9422 738.669 26.5894 736.192 29.2243L724.138 42.0668C723.285 42.9787 722.787 44.2459 722.787 45.5363V96.8291C722.787 99.3713 720.859 101.442 718.475 101.442" fill="#f2f2f2"/>
<path d="M1257.1 55.3653H1257.04L1229.94 55.2108C1226.47 55.1876 1223.21 53.7426 1220.74 51.1463L1208.64 38.3811C1207.78 37.4693 1206.64 36.9747 1205.43 36.9747H1174.61C1172.23 36.9747 1170.3 34.9116 1170.3 32.3616C1170.3 29.8117 1172.23 27.7485 1174.61 27.7485H1205.43C1208.92 27.7485 1212.21 29.1935 1214.7 31.813L1226.8 44.5782C1227.66 45.4746 1228.79 45.9769 1229.99 45.9846L1257.08 46.1391H1257.1C1258.31 46.1391 1259.49 45.6137 1260.34 44.7096L1274.93 29.1008C1276.61 27.3004 1279.34 27.3004 1281.02 29.1008C1282.71 30.9012 1282.71 33.8221 1281.02 35.6225L1266.43 51.2313C1263.97 53.8585 1260.57 55.3653 1257.1 55.3653" fill="#f2f2f2"/>
<path d="M718.483 147.465H718.454L696.325 147.303C692.887 147.279 689.637 145.85 687.181 143.277L681.151 136.964L666.489 121.301C663.99 118.635 662.618 115.088 662.618 111.31V63.9501C662.618 60.1715 663.99 56.6247 666.489 53.9589L678.507 41.1164C679.36 40.2046 679.858 38.9373 679.851 37.6469L679.829 13.9709C679.829 11.4287 681.757 9.35782 684.133 9.3501C686.51 9.3501 688.445 11.4132 688.445 13.9555L688.467 37.6314C688.467 41.3559 687.059 45.0031 684.596 47.6381L672.578 60.4806C671.711 61.4001 671.234 62.6364 671.234 63.9423V111.302C671.234 112.616 671.711 113.844 672.578 114.771L687.203 130.403L693.205 136.686C694.057 137.574 695.184 138.069 696.375 138.084L718.505 138.246C720.888 138.262 722.802 140.341 722.787 142.89C722.766 145.425 720.845 147.473 718.476 147.473" fill="#f2f2f2"/>
<path d="M641.262 36.9746C640.157 36.9746 639.052 36.5264 638.214 35.6223C636.531 33.8219 636.531 30.9011 638.214 29.1006L644.201 22.6871C645.068 21.7598 645.537 20.5312 645.537 19.2253V4.74469C645.537 2.20246 647.466 0.131592 649.849 0.131592C652.232 0.131592 654.161 2.19474 654.161 4.74469V19.2253C654.161 22.9962 652.788 26.5429 650.297 29.2088L644.309 35.6146C643.472 36.5187 642.359 36.9669 641.262 36.9669" fill="#f2f2f2"/>
<path d="M877.143 258.241C873.655 258.241 870.246 256.727 867.783 254.084L786.864 167.123C784.379 164.457 783.014 160.91 783.022 157.147L783.101 4.75235C783.101 2.21012 785.029 0.146973 787.413 0.146973C789.796 0.146973 791.724 2.21012 791.724 4.76007L791.645 157.155C791.645 158.461 792.114 159.689 792.974 160.609L873.9 247.578C874.752 248.497 875.937 249.023 877.143 249.023H877.179L942.137 248.551H942.166C944.535 248.551 946.463 250.591 946.477 253.133C946.492 255.683 944.578 257.762 942.195 257.777L877.237 258.249H877.15L877.143 258.241Z" fill="#f2f2f2"/>
<path d="M1097.15 193.511C1094.77 193.511 1092.84 191.448 1092.84 188.898V156.266C1092.84 152.55 1094.17 149.049 1096.6 146.391L1108.75 133.085C1109.59 132.158 1110.05 130.944 1110.05 129.662V32.3616C1110.05 29.8194 1111.98 27.7485 1114.36 27.7485C1116.74 27.7485 1118.67 29.8194 1118.67 32.3616V129.669C1118.67 133.379 1117.34 136.887 1114.92 139.537L1102.77 152.843C1101.93 153.763 1101.46 154.976 1101.46 156.266V188.898C1101.46 191.44 1099.53 193.511 1097.15 193.511Z" fill="#f2f2f2"/>
<path d="M1011.09 220.935C1008.71 220.935 1006.78 218.871 1006.78 216.321V174.464C1006.78 173.173 1006.31 171.952 1005.46 171.025L993.364 157.881C990.916 155.223 989.565 151.699 989.565 147.975V109.772C989.565 106.001 990.938 102.454 993.429 99.7808L1005.43 86.9383C1006.29 86.0265 1006.77 84.7669 1006.77 83.4765V13.94C1006.77 11.39 1008.7 9.3269 1011.08 9.3269C1013.46 9.3269 1015.39 11.39 1015.39 13.94V83.4688C1015.39 87.2396 1014.02 90.7864 1011.53 93.4522L999.525 106.295C998.658 107.222 998.182 108.451 998.182 109.764V147.967C998.182 149.258 998.651 150.479 999.496 151.406L1011.6 164.55C1014.05 167.208 1015.4 170.731 1015.4 174.456V216.314C1015.4 218.864 1013.47 220.927 1011.09 220.927" fill="#f2f2f2"/>
<path d="M1028.31 220.935C1025.92 220.935 1023.99 218.872 1023.99 216.322V183.435C1023.99 179.664 1025.37 176.117 1027.87 173.444L1039.87 160.601C1040.74 159.682 1041.21 158.445 1041.21 157.147L1041.29 54.5386C1041.29 50.76 1042.67 47.2055 1045.18 44.5396L1059.68 29.1008L1074.28 13.4765C1076.78 10.8107 1080.09 9.34253 1083.61 9.34253H1114.45C1116.82 9.34253 1118.76 11.4057 1118.76 13.9556C1118.76 16.5056 1116.83 18.5687 1114.45 18.5687H1083.61C1082.39 18.5687 1081.25 19.0787 1080.38 20.006L1065.77 35.638L1051.26 51.0845C1050.39 52.0118 1049.91 53.2404 1049.91 54.554L1049.82 157.163C1049.82 160.926 1048.45 164.473 1045.96 167.131L1033.95 179.981C1033.09 180.908 1032.61 182.137 1032.61 183.443V216.329C1032.61 218.879 1030.68 220.942 1028.3 220.942" fill="#f2f2f2"/>
<path d="M818.115 55.1953H804.544C802.161 55.1953 800.232 53.1321 800.232 50.5822C800.232 48.0322 802.161 45.9691 804.544 45.9691H818.115C819.321 45.9691 820.462 45.4668 821.329 44.5627L833.376 31.867C834.242 30.9552 834.741 29.6803 834.741 28.3744V4.75251C834.741 2.21028 836.676 0.139404 839.052 0.139404C841.429 0.139404 843.364 2.20255 843.364 4.75251V28.3821C843.364 32.1375 841.927 35.8079 839.428 38.4428L827.374 51.1385C824.889 53.758 821.603 55.203 818.115 55.203" fill="#f2f2f2"/>
<path d="M950.948 36.9747H928.804C925.28 36.9747 921.965 35.5065 919.473 32.8407L907.469 20.0059C906.603 19.0786 905.454 18.5764 904.234 18.5764L856.234 18.5609C853.851 18.5609 851.922 16.4978 851.922 13.9478C851.922 11.3979 853.851 9.33472 856.234 9.33472L904.234 9.35017C907.758 9.35017 911.073 10.8183 913.565 13.4842L925.568 26.319C926.435 27.2462 927.584 27.7485 928.804 27.7485H950.948C953.324 27.7485 955.26 29.8194 955.26 32.3616C955.26 34.9038 953.324 36.9747 950.948 36.9747Z" fill="#f2f2f2"/>
<path d="M718.569 18.5687H701.359C698.975 18.5687 697.047 16.5056 697.047 13.9556C697.047 11.4057 698.975 9.34253 701.359 9.34253H718.569C720.953 9.34253 722.881 11.4057 722.881 13.9556C722.881 16.5056 720.953 18.5687 718.569 18.5687Z" fill="#f2f2f2"/>
<path d="M1097.15 128.858C1094.77 128.858 1092.84 126.795 1092.84 124.245V100.94C1092.84 99.6493 1092.38 98.4284 1091.53 97.5089L1079.41 84.3187C1076.97 81.6606 1075.63 78.1447 1075.63 74.4202V41.5799C1075.63 39.0377 1077.56 36.9668 1079.94 36.9668C1082.32 36.9668 1084.25 39.0299 1084.25 41.5799V74.4202C1084.25 75.7107 1084.71 76.9316 1085.56 77.8511L1097.68 91.049C1100.12 93.7072 1101.46 97.223 1101.46 100.948V124.253C1101.46 126.802 1099.53 128.866 1097.15 128.866" fill="#f2f2f2"/>
<path d="M1097.15 73.609C1094.77 73.609 1092.84 71.5459 1092.84 68.9959V32.3538C1092.84 29.8116 1094.77 27.7407 1097.15 27.7407C1099.53 27.7407 1101.46 29.8116 1101.46 32.3538V68.9959C1101.46 71.5381 1099.53 73.609 1097.15 73.609Z" fill="#f2f2f2"/>
<path d="M976.667 138.061C974.291 138.061 972.355 135.998 972.355 133.448V100.492C972.355 96.7825 973.684 93.2821 976.103 90.6317L988.266 77.2947C989.104 76.3751 989.566 75.162 989.566 73.8715V27.076C989.566 25.7701 989.089 24.5415 988.237 23.622L973.698 8.00541C972.016 6.19726 972.023 3.28413 973.713 1.48371C975.396 -0.308986 978.126 -0.308986 979.808 1.49916L994.347 17.1234C996.824 19.7893 998.189 23.3283 998.189 27.0837V73.8793C998.189 77.5883 996.86 81.0887 994.441 83.7391L982.286 97.0761C981.448 97.9957 980.986 99.2088 980.986 100.499V133.456C980.986 136.005 979.057 138.069 976.674 138.069" fill="#f2f2f2"/>
<path d="M942.245 239.348C939.869 239.348 937.933 237.278 937.94 234.728L937.984 146.6C937.984 145.309 937.492 144.042 936.633 143.13L924.601 130.288C922.131 127.66 920.722 124.013 920.722 120.289V72.9291C920.722 69.1583 922.094 65.6115 924.586 62.9379L936.59 50.0954C939.081 47.4296 942.396 45.9614 945.921 45.9614H959.542C961.918 45.9614 963.854 48.0246 963.854 50.5745C963.854 53.1245 961.918 55.1876 959.542 55.1876H945.921C944.693 55.1876 943.545 55.6976 942.685 56.6171L930.682 69.4597C929.815 70.3869 929.346 71.6155 929.346 72.9214V120.281C929.346 121.571 929.837 122.839 930.689 123.751L942.721 136.593C945.191 139.228 946.607 142.875 946.6 146.6L946.556 234.728C946.556 237.27 944.621 239.341 942.245 239.341" fill="#f2f2f2"/>
<path d="M1011.09 147.272C1008.71 147.272 1006.78 145.201 1006.78 142.659V119.415C1006.78 115.652 1008.15 112.113 1010.63 109.44L1022.65 96.5586C1023.51 95.6313 1023.99 94.4104 1023.99 93.0968V13.94C1023.99 11.39 1025.92 9.3269 1028.3 9.3269C1030.68 9.3269 1032.61 11.39 1032.61 13.94V93.0968C1032.61 96.8599 1031.24 100.407 1028.75 103.073L1016.74 115.954C1015.88 116.881 1015.4 118.11 1015.4 119.408V142.651C1015.4 145.193 1013.47 147.264 1011.09 147.264" fill="#f2f2f2"/>
<path d="M804.631 92.2159C802.262 92.2159 800.333 90.1682 800.319 87.6337C800.304 85.0838 802.226 83.0052 804.609 82.9897L833.729 82.8197C834.899 82.8197 836.012 82.3329 836.864 81.4675L867.855 49.8635C870.318 47.3522 873.553 45.969 876.962 45.969H916.526C918.902 45.969 920.838 48.0321 920.838 50.5821C920.838 53.1321 918.902 55.1952 916.526 55.1952H876.962C875.785 55.1952 874.658 55.6743 873.806 56.5474L842.815 88.1514C840.367 90.6396 837.16 92.0305 833.78 92.0459L804.667 92.2159H804.645H804.631Z" fill="#f2f2f2"/>
<path d="M826.782 73.8022H804.551C802.168 73.8022 800.24 71.739 800.24 69.1891C800.24 66.6391 802.168 64.576 804.551 64.576H826.782C828.002 64.576 829.151 64.066 830.017 63.1387L859.239 31.8825C861.731 29.2166 865.046 27.7407 868.577 27.7407H899.316C901.699 27.7407 903.627 29.8116 903.627 32.3538C903.627 34.8961 901.699 36.9669 899.316 36.9669H868.577C867.371 36.9669 866.194 37.4846 865.342 38.4042L836.128 69.6604C833.636 72.3263 830.321 73.8022 826.789 73.8022" fill="#f2f2f2"/>
<path d="M752.933 147.272C750.55 147.272 748.622 145.201 748.622 142.659V63.9345C748.622 60.2023 750.037 56.5551 752.507 53.9278L764.475 41.1781C765.341 40.2585 765.818 39.0299 765.825 37.724L765.897 4.74462C765.897 2.20239 767.833 0.146973 770.209 0.146973H770.224C772.6 0.146973 774.528 2.21785 774.521 4.7678L774.449 37.7472C774.434 41.5181 773.062 45.0648 770.563 47.723L758.596 60.4727C757.729 61.4 757.245 62.6286 757.245 63.9422V142.666C757.245 145.209 755.317 147.279 752.933 147.279" fill="#f2f2f2"/>
<path d="M821.762 27.7794H821.74C819.357 27.7639 817.436 25.693 817.45 23.1431L817.53 4.72932C817.544 2.19482 819.465 0.139404 821.841 0.139404H821.863C824.246 0.154859 826.168 2.22573 826.153 4.77569L826.074 23.1895C826.059 25.724 824.131 27.7794 821.762 27.7794Z" fill="#f2f2f2"/>
<path d="M976.666 73.6089C974.29 73.6089 972.355 71.5458 972.355 68.9958V36.2946C972.355 34.9887 971.878 33.7524 971.011 32.8328L959.008 19.9904C958.156 19.0786 956.978 18.5531 955.772 18.5531H933.73C931.354 18.5531 929.418 16.49 929.418 13.94C929.418 11.39 931.346 9.3269 933.73 9.3269H955.772C959.304 9.3269 962.612 10.7951 965.111 13.4609L977.114 26.3034C979.606 28.9693 980.978 32.516 980.978 36.2869V68.9881C980.978 71.5303 979.05 73.6012 976.666 73.6012" fill="#f2f2f2"/>
<path d="M714.871 129.043H704.977C701.474 129.043 698.058 127.521 695.595 124.855L683.57 111.858C681.1 109.185 679.742 105.646 679.749 101.89L679.821 69.1736C679.821 66.6313 681.757 64.5759 684.133 64.5759H684.147C686.531 64.5759 688.452 66.6468 688.452 69.1967L688.38 101.913C688.38 103.219 688.842 104.44 689.701 105.367L701.727 118.364C702.579 119.284 703.763 119.817 704.977 119.817H714.871C716.077 119.817 717.262 119.292 718.114 118.372L730.053 105.537C730.912 104.618 731.382 103.382 731.382 102.083V54.7161C731.382 50.9839 732.797 47.3367 735.267 44.7094L747.328 31.8747C748.188 30.9629 748.679 29.6956 748.679 28.4052V4.74469C748.679 2.20246 750.607 0.131592 752.991 0.131592C755.374 0.131592 757.302 2.19474 757.302 4.74469V28.4052C757.302 32.1374 755.887 35.7846 753.41 38.4196L741.356 51.2543C740.496 52.1661 740.005 53.4334 740.005 54.7238V102.091C740.005 105.847 738.64 109.386 736.163 112.051L724.231 124.886C721.769 127.529 718.36 129.043 714.871 129.043Z" fill="#f2f2f2"/>
<path d="M1148.9 55.3884C1146.53 55.3884 1144.59 53.3252 1144.59 50.7752V36.2869C1144.59 32.5238 1145.96 28.9847 1148.44 26.3189L1160.42 13.4764C1162.92 10.8028 1166.23 9.32689 1169.76 9.32689H1213.99C1217.47 9.32689 1220.88 10.8414 1223.34 13.4764L1235.29 26.3034C1236.14 27.2152 1237.33 27.7407 1238.53 27.7407H1248.46C1249.66 27.7407 1250.84 27.2229 1251.69 26.3111L1263.7 13.4686C1264.56 12.5491 1265.03 11.3128 1265.03 10.0069V4.74469C1265.03 2.20246 1266.96 0.131592 1269.34 0.131592C1271.73 0.131592 1273.66 2.19474 1273.66 4.74469V9.99915C1273.66 13.77 1272.28 17.3167 1269.79 19.9826L1257.79 32.8251C1255.3 35.491 1251.98 36.9591 1248.45 36.9591H1238.53C1235.05 36.9591 1231.64 35.4446 1229.18 32.8097L1217.23 19.9826C1216.38 19.0631 1215.19 18.5376 1213.98 18.5376H1169.76C1168.53 18.5376 1167.38 19.0476 1166.51 19.9826L1154.55 32.8174C1153.69 33.7369 1153.21 34.9655 1153.21 36.2714V50.7598C1153.21 53.302 1151.28 55.3729 1148.9 55.3729" fill="#f2f2f2"/>
<path d="M1269.36 73.8025H1221.4C1217.87 73.8025 1214.56 72.3343 1212.06 69.6607L1200.06 56.8182C1199.19 55.891 1198.05 55.381 1196.82 55.381H1166.08C1163.7 55.381 1161.77 53.3178 1161.77 50.7679C1161.77 48.2179 1163.7 46.1548 1166.08 46.1548H1196.82C1200.35 46.1548 1203.66 47.6229 1206.16 50.2888L1218.16 63.1313C1219.03 64.0508 1220.17 64.5685 1221.4 64.5685H1269.36C1271.73 64.5685 1273.67 66.6317 1273.67 69.1817C1273.67 71.7316 1271.74 73.7948 1269.36 73.7948" fill="#f2f2f2"/>
<path d="M804.631 36.9746C802.247 36.9746 800.319 34.9114 800.319 32.3615V4.74469C800.319 2.20246 802.247 0.131592 804.631 0.131592C807.014 0.131592 808.942 2.19474 808.942 4.74469V32.3538C808.942 34.9037 807.007 36.9669 804.631 36.9669" fill="#f2f2f2"/>
<path d="M701.358 101.442C698.982 101.442 697.047 99.3791 697.047 96.8369L696.967 32.3694C696.967 29.8271 698.896 27.7563 701.272 27.7485H701.279C703.655 27.7485 705.584 29.8117 705.591 32.3539L705.67 96.8214C705.67 99.3636 703.742 101.435 701.366 101.442H701.358Z" fill="#f2f2f2"/>
<path d="M1045.6 27.7796C1044.5 27.7796 1043.39 27.3314 1042.55 26.4273C1040.87 24.6269 1040.87 21.706 1042.55 19.9056L1059.76 1.49185C1061.44 -0.316295 1064.17 -0.316295 1065.86 1.49185C1067.54 3.29228 1067.54 6.21314 1065.86 8.01356L1048.64 26.4273C1047.81 27.3314 1046.69 27.7796 1045.6 27.7796Z" fill="#f2f2f2"/>
<path d="M649.849 101.442C647.465 101.442 645.537 99.3714 645.537 96.8292V54.7085C645.537 50.9532 646.895 47.4296 649.365 44.7637L661.289 31.898C662.148 30.9785 662.618 29.7499 662.618 28.444V13.9556C662.618 11.4057 664.546 9.34253 666.93 9.34253C669.313 9.34253 671.241 11.4057 671.241 13.9556V28.4363C671.241 32.1917 669.884 35.7152 667.414 38.3811L655.489 51.2468C654.637 52.174 654.161 53.3949 654.161 54.6931V96.8137C654.161 99.3559 652.225 101.427 649.849 101.427" fill="#f2f2f2"/>
<path d="M1131.58 64.4057C1129.2 64.4057 1127.27 62.3348 1127.27 59.7849L1127.35 4.60537C1127.35 2.06315 1129.29 0 1131.67 0H1131.67C1134.05 0 1135.98 2.07087 1135.98 4.62083L1135.9 59.8003C1135.9 62.3425 1133.96 64.4057 1131.59 64.4057" fill="#f2f2f2"/>
<path d="M1356.19 101.442C1353.81 101.442 1351.88 99.3713 1351.88 96.8291V45.5363C1351.88 41.8041 1353.29 38.1569 1355.76 35.522L1367.82 22.6795C1368.68 21.7677 1369.17 20.5004 1369.17 19.21V4.7525C1369.17 2.21028 1371.1 0.139404 1373.48 0.139404C1375.86 0.139404 1377.79 2.20255 1377.79 4.7525V19.21C1377.79 22.9422 1376.37 26.5894 1373.9 29.2243L1361.84 42.0668C1360.99 42.9787 1360.49 44.2459 1360.49 45.5363V96.8291C1360.49 99.3713 1358.56 101.442 1356.18 101.442" fill="#f2f2f2"/>
<path d="M1894.81 55.3653H1894.74L1867.65 55.2108C1864.18 55.1876 1860.91 53.7426 1858.44 51.1463L1846.35 38.3811C1845.49 37.4693 1844.35 36.9747 1843.13 36.9747H1812.32C1809.94 36.9747 1808 34.9116 1808 32.3616C1808 29.8117 1809.94 27.7485 1812.32 27.7485H1843.13C1846.63 27.7485 1849.91 29.1935 1852.41 31.813L1864.5 44.5782C1865.36 45.4746 1866.5 45.9769 1867.7 45.9846L1894.79 46.1391H1894.81C1896.01 46.1391 1897.19 45.6137 1898.04 44.7096L1912.63 29.1008C1914.32 27.3004 1917.05 27.3004 1918.73 29.1008C1920.41 30.9012 1920.41 33.8221 1918.73 35.6225L1904.14 51.2313C1901.68 53.8585 1898.28 55.3653 1894.8 55.3653" fill="#f2f2f2"/>
<path d="M1356.19 147.465H1356.16L1334.03 147.303C1330.59 147.279 1327.34 145.85 1324.89 143.277L1318.86 136.964L1304.19 121.301C1301.7 118.635 1300.32 115.088 1300.32 111.31V63.9501C1300.32 60.1715 1301.7 56.6247 1304.19 53.9589L1316.21 41.1164C1317.07 40.2046 1317.56 38.9373 1317.56 37.6469L1317.53 13.9709C1317.53 11.4287 1319.46 9.35782 1321.84 9.3501C1324.22 9.3501 1326.15 11.4132 1326.15 13.9555L1326.17 37.6314C1326.17 41.3559 1324.76 45.0031 1322.3 47.6381L1310.28 60.4806C1309.42 61.4001 1308.94 62.6364 1308.94 63.9423V111.302C1308.94 112.616 1309.42 113.844 1310.28 114.771L1324.91 130.403L1330.91 136.686C1331.76 137.574 1332.89 138.069 1334.08 138.084L1356.21 138.246C1358.59 138.262 1360.51 140.341 1360.49 142.89C1360.47 145.425 1358.55 147.473 1356.18 147.473" fill="#f2f2f2"/>
<path d="M1278.97 36.9746C1277.86 36.9746 1276.76 36.5264 1275.92 35.6223C1274.24 33.8219 1274.24 30.9011 1275.92 29.1006L1281.91 22.6871C1282.77 21.7598 1283.24 20.5312 1283.24 19.2253V4.74469C1283.24 2.20246 1285.17 0.131592 1287.55 0.131592C1289.94 0.131592 1291.87 2.19474 1291.87 4.74469V19.2253C1291.87 22.9962 1290.49 26.5429 1288 29.2088L1282.01 35.6146C1281.18 36.5187 1280.06 36.9669 1278.97 36.9669" fill="#f2f2f2"/>
<path d="M1514.85 258.241C1511.36 258.241 1507.95 256.727 1505.49 254.084L1424.57 167.123C1422.08 164.457 1420.72 160.91 1420.73 157.147L1420.81 4.75235C1420.81 2.21012 1422.73 0.146973 1425.12 0.146973C1427.5 0.146973 1429.43 2.21012 1429.43 4.76007L1429.35 157.155C1429.35 158.461 1429.82 159.689 1430.68 160.609L1511.61 247.578C1512.46 248.497 1513.64 249.023 1514.85 249.023H1514.88L1579.84 248.551H1579.87C1582.24 248.551 1584.17 250.591 1584.18 253.133C1584.2 255.683 1582.28 257.762 1579.9 257.777L1514.94 258.249H1514.86L1514.85 258.241Z" fill="#f2f2f2"/>
<path d="M1734.86 193.511C1732.48 193.511 1730.54 191.448 1730.54 188.898V156.266C1730.54 152.55 1731.88 149.049 1734.31 146.391L1746.45 133.085C1747.29 132.158 1747.75 130.944 1747.75 129.662V32.3616C1747.75 29.8194 1749.68 27.7485 1752.07 27.7485C1754.45 27.7485 1756.38 29.8194 1756.38 32.3616V129.669C1756.38 133.379 1755.04 136.887 1752.62 139.537L1740.47 152.843C1739.64 153.763 1739.17 154.976 1739.17 156.266V188.898C1739.17 191.44 1737.23 193.511 1734.86 193.511Z" fill="#f2f2f2"/>
<path d="M1648.79 220.935C1646.42 220.935 1644.48 218.871 1644.48 216.321V174.464C1644.48 173.173 1644.01 171.952 1643.17 171.025L1631.07 157.881C1628.62 155.223 1627.27 151.699 1627.27 147.975V109.772C1627.27 106.001 1628.64 102.454 1631.14 99.7808L1643.14 86.9383C1643.99 86.0265 1644.48 84.7669 1644.48 83.4765V13.94C1644.48 11.39 1646.4 9.3269 1648.79 9.3269C1651.17 9.3269 1653.1 11.39 1653.1 13.94V83.4688C1653.1 87.2396 1651.73 90.7864 1649.24 93.4522L1637.23 106.295C1636.36 107.222 1635.89 108.451 1635.89 109.764V147.967C1635.89 149.258 1636.36 150.479 1637.2 151.406L1649.31 164.55C1651.76 167.208 1653.11 170.731 1653.11 174.456V216.314C1653.11 218.864 1651.18 220.927 1648.79 220.927" fill="#f2f2f2"/>
<path d="M1666.01 220.935C1663.63 220.935 1661.7 218.872 1661.7 216.322V183.435C1661.7 179.664 1663.07 176.117 1665.57 173.444L1677.57 160.601C1678.44 159.682 1678.91 158.445 1678.91 157.147L1679 54.5386C1679 50.76 1680.38 47.2055 1682.88 44.5396L1697.39 29.1008L1711.99 13.4765C1714.48 10.8107 1717.8 9.34253 1721.32 9.34253H1752.15C1754.53 9.34253 1756.46 11.4057 1756.46 13.9556C1756.46 16.5056 1754.54 18.5687 1752.15 18.5687H1721.32C1720.1 18.5687 1718.95 19.0787 1718.08 20.006L1703.47 35.638L1688.96 51.0845C1688.09 52.0118 1687.61 53.2404 1687.61 54.554L1687.53 157.163C1687.53 160.926 1686.16 164.473 1683.66 167.131L1671.66 179.981C1670.79 180.908 1670.32 182.137 1670.32 183.443V216.329C1670.32 218.879 1668.39 220.942 1666 220.942" fill="#f2f2f2"/>
<path d="M1455.82 55.1953H1442.25C1439.87 55.1953 1437.94 53.1321 1437.94 50.5822C1437.94 48.0322 1439.87 45.9691 1442.25 45.9691H1455.82C1457.03 45.9691 1458.17 45.4668 1459.04 44.5627L1471.08 31.867C1471.95 30.9552 1472.45 29.6803 1472.45 28.3744V4.75251C1472.45 2.21028 1474.38 0.139404 1476.76 0.139404C1479.14 0.139404 1481.07 2.20255 1481.07 4.75251V28.3821C1481.07 32.1375 1479.63 35.8079 1477.13 38.4428L1465.08 51.1385C1462.6 53.758 1459.31 55.203 1455.82 55.203" fill="#f2f2f2"/>
<path d="M1588.65 36.9747H1566.51C1562.99 36.9747 1559.67 35.5065 1557.18 32.8407L1545.17 20.0059C1544.31 19.0786 1543.16 18.5764 1541.94 18.5764L1493.94 18.5609C1491.56 18.5609 1489.63 16.4978 1489.63 13.9478C1489.63 11.3979 1491.56 9.33472 1493.94 9.33472L1541.94 9.35017C1545.46 9.35017 1548.78 10.8183 1551.27 13.4842L1563.27 26.319C1564.14 27.2462 1565.29 27.7485 1566.51 27.7485H1588.65C1591.03 27.7485 1592.97 29.8194 1592.97 32.3616C1592.97 34.9038 1591.03 36.9747 1588.65 36.9747Z" fill="#f2f2f2"/>
<path d="M1356.27 18.5687H1339.06C1336.68 18.5687 1334.75 16.5056 1334.75 13.9556C1334.75 11.4057 1336.68 9.34253 1339.06 9.34253H1356.27C1358.66 9.34253 1360.59 11.4057 1360.59 13.9556C1360.59 16.5056 1358.66 18.5687 1356.27 18.5687Z" fill="#f2f2f2"/>
<path d="M1734.86 128.858C1732.48 128.858 1730.54 126.795 1730.54 124.245V100.94C1730.54 99.6493 1730.08 98.4284 1729.24 97.5089L1717.12 84.3187C1714.68 81.6606 1713.33 78.1447 1713.33 74.4202V41.5799C1713.33 39.0377 1715.26 36.9668 1717.64 36.9668C1720.03 36.9668 1721.96 39.0299 1721.96 41.5799V74.4202C1721.96 75.7107 1722.42 76.9316 1723.27 77.8511L1735.38 91.049C1737.82 93.7072 1739.17 97.223 1739.17 100.948V124.253C1739.17 126.802 1737.23 128.866 1734.86 128.866" fill="#f2f2f2"/>
<path d="M1734.86 73.609C1732.48 73.609 1730.54 71.5459 1730.54 68.9959V32.3538C1730.54 29.8116 1732.48 27.7407 1734.86 27.7407C1737.23 27.7407 1739.17 29.8116 1739.17 32.3538V68.9959C1739.17 71.5381 1737.23 73.609 1734.86 73.609Z" fill="#f2f2f2"/>
<path d="M1614.37 138.061C1612 138.061 1610.06 135.998 1610.06 133.448V100.492C1610.06 96.7825 1611.39 93.2821 1613.81 90.6317L1625.97 77.2947C1626.81 76.3751 1627.27 75.162 1627.27 73.8715V27.076C1627.27 25.7701 1626.79 24.5415 1625.94 23.622L1611.4 8.00541C1609.72 6.19726 1609.73 3.28413 1611.42 1.48371C1613.1 -0.308986 1615.83 -0.308986 1617.51 1.49916L1632.05 17.1234C1634.53 19.7893 1635.89 23.3283 1635.89 27.0837V73.8793C1635.89 77.5883 1634.57 81.0887 1632.15 83.7391L1619.99 97.0761C1619.15 97.9957 1618.69 99.2088 1618.69 100.499V133.456C1618.69 136.005 1616.76 138.069 1614.38 138.069" fill="#f2f2f2"/>
<path d="M1579.95 239.348C1577.57 239.348 1575.64 237.278 1575.65 234.728L1575.69 146.6C1575.69 145.309 1575.2 144.042 1574.34 143.13L1562.31 130.288C1559.84 127.66 1558.43 124.013 1558.43 120.289V72.9291C1558.43 69.1583 1559.8 65.6115 1562.29 62.9379L1574.3 50.0954C1576.79 47.4296 1580.1 45.9614 1583.63 45.9614H1597.25C1599.62 45.9614 1601.56 48.0246 1601.56 50.5745C1601.56 53.1245 1599.62 55.1876 1597.25 55.1876H1583.63C1582.4 55.1876 1581.25 55.6976 1580.39 56.6171L1568.39 69.4597C1567.52 70.3869 1567.05 71.6155 1567.05 72.9214V120.281C1567.05 121.571 1567.54 122.839 1568.4 123.751L1580.43 136.593C1582.9 139.228 1584.31 142.875 1584.31 146.6L1584.26 234.728C1584.26 237.27 1582.33 239.341 1579.95 239.341" fill="#f2f2f2"/>
<path d="M1648.79 147.272C1646.42 147.272 1644.48 145.201 1644.48 142.659V119.415C1644.48 115.652 1645.85 112.113 1648.34 109.44L1660.36 96.5586C1661.22 95.6313 1661.69 94.4104 1661.69 93.0968V13.94C1661.69 11.39 1663.62 9.3269 1666 9.3269C1668.39 9.3269 1670.32 11.39 1670.32 13.94V93.0968C1670.32 96.8599 1668.94 100.407 1666.46 103.073L1654.44 115.954C1653.58 116.881 1653.11 118.11 1653.11 119.408V142.651C1653.11 145.193 1651.18 147.264 1648.79 147.264" fill="#f2f2f2"/>
<path d="M1442.34 92.2159C1439.97 92.2159 1438.04 90.1682 1438.02 87.6337C1438.01 85.0838 1439.93 83.0052 1442.32 82.9897L1471.44 82.8197C1472.61 82.8197 1473.72 82.3329 1474.57 81.4675L1505.56 49.8635C1508.02 47.3522 1511.26 45.969 1514.67 45.969H1554.23C1556.61 45.969 1558.54 48.0321 1558.54 50.5821C1558.54 53.1321 1556.61 55.1952 1554.23 55.1952H1514.67C1513.49 55.1952 1512.36 55.6743 1511.51 56.5474L1480.52 88.1514C1478.07 90.6396 1474.87 92.0305 1471.49 92.0459L1442.37 92.2159H1442.35H1442.34Z" fill="#f2f2f2"/>
<path d="M1464.49 73.8022H1442.26C1439.87 73.8022 1437.95 71.739 1437.95 69.1891C1437.95 66.6391 1439.87 64.576 1442.26 64.576H1464.49C1465.71 64.576 1466.86 64.066 1467.72 63.1387L1496.95 31.8825C1499.44 29.2166 1502.75 27.7407 1506.28 27.7407H1537.02C1539.41 27.7407 1541.33 29.8116 1541.33 32.3538C1541.33 34.8961 1539.41 36.9669 1537.02 36.9669H1506.28C1505.08 36.9669 1503.9 37.4846 1503.05 38.4042L1473.83 69.6604C1471.34 72.3263 1468.03 73.8022 1464.5 73.8022" fill="#f2f2f2"/>
<path d="M1390.64 147.272C1388.26 147.272 1386.33 145.201 1386.33 142.659V63.9345C1386.33 60.2023 1387.74 56.5551 1390.21 53.9278L1402.18 41.1781C1403.05 40.2585 1403.52 39.0299 1403.53 37.724L1403.6 4.74462C1403.6 2.20239 1405.54 0.146973 1407.91 0.146973H1407.93C1410.31 0.146973 1412.23 2.21785 1412.23 4.7678L1412.15 37.7472C1412.14 41.5181 1410.77 45.0648 1408.27 47.723L1396.3 60.4727C1395.43 61.4 1394.95 62.6286 1394.95 63.9422V142.666C1394.95 145.209 1393.02 147.279 1390.64 147.279" fill="#f2f2f2"/>
<path d="M1459.47 27.7794H1459.45C1457.06 27.7639 1455.14 25.693 1455.16 23.1431L1455.24 4.72932C1455.25 2.19482 1457.17 0.139404 1459.55 0.139404H1459.57C1461.95 0.154859 1463.87 2.22573 1463.86 4.77569L1463.78 23.1895C1463.77 25.724 1461.84 27.7794 1459.47 27.7794Z" fill="#f2f2f2"/>
<path d="M1614.37 73.6089C1612 73.6089 1610.06 71.5458 1610.06 68.9958V36.2946C1610.06 34.9887 1609.58 33.7524 1608.72 32.8328L1596.71 19.9904C1595.86 19.0786 1594.68 18.5531 1593.48 18.5531H1571.44C1569.06 18.5531 1567.12 16.49 1567.12 13.94C1567.12 11.39 1569.05 9.3269 1571.44 9.3269H1593.48C1597.01 9.3269 1600.32 10.7951 1602.82 13.4609L1614.82 26.3034C1617.31 28.9693 1618.68 32.516 1618.68 36.2869V68.9881C1618.68 71.5303 1616.76 73.6012 1614.37 73.6012" fill="#f2f2f2"/>
<path d="M1352.58 129.043H1342.68C1339.18 129.043 1335.76 127.521 1333.3 124.855L1321.28 111.858C1318.81 109.185 1317.45 105.646 1317.46 101.89L1317.53 69.1736C1317.53 66.6313 1319.46 64.5759 1321.84 64.5759H1321.85C1324.24 64.5759 1326.16 66.6468 1326.16 69.1967L1326.09 101.913C1326.09 103.219 1326.55 104.44 1327.41 105.367L1339.43 118.364C1340.29 119.284 1341.47 119.817 1342.68 119.817H1352.58C1353.78 119.817 1354.97 119.292 1355.82 118.372L1367.76 105.537C1368.62 104.618 1369.09 103.382 1369.09 102.083V54.7161C1369.09 50.9839 1370.5 47.3367 1372.97 44.7094L1385.03 31.8747C1385.89 30.9629 1386.39 29.6956 1386.39 28.4052V4.74469C1386.39 2.20246 1388.31 0.131592 1390.7 0.131592C1393.08 0.131592 1395.01 2.19474 1395.01 4.74469V28.4052C1395.01 32.1374 1393.59 35.7846 1391.12 38.4196L1379.06 51.2543C1378.2 52.1661 1377.71 53.4334 1377.71 54.7238V102.091C1377.71 105.847 1376.35 109.386 1373.87 112.051L1361.94 124.886C1359.48 127.529 1356.07 129.043 1352.58 129.043Z" fill="#f2f2f2"/>
<path d="M1786.61 55.3884C1784.23 55.3884 1782.3 53.3252 1782.3 50.7752V36.2869C1782.3 32.5238 1783.66 28.9847 1786.15 26.3189L1798.12 13.4764C1800.62 10.8028 1803.94 9.32689 1807.47 9.32689H1851.7C1855.18 9.32689 1858.59 10.8414 1861.04 13.4764L1873 26.3034C1873.85 27.2152 1875.03 27.7407 1876.24 27.7407H1886.16C1887.37 27.7407 1888.55 27.2229 1889.4 26.3111L1901.4 13.4686C1902.27 12.5491 1902.74 11.3128 1902.74 10.0069V4.74469C1902.74 2.20246 1904.67 0.131592 1907.05 0.131592C1909.43 0.131592 1911.36 2.19474 1911.36 4.74469V9.99915C1911.36 13.77 1909.99 17.3167 1907.5 19.9826L1895.49 32.8251C1893 35.491 1889.69 36.9591 1886.16 36.9591H1876.23C1872.75 36.9591 1869.34 35.4446 1866.89 32.8097L1854.93 19.9826C1854.08 19.0631 1852.9 18.5376 1851.69 18.5376H1807.46C1806.23 18.5376 1805.08 19.0476 1804.22 19.9826L1792.25 32.8174C1791.39 33.7369 1790.91 34.9655 1790.91 36.2714V50.7598C1790.91 53.302 1788.99 55.3729 1786.6 55.3729" fill="#f2f2f2"/>
<path d="M1907.06 73.8025H1859.11C1855.58 73.8025 1852.27 72.3343 1849.77 69.6607L1837.77 56.8182C1836.9 55.891 1835.75 55.381 1834.53 55.381H1803.79C1801.41 55.381 1799.47 53.3178 1799.47 50.7679C1799.47 48.2179 1801.4 46.1548 1803.79 46.1548H1834.53C1838.06 46.1548 1841.37 47.6229 1843.86 50.2888L1855.87 63.1313C1856.73 64.0508 1857.88 64.5685 1859.11 64.5685H1907.06C1909.44 64.5685 1911.38 66.6317 1911.38 69.1817C1911.38 71.7316 1909.45 73.7948 1907.06 73.7948" fill="#f2f2f2"/>
<path d="M1442.34 36.9746C1439.95 36.9746 1438.02 34.9114 1438.02 32.3615V4.74469C1438.02 2.20246 1439.95 0.131592 1442.34 0.131592C1444.72 0.131592 1446.65 2.19474 1446.65 4.74469V32.3538C1446.65 34.9037 1444.71 36.9669 1442.34 36.9669" fill="#f2f2f2"/>
<path d="M1339.06 101.442C1336.69 101.442 1334.75 99.3791 1334.75 96.8369L1334.67 32.3694C1334.67 29.8271 1336.6 27.7563 1338.98 27.7485H1338.99C1341.36 27.7485 1343.29 29.8117 1343.3 32.3539L1343.38 96.8214C1343.38 99.3636 1341.45 101.435 1339.07 101.442H1339.06Z" fill="#f2f2f2"/>
<path d="M1683.3 27.7796C1682.2 27.7796 1681.09 27.3314 1680.25 26.4273C1678.57 24.6269 1678.57 21.706 1680.25 19.9056L1697.47 1.49185C1699.15 -0.316295 1701.88 -0.316295 1703.56 1.49185C1705.24 3.29228 1705.24 6.21314 1703.56 8.01356L1686.35 26.4273C1685.51 27.3314 1684.4 27.7796 1683.3 27.7796Z" fill="#f2f2f2"/>
<path d="M1287.55 101.442C1285.17 101.442 1283.24 99.3714 1283.24 96.8292V54.7085C1283.24 50.9532 1284.6 47.4296 1287.07 44.7637L1299 31.898C1299.85 30.9785 1300.32 29.7499 1300.32 28.444V13.9556C1300.32 11.4057 1302.25 9.34253 1304.64 9.34253C1307.02 9.34253 1308.95 11.4057 1308.95 13.9556V28.4363C1308.95 32.1917 1307.59 35.7152 1305.12 38.3811L1293.2 51.2468C1292.34 52.174 1291.87 53.3949 1291.87 54.6931V96.8137C1291.87 99.3559 1289.93 101.427 1287.55 101.427" fill="#f2f2f2"/>
<path d="M1769.28 64.4057C1766.9 64.4057 1764.97 62.3348 1764.98 59.7849L1765.06 4.60537C1765.06 2.06315 1767 0 1769.37 0H1769.38C1771.75 0 1773.68 2.07087 1773.68 4.62083L1773.6 59.8003C1773.6 62.3425 1771.67 64.4057 1769.29 64.4057" fill="#f2f2f2"/>
</g>
<defs>
<clipPath id="clip0_23_542">
<rect width="1920" height="53" fill="white"/>
</clipPath>
</defs>
</svg>
