<svg width="1920" height="139" viewBox="0 0 1920 139" fill="none" xmlns="http://www.w3.org/2000/svg">
<path d="M1920 66.6003V89.8208H141.787C132.3 89.8208 123.37 86.1244 116.66 79.4137L64.0871 26.8202C61.7555 24.4882 58.5309 23.1733 55.2319 23.2106L-1 23.868V0.647411L54.959 0.00239509C64.4715 -0.109242 73.7732 3.68643 80.4953 10.4095L133.081 62.9906C135.375 65.2854 138.55 66.6003 141.787 66.6003H1920Z" fill="#FDB515"/>
<path d="M1920.5 115.721V138.929H125.453C115.953 138.929 107.036 135.232 100.326 128.522L48.8571 77.057C46.5503 74.7374 43.3505 73.4225 40.0887 73.4474L-1 73.6582V50.4377L39.9647 50.2268C49.3904 50.1772 58.6177 53.9728 65.2777 60.6339L116.735 112.099C119.066 114.431 122.167 115.721 125.453 115.721H1920.5Z" fill="#49C7ED"/>
</svg>
