<svg width="1920" height="53" viewBox="0 0 1920 53" fill="none" xmlns="http://www.w3.org/2000/svg">
<g clip-path="url(#clip0_25_4)">
<path d="M1838.46 -48.4422C1840.83 -48.4422 1842.77 -46.3713 1842.77 -43.8291V7.46367C1842.77 11.1959 1841.35 14.8431 1838.88 17.478L1826.83 30.3205C1825.97 31.2323 1825.48 32.4996 1825.48 33.79V48.2475C1825.48 50.7897 1823.55 52.8606 1821.17 52.8606C1818.79 52.8606 1816.86 50.7974 1816.86 48.2475V33.79C1816.86 30.0578 1818.27 26.4106 1820.75 23.7757L1832.8 10.9332C1833.66 10.0213 1834.15 8.7541 1834.15 7.46367V-43.8291C1834.15 -46.3713 1836.08 -48.4422 1838.47 -48.4422" fill="#008BCD"/>
<path d="M1299.84 -2.36533H1299.9L1327 -2.21078C1330.47 -2.1876 1333.73 -0.742623 1336.2 1.85369L1348.3 14.6189C1349.16 15.5307 1350.3 16.0253 1351.52 16.0253L1382.33 16.0253C1384.71 16.0253 1386.64 18.0884 1386.64 20.6384C1386.64 23.1883 1384.71 25.2515 1382.33 25.2515L1351.52 25.2515C1348.02 25.2515 1344.73 23.8065 1342.24 21.187L1330.14 8.42176C1329.28 7.52541 1328.15 7.02315 1326.95 7.01542L1299.86 6.86088H1299.84C1298.63 6.86088 1297.46 7.38633 1296.6 8.2904L1282.01 23.8992C1280.33 25.6996 1277.6 25.6996 1275.92 23.8992C1274.24 22.0988 1274.24 19.1779 1275.92 17.3775L1290.51 1.7687C1292.97 -0.858531 1296.37 -2.36533 1299.85 -2.36533" fill="#008BCD"/>
<path d="M1838.46 -94.465H1838.49L1860.62 -94.3027C1864.05 -94.2795 1867.3 -92.85 1869.76 -90.2768L1875.79 -83.9638L1890.45 -68.3009C1892.95 -65.635 1894.32 -62.0882 1894.32 -58.3097V-10.9501C1894.32 -7.17148 1892.95 -3.62472 1890.45 -0.95886L1878.43 11.8836C1877.58 12.7954 1877.08 14.0627 1877.09 15.3531L1877.11 39.0291C1877.11 41.5713 1875.18 43.6422 1872.81 43.6499C1870.43 43.6499 1868.5 41.5868 1868.5 39.0445L1868.47 15.3686C1868.47 11.6441 1869.88 7.99689 1872.35 5.36194L1884.36 -7.48056C1885.23 -8.40009 1885.71 -9.63644 1885.71 -10.9423V-58.3019C1885.71 -59.6156 1885.23 -60.8442 1884.36 -61.7714L1869.74 -77.4034L1863.74 -83.6856C1862.88 -84.5742 1861.76 -85.0688 1860.57 -85.0842L1838.44 -85.2465C1836.05 -85.2619 1834.14 -87.3405 1834.15 -89.8905C1834.18 -92.425 1836.1 -94.4727 1838.47 -94.4727" fill="#008BCD"/>
<path d="M1915.68 16.0254C1916.79 16.0254 1917.89 16.4736 1918.73 17.3777C1920.41 19.1781 1920.41 22.0989 1918.73 23.8994L1912.74 30.3129C1911.87 31.2402 1911.4 32.4688 1911.4 33.7747V48.2553C1911.4 50.7975 1909.48 52.8684 1907.09 52.8684C1904.71 52.8684 1902.78 50.8053 1902.78 48.2553V33.7747C1902.78 30.0038 1904.15 26.4571 1906.65 23.7912L1912.63 17.3854C1913.47 16.4813 1914.58 16.0331 1915.68 16.0331" fill="#008BCD"/>
<path d="M1679.8 -205.241C1683.29 -205.241 1686.7 -203.727 1689.16 -201.084L1770.08 -114.123C1772.56 -111.457 1773.93 -107.91 1773.92 -104.147L1773.84 48.2477C1773.84 50.7899 1771.91 52.853 1769.53 52.853C1767.15 52.853 1765.22 50.7899 1765.22 48.2399L1765.3 -104.155C1765.3 -105.461 1764.83 -106.689 1763.97 -107.609L1683.04 -194.578C1682.19 -195.497 1681 -196.023 1679.8 -196.023H1679.76L1614.8 -195.551H1614.78C1612.41 -195.551 1610.48 -197.591 1610.46 -200.133C1610.45 -202.683 1612.36 -204.762 1614.75 -204.777L1679.7 -205.249H1679.79L1679.8 -205.241Z" fill="#008BCD"/>
<path d="M1459.79 -140.511C1462.17 -140.511 1464.1 -138.448 1464.1 -135.898V-103.266C1464.1 -99.5495 1462.77 -96.0492 1460.34 -93.391L1448.19 -80.0849C1447.35 -79.1576 1446.89 -77.9445 1446.89 -76.6618V20.6384C1446.89 23.1806 1444.96 25.2515 1442.58 25.2515C1440.2 25.2515 1438.27 23.1806 1438.27 20.6384V-76.6695C1438.27 -80.3785 1439.61 -83.8866 1442.02 -86.537L1454.17 -99.8432C1455.01 -100.763 1455.48 -101.976 1455.48 -103.266V-135.898C1455.48 -138.44 1457.42 -140.511 1459.79 -140.511Z" fill="#008BCD"/>
<path d="M1545.85 -167.935C1548.23 -167.935 1550.17 -165.871 1550.17 -163.321V-121.464C1550.17 -120.173 1550.63 -118.952 1551.48 -118.025L1563.58 -104.881C1566.03 -102.223 1567.38 -98.6994 1567.38 -94.9749V-56.7719C1567.38 -53.0011 1566 -49.4543 1563.51 -46.7808L1551.51 -33.9383C1550.66 -33.0265 1550.17 -31.7669 1550.17 -30.4765V39.06C1550.17 41.61 1548.24 43.6731 1545.86 43.6731C1543.48 43.6731 1541.55 41.61 1541.55 39.06V-30.4688C1541.55 -34.2396 1542.92 -37.7864 1545.41 -40.4522L1557.42 -53.2947C1558.28 -54.222 1558.76 -55.4506 1558.76 -56.7642V-94.9672C1558.76 -96.2576 1558.29 -97.4785 1557.45 -98.4058L1545.34 -111.55C1542.89 -114.208 1541.54 -117.731 1541.54 -121.456V-163.314C1541.54 -165.864 1543.47 -167.927 1545.85 -167.927" fill="#008BCD"/>
<path d="M1528.64 -167.935C1531.02 -167.935 1532.95 -165.872 1532.95 -163.322V-130.435C1532.95 -126.664 1531.58 -123.117 1529.08 -120.444L1517.07 -107.601C1516.21 -106.682 1515.74 -105.445 1515.74 -104.147L1515.65 -1.53856C1515.65 2.24001 1514.27 5.7945 1511.76 8.46036L1497.26 23.8992L1482.66 39.5235C1480.17 42.1893 1476.85 43.6575 1473.33 43.6575L1442.49 43.6575C1440.12 43.6575 1438.18 41.5943 1438.18 39.0444C1438.18 36.4944 1440.11 34.4313 1442.49 34.4313L1473.33 34.4313C1474.55 34.4313 1475.7 33.9213 1476.56 32.994L1491.17 17.362L1505.68 1.91548C1506.56 0.988222 1507.03 -0.240397 1507.03 -1.55401L1507.12 -104.163C1507.12 -107.926 1508.49 -111.473 1510.98 -114.131L1522.99 -126.981C1523.85 -127.908 1524.33 -129.137 1524.33 -130.443V-163.329C1524.33 -165.879 1526.26 -167.942 1528.64 -167.942" fill="#008BCD"/>
<path d="M1738.83 -2.19526H1752.4C1754.78 -2.19526 1756.71 -0.13211 1756.71 2.41784C1756.71 4.9678 1754.78 7.03095 1752.4 7.03095H1738.83C1737.62 7.03095 1736.48 7.53321 1735.61 8.43729L1723.57 21.133C1722.7 22.0448 1722.2 23.3197 1722.2 24.6256V48.2475C1722.2 50.7897 1720.27 52.8606 1717.89 52.8606C1715.51 52.8606 1713.58 50.7974 1713.58 48.2475V24.6179C1713.58 20.8625 1715.02 17.1921 1717.51 14.5572L1729.57 1.86149C1732.05 -0.758009 1735.34 -2.20298 1738.83 -2.20298" fill="#008BCD"/>
<path d="M1605.99 16.0253H1628.14C1631.66 16.0253 1634.98 17.4935 1637.47 20.1593L1649.47 32.9941C1650.34 33.9214 1651.49 34.4236 1652.71 34.4236L1700.71 34.4391C1703.09 34.4391 1705.02 36.5022 1705.02 39.0522C1705.02 41.6021 1703.09 43.6653 1700.71 43.6653L1652.71 43.6498C1649.18 43.6498 1645.87 42.1817 1643.38 39.5158L1631.37 26.681C1630.51 25.7538 1629.36 25.2515 1628.14 25.2515H1605.99C1603.62 25.2515 1601.68 23.1806 1601.68 20.6384C1601.68 18.0962 1603.62 16.0253 1605.99 16.0253Z" fill="#008BCD"/>
<path d="M1838.37 34.4313H1855.58C1857.97 34.4313 1859.89 36.4944 1859.89 39.0444C1859.89 41.5943 1857.97 43.6575 1855.58 43.6575H1838.37C1835.99 43.6575 1834.06 41.5943 1834.06 39.0444C1834.06 36.4944 1835.99 34.4313 1838.37 34.4313Z" fill="#008BCD"/>
<path d="M1459.79 -75.8579C1462.17 -75.8579 1464.1 -73.7948 1464.1 -71.2448V-47.9398C1464.1 -46.6493 1464.57 -45.4284 1465.41 -44.5089L1477.53 -31.3187C1479.97 -28.6606 1481.31 -25.1447 1481.31 -21.4202V11.4201C1481.31 13.9623 1479.39 16.0332 1477 16.0332C1474.62 16.0332 1472.69 13.9701 1472.69 11.4201V-21.4202C1472.69 -22.7107 1472.23 -23.9316 1471.38 -24.8511L1459.26 -38.049C1456.82 -40.7072 1455.48 -44.223 1455.48 -47.9475V-71.2525C1455.48 -73.8025 1457.42 -75.8656 1459.79 -75.8656" fill="#008BCD"/>
<path d="M1459.79 -20.609C1462.17 -20.609 1464.1 -18.5459 1464.1 -15.9959V20.6462C1464.1 23.1884 1462.17 25.2593 1459.79 25.2593C1457.42 25.2593 1455.48 23.1884 1455.48 20.6462V-15.9959C1455.48 -18.5381 1457.42 -20.609 1459.79 -20.609Z" fill="#008BCD"/>
<path d="M1580.28 -85.0609C1582.65 -85.0609 1584.59 -82.9977 1584.59 -80.4478V-47.4915C1584.59 -43.7825 1583.26 -40.2821 1580.84 -37.6317L1568.68 -24.2947C1567.84 -23.3751 1567.38 -22.162 1567.38 -20.8715V25.924C1567.38 27.2299 1567.85 28.4585 1568.7 29.378L1583.24 44.9946C1584.93 46.8027 1584.92 49.7159 1583.23 51.5163C1581.55 53.309 1578.82 53.309 1577.13 51.5008L1562.59 35.8766C1560.12 33.2107 1558.75 29.6717 1558.75 25.9163V-20.8793C1558.75 -24.5883 1560.08 -28.0887 1562.5 -30.7391L1574.66 -44.0761C1575.49 -44.9957 1575.96 -46.2088 1575.96 -47.4992V-80.4555C1575.96 -83.0055 1577.88 -85.0686 1580.27 -85.0686" fill="#008BCD"/>
<path d="M1614.7 -186.348C1617.07 -186.348 1619.01 -184.278 1619 -181.728L1618.96 -93.5997C1618.96 -92.3092 1619.45 -91.042 1620.31 -90.1302L1632.34 -77.2877C1634.81 -74.6604 1636.22 -71.0132 1636.22 -67.2888V-19.9291C1636.22 -16.1583 1634.85 -12.6115 1632.35 -9.93794L1620.35 2.90456C1617.86 5.57042 1614.54 7.03857 1611.02 7.03857L1597.4 7.03857C1595.02 7.03857 1593.09 4.97543 1593.09 2.42548C1593.09 -0.12448 1595.02 -2.18763 1597.4 -2.18763L1611.02 -2.18763C1612.25 -2.18763 1613.4 -2.69762 1614.26 -3.61715L1626.26 -16.4596C1627.13 -17.3869 1627.6 -18.6155 1627.6 -19.9214V-67.281C1627.6 -68.5715 1627.1 -69.8387 1626.25 -70.7505L1614.22 -83.593C1611.75 -86.228 1610.33 -89.8752 1610.34 -93.5997L1610.38 -181.728C1610.38 -184.27 1612.32 -186.341 1614.7 -186.341" fill="#008BCD"/>
<path d="M1545.85 -94.2718C1548.23 -94.2718 1550.17 -92.2009 1550.17 -89.6587V-66.4154C1550.17 -62.6523 1548.79 -59.1133 1546.31 -56.4397L1534.29 -43.5586C1533.43 -42.6313 1532.95 -41.4104 1532.95 -40.0968V39.06C1532.95 41.61 1531.03 43.6731 1528.64 43.6731C1526.26 43.6731 1524.33 41.61 1524.33 39.06V-40.0968C1524.33 -43.8599 1525.7 -47.4067 1528.19 -50.0725L1540.21 -62.9537C1541.06 -63.8809 1541.54 -65.1095 1541.54 -66.4077V-89.6509C1541.54 -92.1932 1543.47 -94.264 1545.85 -94.264" fill="#008BCD"/>
<path d="M1752.31 -39.2159C1754.68 -39.2159 1756.61 -37.1682 1756.62 -34.6337C1756.64 -32.0838 1754.72 -30.0052 1752.33 -29.9897L1723.21 -29.8197C1722.04 -29.8197 1720.93 -29.3329 1720.08 -28.4675L1689.09 3.13653C1686.62 5.64785 1683.39 7.03101 1679.98 7.03101L1640.42 7.03101C1638.04 7.03101 1636.1 4.96786 1636.1 2.4179C1636.1 -0.132051 1638.04 -2.1952 1640.42 -2.1952L1679.98 -2.1952C1681.16 -2.1952 1682.28 -2.67428 1683.14 -3.54745L1714.13 -35.1514C1716.58 -37.6396 1719.78 -39.0305 1723.16 -39.0459L1752.28 -39.2159H1752.3H1752.31Z" fill="#008BCD"/>
<path d="M1730.16 -20.8022H1752.39C1754.77 -20.8022 1756.7 -18.739 1756.7 -16.1891C1756.7 -13.6391 1754.77 -11.576 1752.39 -11.576H1730.16C1728.94 -11.576 1727.79 -11.066 1726.92 -10.1387L1697.7 21.1175C1695.21 23.7834 1691.9 25.2593 1688.36 25.2593L1657.63 25.2593C1655.24 25.2593 1653.31 23.1884 1653.31 20.6462C1653.31 18.1039 1655.24 16.0331 1657.63 16.0331L1688.36 16.0331C1689.57 16.0331 1690.75 15.5154 1691.6 14.5958L1720.81 -16.6604C1723.31 -19.3263 1726.62 -20.8022 1730.15 -20.8022" fill="#008BCD"/>
<path d="M1804.01 -94.2717C1806.39 -94.2717 1808.32 -92.2008 1808.32 -89.6586V-10.9345C1808.32 -7.20228 1806.9 -3.55507 1804.43 -0.927842L1792.47 11.8219C1791.6 12.7415 1791.12 13.9701 1791.12 15.276L1791.04 48.2554C1791.04 50.7976 1789.11 52.853 1786.73 52.853H1786.72C1784.34 52.853 1782.41 50.7822 1782.42 48.2322L1782.49 15.2528C1782.51 11.4819 1783.88 7.93518 1786.38 5.27705L1798.35 -7.47273C1799.21 -8.39999 1799.7 -9.6286 1799.7 -10.9422V-89.6663C1799.7 -92.2085 1801.63 -94.2794 1804.01 -94.2794" fill="#008BCD"/>
<path d="M1735.18 25.2206H1735.2C1737.58 25.2361 1739.51 27.307 1739.49 29.8569L1739.41 48.2707C1739.4 50.8052 1737.48 52.8606 1735.1 52.8606H1735.08C1732.69 52.8451 1730.77 50.7743 1730.79 48.2243L1730.87 29.8105C1730.88 27.276 1732.81 25.2206 1735.18 25.2206Z" fill="#008BCD"/>
<path d="M1580.27 -20.6089C1582.65 -20.6089 1584.59 -18.5458 1584.59 -15.9958V16.7054C1584.59 18.0113 1585.06 19.2476 1585.93 20.1671L1597.93 33.0096C1598.79 33.9214 1599.96 34.4469 1601.17 34.4469H1623.21C1625.59 34.4469 1627.52 36.51 1627.52 39.06C1627.52 41.61 1625.6 43.6731 1623.21 43.6731H1601.17C1597.64 43.6731 1594.33 42.2049 1591.83 39.5391L1579.83 26.6966C1577.34 24.0307 1575.96 20.484 1575.96 16.7131V-15.9881C1575.96 -18.5303 1577.89 -20.6012 1580.27 -20.6012" fill="#008BCD"/>
<path d="M1842.07 -76.0434H1851.96C1855.47 -76.0434 1858.88 -74.5211 1861.35 -71.8553L1873.37 -58.8582C1875.84 -56.1847 1877.2 -52.6456 1877.19 -48.8902L1877.12 -16.1736C1877.12 -13.6313 1875.18 -11.5759 1872.81 -11.5759H1872.79C1870.41 -11.5759 1868.49 -13.6468 1868.49 -16.1967L1868.56 -48.9134C1868.56 -50.2193 1868.1 -51.4402 1867.24 -52.3674L1855.21 -65.3645C1854.36 -66.284 1853.18 -66.8172 1851.96 -66.8172H1842.07C1840.86 -66.8172 1839.68 -66.2917 1838.83 -65.3722L1826.89 -52.5374C1826.03 -51.6179 1825.56 -50.3816 1825.56 -49.0834V-1.71608C1825.56 2.01613 1824.14 5.66334 1821.67 8.29056L1809.61 21.1253C1808.75 22.0371 1808.26 23.3044 1808.26 24.5948V48.2553C1808.26 50.7975 1806.33 52.8684 1803.95 52.8684C1801.57 52.8684 1799.64 50.8053 1799.64 48.2553V24.5948C1799.64 20.8626 1801.05 17.2154 1803.53 14.5804L1815.59 1.74568C1816.45 0.833877 1816.94 -0.433377 1816.94 -1.72381V-49.0911C1816.94 -52.8465 1818.3 -56.3856 1820.78 -59.0514L1832.71 -71.8862C1835.17 -74.5289 1838.58 -76.0434 1842.07 -76.0434Z" fill="#008BCD"/>
<path d="M1408.04 -2.38835C1410.41 -2.38835 1412.35 -0.325205 1412.35 2.22475V16.7131C1412.35 20.4762 1410.98 24.0153 1408.5 26.6811L1396.52 39.5236C1394.03 42.1972 1390.71 43.6731 1387.18 43.6731L1342.95 43.6731C1339.47 43.6731 1336.06 42.1586 1333.6 39.5236L1321.65 26.6966C1320.8 25.7848 1319.61 25.2593 1318.41 25.2593L1308.48 25.2593C1307.28 25.2593 1306.1 25.7771 1305.25 26.6889L1293.25 39.5314C1292.38 40.4509 1291.91 41.6872 1291.91 42.9931V48.2553C1291.91 50.7975 1289.98 52.8684 1287.6 52.8684C1285.21 52.8684 1283.29 50.8053 1283.29 48.2553V43.0009C1283.29 39.23 1284.66 35.6833 1287.15 33.0174L1299.15 20.1749C1301.64 17.509 1304.96 16.0409 1308.49 16.0409H1318.41C1321.9 16.0409 1325.31 17.5554 1327.76 20.1903L1339.71 33.0174C1340.57 33.9369 1341.75 34.4624 1342.96 34.4624L1387.19 34.4624C1388.41 34.4624 1389.56 33.9524 1390.43 33.0174L1402.4 20.1826C1403.26 19.2631 1403.73 18.0345 1403.73 16.7286V2.24021C1403.73 -0.30202 1405.66 -2.37289 1408.04 -2.37289" fill="#008BCD"/>
<path d="M1287.58 -20.8025L1335.54 -20.8025C1339.07 -20.8025 1342.38 -19.3343 1344.88 -16.6607L1356.88 -3.81823C1357.75 -2.89098 1358.9 -2.38098 1360.12 -2.38098L1390.86 -2.38098C1393.24 -2.38098 1395.17 -0.317838 1395.17 2.23212C1395.17 4.78207 1393.25 6.84521 1390.86 6.84521L1360.12 6.84521C1356.59 6.84521 1353.28 5.37706 1350.79 2.7112L1338.78 -10.1313C1337.92 -11.0508 1336.77 -11.5685 1335.54 -11.5685L1287.58 -11.5685C1285.21 -11.5685 1283.27 -13.6317 1283.27 -16.1816C1283.27 -18.7316 1285.2 -20.7948 1287.58 -20.7948" fill="#008BCD"/>
<path d="M1752.31 16.0254C1754.69 16.0254 1756.62 18.0886 1756.62 20.6385V48.2553C1756.62 50.7975 1754.69 52.8684 1752.31 52.8684C1749.93 52.8684 1748 50.8053 1748 48.2553V20.6462C1748 18.0963 1749.94 16.0331 1752.31 16.0331" fill="#008BCD"/>
<path d="M1855.58 -48.4422C1857.96 -48.4422 1859.9 -46.3791 1859.9 -43.8369L1859.97 20.6306C1859.97 23.1729 1858.05 25.2437 1855.67 25.2515H1855.66C1853.29 25.2515 1851.36 23.1883 1851.35 20.6461L1851.27 -43.8214C1851.27 -46.3636 1853.2 -48.4345 1855.58 -48.4422H1855.58Z" fill="#008BCD"/>
<path d="M1511.34 25.2204C1512.44 25.2204 1513.55 25.6686 1514.39 26.5727C1516.07 28.3731 1516.07 31.294 1514.39 33.0944L1497.18 51.5081C1495.5 53.3163 1492.77 53.3163 1491.09 51.5081C1489.4 49.7077 1489.4 46.7869 1491.09 44.9864L1508.3 26.5727C1509.13 25.6686 1510.25 25.2204 1511.34 25.2204Z" fill="#008BCD"/>
<path d="M1907.09 -48.4423C1909.48 -48.4423 1911.4 -46.3714 1911.4 -43.8292V-1.70855C1911.4 2.04684 1910.05 5.57041 1907.58 8.23627L1895.65 21.102C1894.79 22.0215 1894.32 23.2501 1894.32 24.556V39.0444C1894.32 41.5943 1892.4 43.6575 1890.01 43.6575C1887.63 43.6575 1885.7 41.5943 1885.7 39.0444V24.5637C1885.7 20.8083 1887.06 17.2848 1889.53 14.6189L1901.45 1.75321C1902.3 0.82595 1902.78 -0.394937 1902.78 -1.6931V-43.8137C1902.78 -46.3559 1904.72 -48.4268 1907.09 -48.4268" fill="#008BCD"/>
<path d="M1425.36 -11.4057C1427.75 -11.4057 1429.68 -9.33481 1429.67 -6.78486L1429.59 48.3946C1429.59 50.9369 1427.65 53 1425.28 53H1425.27C1422.89 53 1420.97 50.9291 1420.97 48.3792L1421.04 -6.80031C1421.04 -9.34254 1422.98 -11.4057 1425.36 -11.4057" fill="#008BCD"/>
<path d="M1201.52 -48.4422C1203.89 -48.4422 1205.83 -46.3713 1205.83 -43.8291V7.46367C1205.83 11.1959 1204.41 14.8431 1201.94 17.478L1189.89 30.3205C1189.03 31.2323 1188.54 32.4996 1188.54 33.79V48.2475C1188.54 50.7897 1186.61 52.8606 1184.23 52.8606C1181.84 52.8606 1179.92 50.7974 1179.92 48.2475V33.79C1179.92 30.0578 1181.33 26.4106 1183.81 23.7757L1195.86 10.9332C1196.72 10.0213 1197.21 8.7541 1197.21 7.46367V-43.8291C1197.21 -46.3713 1199.14 -48.4422 1201.53 -48.4422" fill="#008BCD"/>
<path d="M662.897 -2.36533H662.962L690.061 -2.21078C693.527 -2.1876 696.792 -0.742623 699.262 1.85369L711.359 14.6189C712.219 15.5307 713.36 16.0253 714.573 16.0253L745.391 16.0253C747.767 16.0253 749.703 18.0884 749.703 20.6384C749.703 23.1883 747.767 25.2515 745.391 25.2515L714.573 25.2515C711.078 25.2515 707.791 23.8065 705.3 21.187L693.202 8.42176C692.343 7.52541 691.209 7.02315 690.01 7.01542L662.919 6.86088H662.897C661.691 6.86088 660.514 7.38633 659.662 8.2904L645.073 23.8992C643.39 25.6996 640.66 25.6996 638.977 23.8992C637.294 22.0988 637.294 19.1779 638.977 17.3775L653.566 1.7687C656.029 -0.858531 659.431 -2.36533 662.905 -2.36533" fill="#008BCD"/>
<path d="M1201.52 -94.465H1201.55L1223.68 -94.3027C1227.11 -94.2795 1230.36 -92.85 1232.82 -90.2768L1238.85 -83.9638L1253.51 -68.3009C1256.01 -65.635 1257.38 -62.0882 1257.38 -58.3097V-10.9501C1257.38 -7.17148 1256.01 -3.62472 1253.51 -0.95886L1241.49 11.8836C1240.64 12.7954 1240.14 14.0627 1240.15 15.3531L1240.17 39.0291C1240.17 41.5713 1238.24 43.6422 1235.87 43.6499C1233.49 43.6499 1231.56 41.5868 1231.56 39.0445L1231.53 15.3686C1231.53 11.6441 1232.94 7.99689 1235.41 5.36194L1247.42 -7.48056C1248.29 -8.40009 1248.77 -9.63644 1248.77 -10.9423V-58.3019C1248.77 -59.6156 1248.29 -60.8442 1247.42 -61.7714L1232.8 -77.4034L1226.8 -83.6856C1225.94 -84.5742 1224.82 -85.0688 1223.63 -85.0842L1201.5 -85.2465C1199.11 -85.2619 1197.2 -87.3405 1197.21 -89.8905C1197.24 -92.425 1199.16 -94.4727 1201.53 -94.4727" fill="#008BCD"/>
<path d="M1278.74 16.0254C1279.84 16.0254 1280.95 16.4736 1281.79 17.3777C1283.47 19.1781 1283.47 22.0989 1281.79 23.8994L1275.8 30.3129C1274.93 31.2402 1274.46 32.4688 1274.46 33.7747V48.2553C1274.46 50.7975 1272.53 52.8684 1270.15 52.8684C1267.77 52.8684 1265.84 50.8053 1265.84 48.2553V33.7747C1265.84 30.0038 1267.21 26.4571 1269.7 23.7912L1275.69 17.3854C1276.53 16.4813 1277.64 16.0331 1278.74 16.0331" fill="#008BCD"/>
<path d="M1042.86 -205.241C1046.35 -205.241 1049.75 -203.727 1052.22 -201.084L1133.14 -114.123C1135.62 -111.457 1136.99 -107.91 1136.98 -104.147L1136.9 48.2477C1136.9 50.7899 1134.97 52.853 1132.59 52.853C1130.2 52.853 1128.28 50.7899 1128.28 48.2399L1128.36 -104.155C1128.36 -105.461 1127.89 -106.689 1127.03 -107.609L1046.1 -194.578C1045.25 -195.497 1044.06 -196.023 1042.86 -196.023H1042.82L977.864 -195.551H977.835C975.466 -195.551 973.538 -197.591 973.523 -200.133C973.509 -202.683 975.423 -204.762 977.806 -204.777L1042.76 -205.249H1042.85L1042.86 -205.241Z" fill="#008BCD"/>
<path d="M822.851 -140.511C825.228 -140.511 827.163 -138.448 827.163 -135.898V-103.266C827.163 -99.5495 825.827 -96.0492 823.4 -93.391L811.252 -80.0849C810.414 -79.1576 809.952 -77.9445 809.952 -76.6618V20.6384C809.952 23.1806 808.024 25.2515 805.641 25.2515C803.257 25.2515 801.329 23.1806 801.329 20.6384V-76.6695C801.329 -80.3785 802.665 -83.8866 805.084 -86.537L817.232 -99.8432C818.07 -100.763 818.54 -101.976 818.54 -103.266V-135.898C818.54 -138.44 820.475 -140.511 822.851 -140.511Z" fill="#008BCD"/>
<path d="M908.913 -167.935C911.289 -167.935 913.224 -165.871 913.224 -163.321V-121.464C913.224 -120.173 913.694 -118.952 914.539 -118.025L926.636 -104.881C929.084 -102.223 930.435 -98.6994 930.435 -94.9749V-56.7719C930.435 -53.0011 929.063 -49.4543 926.571 -46.7808L914.568 -33.9383C913.715 -33.0265 913.231 -31.7669 913.231 -30.4765V39.06C913.231 41.61 911.303 43.6731 908.92 43.6731C906.536 43.6731 904.608 41.61 904.608 39.06V-30.4688C904.608 -34.2396 905.98 -37.7864 908.472 -40.4522L920.475 -53.2947C921.342 -54.222 921.819 -55.4506 921.819 -56.7642V-94.9672C921.819 -96.2576 921.349 -97.4785 920.504 -98.4058L908.4 -111.55C905.951 -114.208 904.601 -117.731 904.601 -121.456V-163.314C904.601 -165.864 906.529 -167.927 908.913 -167.927" fill="#008BCD"/>
<path d="M891.694 -167.935C894.077 -167.935 896.006 -165.872 896.006 -163.322V-130.435C896.006 -126.664 894.634 -123.117 892.135 -120.444L880.131 -107.601C879.265 -106.682 878.795 -105.445 878.795 -104.147L878.708 -1.53856C878.708 2.24001 877.329 5.7945 874.823 8.46036L860.32 23.8992L845.717 39.5235C843.225 42.1893 839.91 43.6575 836.386 43.6575L805.553 43.6575C803.177 43.6575 801.242 41.5943 801.242 39.0444C801.242 36.4944 803.17 34.4313 805.553 34.4313L836.386 34.4313C837.606 34.4313 838.754 33.9213 839.621 32.994L854.232 17.362L868.742 1.91548C869.615 0.988222 870.092 -0.240397 870.092 -1.55401L870.179 -104.163C870.179 -107.926 871.551 -111.473 874.043 -114.131L886.046 -126.981C886.913 -127.908 887.39 -129.137 887.39 -130.443V-163.329C887.39 -165.879 889.318 -167.942 891.701 -167.942" fill="#008BCD"/>
<path d="M1101.89 -2.19526H1115.46C1117.84 -2.19526 1119.77 -0.13211 1119.77 2.41784C1119.77 4.9678 1117.84 7.03095 1115.46 7.03095H1101.89C1100.68 7.03095 1099.54 7.53321 1098.67 8.43729L1086.62 21.133C1085.76 22.0448 1085.26 23.3197 1085.26 24.6256V48.2475C1085.26 50.7897 1083.32 52.8606 1080.95 52.8606C1078.57 52.8606 1076.64 50.7974 1076.64 48.2475V24.6179C1076.64 20.8625 1078.07 17.1921 1080.57 14.5572L1092.63 1.86149C1095.11 -0.758009 1098.4 -2.20298 1101.89 -2.20298" fill="#008BCD"/>
<path d="M969.053 16.0253H991.196C994.721 16.0253 998.036 17.4935 1000.53 20.1593L1012.53 32.9941C1013.4 33.9214 1014.55 34.4236 1015.77 34.4236L1063.77 34.4391C1066.15 34.4391 1068.08 36.5022 1068.08 39.0522C1068.08 41.6021 1066.15 43.6653 1063.77 43.6653L1015.77 43.6498C1012.24 43.6498 1008.93 42.1817 1006.44 39.5158L994.432 26.681C993.565 25.7538 992.417 25.2515 991.196 25.2515H969.053C966.677 25.2515 964.741 23.1806 964.741 20.6384C964.741 18.0962 966.677 16.0253 969.053 16.0253Z" fill="#008BCD"/>
<path d="M1201.43 34.4313H1218.64C1221.03 34.4313 1222.95 36.4944 1222.95 39.0444C1222.95 41.5943 1221.03 43.6575 1218.64 43.6575H1201.43C1199.05 43.6575 1197.12 41.5943 1197.12 39.0444C1197.12 36.4944 1199.05 34.4313 1201.43 34.4313Z" fill="#008BCD"/>
<path d="M822.851 -75.8579C825.227 -75.8579 827.163 -73.7948 827.163 -71.2448V-47.9398C827.163 -46.6493 827.625 -45.4284 828.47 -44.5089L840.589 -31.3187C843.03 -28.6606 844.374 -25.1447 844.374 -21.4202V11.4201C844.374 13.9623 842.445 16.0332 840.062 16.0332C837.678 16.0332 835.75 13.9701 835.75 11.4201V-21.4202C835.75 -22.7107 835.288 -23.9316 834.436 -24.8511L822.324 -38.049C819.883 -40.7072 818.539 -44.223 818.539 -47.9475V-71.2525C818.539 -73.8025 820.475 -75.8656 822.851 -75.8656" fill="#008BCD"/>
<path d="M822.851 -20.609C825.228 -20.609 827.163 -18.5459 827.163 -15.9959V20.6462C827.163 23.1884 825.228 25.2593 822.851 25.2593C820.475 25.2593 818.54 23.1884 818.54 20.6462V-15.9959C818.54 -18.5381 820.475 -20.609 822.851 -20.609Z" fill="#008BCD"/>
<path d="M943.334 -85.0609C945.71 -85.0609 947.646 -82.9977 947.646 -80.4478V-47.4915C947.646 -43.7825 946.317 -40.2821 943.897 -37.6317L931.735 -24.2947C930.897 -23.3751 930.435 -22.162 930.435 -20.8715V25.924C930.435 27.2299 930.911 28.4585 931.764 29.378L946.302 44.9946C947.985 46.8027 947.978 49.7159 946.288 51.5163C944.605 53.309 941.875 53.309 940.192 51.5008L925.653 35.8766C923.176 33.2107 921.811 29.6717 921.811 25.9163V-20.8793C921.811 -24.5883 923.14 -28.0887 925.56 -30.7391L937.715 -44.0761C938.553 -44.9957 939.015 -46.2088 939.015 -47.4992V-80.4555C939.015 -83.0055 940.943 -85.0686 943.327 -85.0686" fill="#008BCD"/>
<path d="M977.756 -186.348C980.132 -186.348 982.068 -184.278 982.06 -181.728L982.017 -93.5997C982.017 -92.3092 982.508 -91.042 983.368 -90.1302L995.4 -77.2877C997.87 -74.6604 999.278 -71.0132 999.278 -67.2888V-19.9291C999.278 -16.1583 997.906 -12.6115 995.414 -9.93794L983.411 2.90456C980.919 5.57042 977.604 7.03857 974.08 7.03857L960.458 7.03857C958.082 7.03857 956.147 4.97543 956.147 2.42548C956.147 -0.12448 958.082 -2.18763 960.458 -2.18763L974.08 -2.18763C975.307 -2.18763 976.456 -2.69762 977.315 -3.61715L989.319 -16.4596C990.185 -17.3869 990.655 -18.6155 990.655 -19.9214V-67.281C990.655 -68.5715 990.164 -69.8387 989.312 -70.7505L977.279 -83.593C974.809 -86.228 973.393 -89.8752 973.401 -93.5997L973.444 -181.728C973.444 -184.27 975.38 -186.341 977.756 -186.341" fill="#008BCD"/>
<path d="M908.912 -94.2718C911.288 -94.2718 913.224 -92.2009 913.224 -89.6587V-66.4154C913.224 -62.6523 911.851 -59.1133 909.367 -56.4397L897.349 -43.5586C896.489 -42.6313 896.013 -41.4104 896.013 -40.0968V39.06C896.013 41.61 894.084 43.6731 891.701 43.6731C889.318 43.6731 887.389 41.61 887.389 39.06V-40.0968C887.389 -43.8599 888.762 -47.4067 891.246 -50.0725L903.264 -62.9537C904.123 -63.8809 904.6 -65.1095 904.6 -66.4077V-89.6509C904.6 -92.1932 906.529 -94.264 908.912 -94.264" fill="#008BCD"/>
<path d="M1115.37 -39.2159C1117.74 -39.2159 1119.67 -37.1682 1119.68 -34.6337C1119.7 -32.0838 1117.77 -30.0052 1115.39 -29.9897L1086.27 -29.8197C1085.1 -29.8197 1083.99 -29.3329 1083.14 -28.4675L1052.15 3.13653C1049.68 5.64785 1046.45 7.03101 1043.04 7.03101L1003.47 7.03101C1001.1 7.03101 999.163 4.96786 999.163 2.4179C999.163 -0.132051 1001.1 -2.1952 1003.47 -2.1952L1043.04 -2.1952C1044.22 -2.1952 1045.34 -2.67428 1046.19 -3.54745L1077.19 -35.1514C1079.63 -37.6396 1082.84 -39.0305 1086.22 -39.0459L1115.33 -39.2159H1115.36H1115.37Z" fill="#008BCD"/>
<path d="M1093.22 -20.8022H1115.45C1117.83 -20.8022 1119.76 -18.739 1119.76 -16.1891C1119.76 -13.6391 1117.83 -11.576 1115.45 -11.576H1093.22C1092 -11.576 1090.85 -11.066 1089.98 -10.1387L1060.76 21.1175C1058.27 23.7834 1054.95 25.2593 1051.42 25.2593L1020.68 25.2593C1018.3 25.2593 1016.37 23.1884 1016.37 20.6462C1016.37 18.1039 1018.3 16.0331 1020.68 16.0331L1051.42 16.0331C1052.63 16.0331 1053.81 15.5154 1054.66 14.5958L1083.87 -16.6604C1086.36 -19.3263 1089.68 -20.8022 1093.21 -20.8022" fill="#008BCD"/>
<path d="M1167.07 -94.2717C1169.45 -94.2717 1171.38 -92.2008 1171.38 -89.6586V-10.9345C1171.38 -7.20228 1169.96 -3.55507 1167.49 -0.927842L1155.53 11.8219C1154.66 12.7415 1154.18 13.9701 1154.18 15.276L1154.1 48.2554C1154.1 50.7976 1152.17 52.853 1149.79 52.853H1149.78C1147.4 52.853 1145.47 50.7822 1145.48 48.2322L1145.55 15.2528C1145.57 11.4819 1146.94 7.93518 1149.44 5.27705L1161.4 -7.47273C1162.27 -8.39999 1162.76 -9.6286 1162.76 -10.9422V-89.6663C1162.76 -92.2085 1164.68 -94.2794 1167.07 -94.2794" fill="#008BCD"/>
<path d="M1098.24 25.2206H1098.26C1100.64 25.2361 1102.56 27.307 1102.55 29.8569L1102.47 48.2707C1102.46 50.8052 1100.54 52.8606 1098.16 52.8606H1098.14C1095.75 52.8451 1093.83 50.7743 1093.85 48.2243L1093.93 29.8105C1093.94 27.276 1095.87 25.2206 1098.24 25.2206Z" fill="#008BCD"/>
<path d="M943.334 -20.6089C945.71 -20.6089 947.646 -18.5458 947.646 -15.9958V16.7054C947.646 18.0113 948.122 19.2476 948.989 20.1671L960.993 33.0096C961.845 33.9214 963.022 34.4469 964.228 34.4469H986.271C988.647 34.4469 990.583 36.51 990.583 39.06C990.583 41.61 988.654 43.6731 986.271 43.6731H964.228C960.697 43.6731 957.389 42.2049 954.89 39.5391L942.886 26.6966C940.395 24.0307 939.022 20.484 939.022 16.7131V-15.9881C939.022 -18.5303 940.951 -20.6012 943.334 -20.6012" fill="#008BCD"/>
<path d="M1205.13 -76.0434H1215.02C1218.53 -76.0434 1221.94 -74.5211 1224.41 -71.8553L1236.43 -58.8582C1238.9 -56.1847 1240.26 -52.6456 1240.25 -48.8902L1240.18 -16.1736C1240.18 -13.6313 1238.24 -11.5759 1235.87 -11.5759H1235.85C1233.47 -11.5759 1231.55 -13.6468 1231.55 -16.1967L1231.62 -48.9134C1231.62 -50.2193 1231.16 -51.4402 1230.3 -52.3674L1218.27 -65.3645C1217.42 -66.284 1216.24 -66.8172 1215.02 -66.8172H1205.13C1203.92 -66.8172 1202.74 -66.2917 1201.89 -65.3722L1189.95 -52.5374C1189.09 -51.6179 1188.62 -50.3816 1188.62 -49.0834V-1.71608C1188.62 2.01613 1187.2 5.66334 1184.73 8.29056L1172.67 21.1253C1171.81 22.0371 1171.32 23.3044 1171.32 24.5948V48.2553C1171.32 50.7975 1169.39 52.8684 1167.01 52.8684C1164.63 52.8684 1162.7 50.8053 1162.7 48.2553V24.5948C1162.7 20.8626 1164.11 17.2154 1166.59 14.5804L1178.64 1.74568C1179.5 0.833877 1180 -0.433377 1180 -1.72381V-49.0911C1180 -52.8465 1181.36 -56.3856 1183.84 -59.0514L1195.77 -71.8862C1198.23 -74.5289 1201.64 -76.0434 1205.13 -76.0434Z" fill="#008BCD"/>
<path d="M771.096 -2.38835C773.472 -2.38835 775.408 -0.325205 775.408 2.22475V16.7131C775.408 20.4762 774.043 24.0153 771.558 26.6811L759.584 39.5236C757.085 42.1972 753.77 43.6731 750.238 43.6731L706.008 43.6731C702.527 43.6731 699.118 42.1586 696.663 39.5236L684.71 26.6966C683.857 25.7848 682.673 25.2593 681.467 25.2593L671.543 25.2593C670.337 25.2593 669.16 25.7771 668.308 26.6889L656.304 39.5314C655.438 40.4509 654.968 41.6872 654.968 42.9931V48.2553C654.968 50.7975 653.04 52.8684 650.656 52.8684C648.273 52.8684 646.345 50.8053 646.345 48.2553V43.0009C646.345 39.23 647.717 35.6833 650.209 33.0174L662.212 20.1749C664.704 17.509 668.019 16.0409 671.551 16.0409H681.474C684.955 16.0409 688.364 17.5554 690.82 20.1903L702.773 33.0174C703.625 33.9369 704.809 34.4624 706.016 34.4624L750.245 34.4624C751.473 34.4624 752.621 33.9524 753.488 33.0174L765.455 20.1826C766.315 19.2631 766.791 18.0345 766.791 16.7286V2.24021C766.791 -0.30202 768.72 -2.37289 771.103 -2.37289" fill="#008BCD"/>
<path d="M650.642 -20.8025L698.598 -20.8025C702.13 -20.8025 705.438 -19.3343 707.937 -16.6607L719.94 -3.81823C720.807 -2.89098 721.955 -2.38098 723.176 -2.38098L753.921 -2.38098C756.297 -2.38098 758.233 -0.317838 758.233 2.23212C758.233 4.78207 756.305 6.84521 753.921 6.84521L723.176 6.84521C719.651 6.84521 716.336 5.37706 713.844 2.7112L701.841 -10.1313C700.974 -11.0508 699.826 -11.5685 698.598 -11.5685L650.642 -11.5685C648.266 -11.5685 646.33 -13.6317 646.33 -16.1816C646.33 -18.7316 648.258 -20.7948 650.642 -20.7948" fill="#008BCD"/>
<path d="M1115.37 16.0254C1117.75 16.0254 1119.68 18.0886 1119.68 20.6385V48.2553C1119.68 50.7975 1117.75 52.8684 1115.37 52.8684C1112.99 52.8684 1111.06 50.8053 1111.06 48.2553V20.6462C1111.06 18.0963 1112.99 16.0331 1115.37 16.0331" fill="#008BCD"/>
<path d="M1218.64 -48.4422C1221.02 -48.4422 1222.95 -46.3791 1222.95 -43.8369L1223.03 20.6306C1223.03 23.1729 1221.1 25.2437 1218.73 25.2515H1218.72C1216.35 25.2515 1214.42 23.1883 1214.41 20.6461L1214.33 -43.8214C1214.33 -46.3636 1216.26 -48.4345 1218.63 -48.4422H1218.64Z" fill="#008BCD"/>
<path d="M874.404 25.2204C875.502 25.2204 876.614 25.6686 877.452 26.5727C879.135 28.3731 879.135 31.294 877.452 33.0944L860.241 51.5081C858.558 53.3163 855.828 53.3163 854.145 51.5081C852.462 49.7077 852.462 46.7869 854.145 44.9864L871.356 26.5727C872.194 25.6686 873.306 25.2204 874.404 25.2204Z" fill="#008BCD"/>
<path d="M1270.15 -48.4423C1272.53 -48.4423 1274.46 -46.3714 1274.46 -43.8292V-1.70855C1274.46 2.04684 1273.11 5.57041 1270.64 8.23627L1258.71 21.102C1257.85 22.0215 1257.38 23.2501 1257.38 24.556V39.0444C1257.38 41.5943 1255.45 43.6575 1253.07 43.6575C1250.69 43.6575 1248.76 41.5943 1248.76 39.0444V24.5637C1248.76 20.8083 1250.12 17.2848 1252.59 14.6189L1264.51 1.75321C1265.36 0.82595 1265.84 -0.394937 1265.84 -1.6931V-43.8137C1265.84 -46.3559 1267.78 -48.4268 1270.15 -48.4268" fill="#008BCD"/>
<path d="M788.422 -11.4057C790.805 -11.4057 792.734 -9.33481 792.727 -6.78486L792.647 48.3946C792.647 50.9369 790.711 53 788.335 53H788.328C785.952 53 784.024 50.9291 784.024 48.3792L784.103 -6.80031C784.103 -9.34254 786.039 -11.4057 788.415 -11.4057" fill="#008BCD"/>
<path d="M563.812 -48.4422C566.188 -48.4422 568.124 -46.3713 568.124 -43.8291V7.46367C568.124 11.1959 566.708 14.8431 564.238 17.478L552.184 30.3205C551.324 31.2323 550.833 32.4996 550.833 33.79V48.2475C550.833 50.7897 548.905 52.8606 546.522 52.8606C544.138 52.8606 542.21 50.7974 542.21 48.2475V33.79C542.21 30.0578 543.625 26.4106 546.103 23.7757L558.157 10.9332C559.009 10.0213 559.507 8.7541 559.507 7.46367V-43.8291C559.507 -46.3713 561.436 -48.4422 563.819 -48.4422" fill="#008BCD"/>
<path d="M25.1914 -2.36533H25.2564L52.3546 -2.21078C55.8213 -2.1876 59.0858 -0.742623 61.5558 1.85369L73.6532 14.6189C74.5127 15.5307 75.6538 16.0253 76.8671 16.0253L107.685 16.0253C110.061 16.0253 111.997 18.0884 111.997 20.6384C111.997 23.1883 110.061 25.2515 107.685 25.2515L76.8671 25.2515C73.3715 25.2515 70.0854 23.8065 67.5937 21.187L55.4963 8.42176C54.6368 7.52541 53.5029 7.02315 52.304 7.01542L25.2131 6.86088H25.1914C23.9852 6.86088 22.808 7.38633 21.9558 8.2904L7.36667 23.8992C5.68386 25.6996 2.95382 25.6996 1.27102 23.8992C-0.411788 22.0988 -0.411788 19.1779 1.27102 17.3775L15.8601 1.7687C18.3229 -0.858531 21.7247 -2.36533 25.1986 -2.36533" fill="#008BCD"/>
<path d="M563.812 -94.465H563.84L585.97 -94.3027C589.407 -94.2795 592.658 -92.85 595.113 -90.2768L601.144 -83.9638L615.805 -68.3009C618.304 -65.635 619.676 -62.0882 619.676 -58.3097V-10.9501C619.676 -7.17148 618.304 -3.62472 615.805 -0.95886L603.787 11.8836C602.935 12.7954 602.437 14.0627 602.444 15.3531L602.465 39.0291C602.465 41.5713 600.537 43.6422 598.161 43.6499C595.785 43.6499 593.849 41.5868 593.849 39.0445L593.828 15.3686C593.828 11.6441 595.236 7.99689 597.699 5.36194L609.717 -7.48056C610.583 -8.40009 611.06 -9.63644 611.06 -10.9423V-58.3019C611.06 -59.6156 610.583 -60.8442 609.717 -61.7714L595.091 -77.4034L589.09 -83.6856C588.237 -84.5742 587.111 -85.0688 585.919 -85.0842L563.79 -85.2465C561.406 -85.2619 559.493 -87.3405 559.507 -89.8905C559.529 -92.425 561.45 -94.4727 563.819 -94.4727" fill="#008BCD"/>
<path d="M641.033 16.0254C642.138 16.0254 643.243 16.4736 644.081 17.3777C645.763 19.1781 645.763 22.0989 644.081 23.8994L638.093 30.3129C637.227 31.2402 636.757 32.4688 636.757 33.7747L636.757 48.2553C636.757 50.7975 634.829 52.8684 632.445 52.8684C630.062 52.8684 628.134 50.8053 628.134 48.2553V33.7747C628.134 30.0038 629.506 26.4571 631.998 23.7912L637.985 17.3854C638.823 16.4813 639.935 16.0331 641.033 16.0331" fill="#008BCD"/>
<path d="M405.152 -205.241C408.64 -205.241 412.049 -203.727 414.512 -201.084L495.431 -114.123C497.916 -111.457 499.281 -107.91 499.273 -104.147L499.194 48.2477C499.194 50.7899 497.266 52.853 494.882 52.853C492.499 52.853 490.57 50.7899 490.57 48.2399L490.65 -104.155C490.65 -105.461 490.18 -106.689 489.321 -107.609L408.395 -194.578C407.543 -195.497 406.358 -196.023 405.152 -196.023H405.116L340.158 -195.551H340.129C337.76 -195.551 335.832 -197.591 335.818 -200.133C335.803 -202.683 337.717 -204.762 340.1 -204.777L405.058 -205.249H405.145L405.152 -205.241Z" fill="#008BCD"/>
<path d="M185.144 -140.511C187.52 -140.511 189.456 -138.448 189.456 -135.898V-103.266C189.456 -99.5495 188.12 -96.0492 185.693 -93.391L173.545 -80.0849C172.707 -79.1576 172.245 -77.9445 172.245 -76.6618V20.6384C172.245 23.1806 170.317 25.2515 167.934 25.2515C165.55 25.2515 163.622 23.1806 163.622 20.6384V-76.6695C163.622 -80.3785 164.958 -83.8866 167.377 -86.537L179.525 -99.8432C180.363 -100.763 180.833 -101.976 180.833 -103.266V-135.898C180.833 -138.44 182.768 -140.511 185.144 -140.511Z" fill="#008BCD"/>
<path d="M271.205 -167.935C273.582 -167.935 275.517 -165.871 275.517 -163.321V-121.464C275.517 -120.173 275.987 -118.952 276.832 -118.025L288.929 -104.881C291.377 -102.223 292.728 -98.6994 292.728 -94.9749V-56.7719C292.728 -53.0011 291.356 -49.4543 288.864 -46.7808L276.861 -33.9383C276.008 -33.0265 275.524 -31.7669 275.524 -30.4765V39.06C275.524 41.61 273.596 43.6731 271.213 43.6731C268.829 43.6731 266.901 41.61 266.901 39.06V-30.4688C266.901 -34.2396 268.273 -37.7864 270.765 -40.4522L282.768 -53.2947C283.635 -54.222 284.112 -55.4506 284.112 -56.7642V-94.9672C284.112 -96.2576 283.642 -97.4785 282.797 -98.4058L270.693 -111.55C268.244 -114.208 266.894 -117.731 266.894 -121.456V-163.314C266.894 -165.864 268.822 -167.927 271.205 -167.927" fill="#008BCD"/>
<path d="M253.988 -167.935C256.371 -167.935 258.3 -165.872 258.3 -163.322V-130.435C258.3 -126.664 256.928 -123.117 254.429 -120.444L242.425 -107.601C241.558 -106.682 241.089 -105.445 241.089 -104.147L241.002 -1.53856C241.002 2.24001 239.623 5.7945 237.117 8.46036L222.614 23.8992L208.011 39.5235C205.519 42.1893 202.204 43.6575 198.679 43.6575L167.847 43.6575C165.471 43.6575 163.536 41.5943 163.536 39.0444C163.536 36.4944 165.464 34.4313 167.847 34.4313L198.679 34.4313C199.9 34.4313 201.048 33.9213 201.915 32.994L216.526 17.362L231.036 1.91548C231.909 0.988222 232.386 -0.240397 232.386 -1.55401L232.473 -104.163C232.473 -107.926 233.845 -111.473 236.337 -114.131L248.34 -126.981C249.207 -127.908 249.684 -129.137 249.684 -130.443V-163.329C249.684 -165.879 251.612 -167.942 253.995 -167.942" fill="#008BCD"/>
<path d="M464.179 -2.19526H477.749C480.133 -2.19526 482.061 -0.13211 482.061 2.41784C482.061 4.9678 480.133 7.03095 477.749 7.03095H464.179C462.972 7.03095 461.831 7.53321 460.965 8.43729L448.918 21.133C448.051 22.0448 447.553 23.3197 447.553 24.6256V48.2475C447.553 50.7897 445.617 52.8606 443.241 52.8606C440.865 52.8606 438.929 50.7974 438.929 48.2475V24.6179C438.929 20.8625 440.367 17.1921 442.865 14.5572L454.92 1.86149C457.404 -0.758009 460.69 -2.20298 464.179 -2.20298" fill="#008BCD"/>
<path d="M331.347 16.0253H353.49C357.015 16.0253 360.33 17.4935 362.822 20.1593L374.825 32.9941C375.692 33.9214 376.84 34.4236 378.061 34.4236L426.06 34.4391C428.444 34.4391 430.372 36.5022 430.372 39.0522C430.372 41.6021 428.444 43.6653 426.06 43.6653L378.061 43.6498C374.536 43.6498 371.221 42.1817 368.729 39.5158L356.726 26.681C355.859 25.7538 354.711 25.2515 353.49 25.2515H331.347C328.971 25.2515 327.035 23.1806 327.035 20.6384C327.035 18.0962 328.971 16.0253 331.347 16.0253Z" fill="#008BCD"/>
<path d="M563.725 34.4313H580.936C583.319 34.4313 585.248 36.4944 585.248 39.0444C585.248 41.5943 583.319 43.6575 580.936 43.6575H563.725C561.342 43.6575 559.413 41.5943 559.413 39.0444C559.413 36.4944 561.342 34.4313 563.725 34.4313Z" fill="#008BCD"/>
<path d="M185.144 -75.8579C187.521 -75.8579 189.456 -73.7948 189.456 -71.2448V-47.9398C189.456 -46.6493 189.918 -45.4284 190.763 -44.5089L202.882 -31.3187C205.324 -28.6606 206.667 -25.1447 206.667 -21.4202V11.4201C206.667 13.9623 204.739 16.0332 202.355 16.0332C199.972 16.0332 198.044 13.9701 198.044 11.4201V-21.4202C198.044 -22.7107 197.581 -23.9316 196.729 -24.8511L184.617 -38.049C182.176 -40.7072 180.833 -44.223 180.833 -47.9475V-71.2525C180.833 -73.8025 182.768 -75.8656 185.144 -75.8656" fill="#008BCD"/>
<path d="M185.144 -20.609C187.52 -20.609 189.456 -18.5459 189.456 -15.9959V20.6462C189.456 23.1884 187.52 25.2593 185.144 25.2593C182.768 25.2593 180.833 23.1884 180.833 20.6462V-15.9959C180.833 -18.5381 182.768 -20.609 185.144 -20.609Z" fill="#008BCD"/>
<path d="M305.628 -85.0609C308.004 -85.0609 309.939 -82.9977 309.939 -80.4478V-47.4915C309.939 -43.7825 308.611 -40.2821 306.191 -37.6317L294.029 -24.2947C293.191 -23.3751 292.729 -22.162 292.729 -20.8715V25.924C292.729 27.2299 293.205 28.4585 294.058 29.378L308.596 44.9946C310.279 46.8027 310.272 49.7159 308.582 51.5163C306.899 53.309 304.169 53.309 302.486 51.5008L287.947 35.8766C285.47 33.2107 284.105 29.6717 284.105 25.9163V-20.8793C284.105 -24.5883 285.434 -28.0887 287.854 -30.7391L300.009 -44.0761C300.847 -44.9957 301.309 -46.2088 301.309 -47.4992V-80.4555C301.309 -83.0055 303.237 -85.0686 305.62 -85.0686" fill="#008BCD"/>
<path d="M340.049 -186.348C342.425 -186.348 344.361 -184.278 344.354 -181.728L344.31 -93.5997C344.31 -92.3092 344.802 -91.042 345.661 -90.1302L357.693 -77.2877C360.163 -74.6604 361.572 -71.0132 361.572 -67.2888V-19.9291C361.572 -16.1583 360.2 -12.6115 357.708 -9.93794L345.704 2.90456C343.213 5.57042 339.898 7.03857 336.373 7.03857L322.752 7.03857C320.376 7.03857 318.44 4.97543 318.44 2.42548C318.44 -0.12448 320.376 -2.18763 322.752 -2.18763L336.373 -2.18763C337.601 -2.18763 338.749 -2.69762 339.609 -3.61715L351.612 -16.4596C352.479 -17.3869 352.948 -18.6155 352.948 -19.9214V-67.281C352.948 -68.5715 352.457 -69.8387 351.605 -70.7505L339.573 -83.593C337.103 -86.228 335.687 -89.8752 335.694 -93.5997L335.738 -181.728C335.738 -184.27 337.673 -186.341 340.049 -186.341" fill="#008BCD"/>
<path d="M271.206 -94.2718C273.582 -94.2718 275.518 -92.2009 275.518 -89.6587V-66.4154C275.518 -62.6523 274.145 -59.1133 271.661 -56.4397L259.643 -43.5586C258.783 -42.6313 258.307 -41.4104 258.307 -40.0968V39.06C258.307 41.61 256.378 43.6731 253.995 43.6731C251.612 43.6731 249.683 41.61 249.683 39.06V-40.0968C249.683 -43.8599 251.056 -47.4067 253.54 -50.0725L265.558 -62.9537C266.417 -63.8809 266.894 -65.1095 266.894 -66.4077V-89.6509C266.894 -92.1932 268.822 -94.264 271.206 -94.264" fill="#008BCD"/>
<path d="M477.663 -39.2159C480.032 -39.2159 481.961 -37.1682 481.975 -34.6337C481.989 -32.0838 480.068 -30.0052 477.685 -29.9897L448.565 -29.8197C447.394 -29.8197 446.282 -29.3329 445.43 -28.4675L414.439 3.13653C411.976 5.64785 408.741 7.03101 405.332 7.03101L365.768 7.03101C363.392 7.03101 361.456 4.96786 361.456 2.4179C361.456 -0.132051 363.392 -2.1952 365.768 -2.1952L405.332 -2.1952C406.509 -2.1952 407.636 -2.67428 408.488 -3.54745L439.479 -35.1514C441.927 -37.6396 445.134 -39.0305 448.514 -39.0459L477.627 -39.2159H477.649H477.663Z" fill="#008BCD"/>
<path d="M455.512 -20.8022H477.742C480.126 -20.8022 482.054 -18.739 482.054 -16.1891C482.054 -13.6391 480.126 -11.576 477.742 -11.576H455.512C454.292 -11.576 453.143 -11.066 452.277 -10.1387L423.055 21.1175C420.563 23.7834 417.248 25.2593 413.716 25.2593L382.978 25.2593C380.595 25.2593 378.667 23.1884 378.667 20.6462C378.667 18.1039 380.595 16.0331 382.978 16.0331L413.716 16.0331C414.923 16.0331 416.1 15.5154 416.952 14.5958L446.166 -16.6604C448.658 -19.3263 451.973 -20.8022 455.505 -20.8022" fill="#008BCD"/>
<path d="M529.361 -94.2717C531.744 -94.2717 533.673 -92.2008 533.673 -89.6586V-10.9345C533.673 -7.20228 532.257 -3.55507 529.787 -0.927842L517.82 11.8219C516.953 12.7415 516.476 13.9701 516.469 15.276L516.397 48.2554C516.397 50.7976 514.461 52.853 512.085 52.853H512.071C509.695 52.853 507.766 50.7822 507.774 48.2322L507.846 15.2528C507.86 11.4819 509.232 7.93518 511.731 5.27705L523.699 -7.47273C524.565 -8.39999 525.049 -9.6286 525.049 -10.9422V-89.6663C525.049 -92.2085 526.978 -94.2794 529.361 -94.2794" fill="#008BCD"/>
<path d="M460.532 25.2206H460.554C462.937 25.2361 464.858 27.307 464.844 29.8569L464.764 48.2707C464.75 50.8052 462.829 52.8606 460.452 52.8606H460.431C458.047 52.8451 456.126 50.7743 456.141 48.2243L456.22 29.8105C456.235 27.276 458.163 25.2206 460.532 25.2206Z" fill="#008BCD"/>
<path d="M305.627 -20.6089C308.004 -20.6089 309.939 -18.5458 309.939 -15.9958V16.7054C309.939 18.0113 310.416 19.2476 311.283 20.1671L323.286 33.0096C324.138 33.9214 325.316 34.4469 326.522 34.4469H348.564C350.94 34.4469 352.876 36.51 352.876 39.06C352.876 41.61 350.948 43.6731 348.564 43.6731H326.522C322.99 43.6731 319.682 42.2049 317.183 39.5391L305.18 26.6966C302.688 24.0307 301.316 20.484 301.316 16.7131V-15.9881C301.316 -18.5303 303.244 -20.6012 305.627 -20.6012" fill="#008BCD"/>
<path d="M567.422 -76.0434H577.317C580.82 -76.0434 584.236 -74.5211 586.699 -71.8553L598.724 -58.8582C601.194 -56.1847 602.552 -52.6456 602.544 -48.8902L602.472 -16.1736C602.472 -13.6313 600.537 -11.5759 598.16 -11.5759H598.146C595.763 -11.5759 593.841 -13.6468 593.841 -16.1967L593.914 -48.9134C593.914 -50.2193 593.451 -51.4402 592.592 -52.3674L580.567 -65.3645C579.715 -66.284 578.53 -66.8172 577.317 -66.8172H567.422C566.216 -66.8172 565.032 -66.2917 564.179 -65.3722L552.241 -52.5374C551.381 -51.6179 550.912 -50.3816 550.912 -49.0834V-1.71608C550.912 2.01613 549.496 5.66334 547.026 8.29056L534.965 21.1253C534.106 22.0371 533.614 23.3044 533.614 24.5948V48.2553C533.614 50.7975 531.686 52.8684 529.303 52.8684C526.919 52.8684 524.991 50.8053 524.991 48.2553V24.5948C524.991 20.8626 526.407 17.2154 528.884 14.5804L540.938 1.74568C541.797 0.833877 542.288 -0.433377 542.288 -1.72381V-49.0911C542.288 -52.8465 543.654 -56.3856 546.131 -59.0514L558.062 -71.8862C560.525 -74.5289 563.934 -76.0434 567.422 -76.0434Z" fill="#008BCD"/>
<path d="M133.39 -2.38835C135.766 -2.38835 137.702 -0.325205 137.702 2.22475V16.7131C137.702 20.4762 136.337 24.0153 133.852 26.6811L121.878 39.5236C119.379 42.1972 116.064 43.6731 112.532 43.6731L68.3023 43.6731C64.8211 43.6731 61.4121 42.1586 58.9566 39.5236L47.0036 26.6966C46.1514 25.7848 44.9669 25.2593 43.7608 25.2593L33.8373 25.2593C32.6312 25.2593 31.4539 25.7771 30.6017 26.6889L18.5982 39.5314C17.7315 40.4509 17.262 41.6872 17.262 42.9931V48.2553C17.262 50.7975 15.3337 52.8684 12.9503 52.8684C10.5669 52.8684 8.63858 50.8053 8.63858 48.2553V43.0009C8.63858 39.23 10.0108 35.6833 12.5025 33.0174L24.506 20.1749C26.9977 17.509 30.3128 16.0409 33.8445 16.0409H43.768C47.2492 16.0409 50.6581 17.5554 53.1137 20.1903L65.0667 33.0174C65.9189 33.9369 67.1034 34.4624 68.3095 34.4624L112.539 34.4624C113.767 34.4624 114.915 33.9524 115.782 33.0174L127.749 20.1826C128.609 19.2631 129.085 18.0345 129.085 16.7286V2.24021C129.085 -0.30202 131.014 -2.37289 133.397 -2.37289" fill="#008BCD"/>
<path d="M12.9353 -20.8025L60.8916 -20.8025C64.4233 -20.8025 67.7311 -19.3343 70.23 -16.6607L82.2335 -3.81823C83.1002 -2.89098 84.2486 -2.38098 85.4692 -2.38098L116.215 -2.38098C118.591 -2.38098 120.526 -0.317838 120.526 2.23212C120.526 4.78207 118.598 6.84521 116.215 6.84521L85.4692 6.84521C81.9447 6.84521 78.6296 5.37706 76.1379 2.7112L64.1344 -10.1313C63.2677 -11.0508 62.1194 -11.5685 60.8916 -11.5685L12.9353 -11.5685C10.5592 -11.5685 8.62355 -13.6317 8.62355 -16.1816C8.62355 -18.7316 10.5519 -20.7948 12.9353 -20.7948" fill="#008BCD"/>
<path d="M477.663 16.0254C480.047 16.0254 481.975 18.0886 481.975 20.6385V48.2553C481.975 50.7975 480.047 52.8684 477.663 52.8684C475.28 52.8684 473.352 50.8053 473.352 48.2553V20.6462C473.352 18.0963 475.287 16.0331 477.663 16.0331" fill="#008BCD"/>
<path d="M580.935 -48.4422C583.312 -48.4422 585.247 -46.3791 585.247 -43.8369L585.327 20.6306C585.327 23.1729 583.398 25.2437 581.022 25.2515H581.015C578.639 25.2515 576.71 23.1883 576.703 20.6461L576.624 -43.8214C576.624 -46.3636 578.552 -48.4345 580.928 -48.4422H580.935Z" fill="#008BCD"/>
<path d="M236.697 25.2204C237.795 25.2204 238.907 25.6686 239.745 26.5727C241.428 28.3731 241.428 31.294 239.745 33.0944L222.534 51.5081C220.852 53.3163 218.122 53.3163 216.439 51.5081C214.756 49.7077 214.756 46.7869 216.439 44.9864L233.65 26.5727C234.487 25.6686 235.6 25.2204 236.697 25.2204Z" fill="#008BCD"/>
<path d="M632.445 -48.4423C634.828 -48.4423 636.757 -46.3714 636.757 -43.8292V-1.70855C636.757 2.04684 635.399 5.57041 632.929 8.23627L621.005 21.102C620.145 22.0215 619.676 23.2501 619.676 24.556V39.0444C619.676 41.5943 617.748 43.6575 615.364 43.6575C612.981 43.6575 611.053 41.5943 611.053 39.0444V24.5637C611.053 20.8083 612.41 17.2848 614.88 14.6189L626.804 1.75321C627.657 0.82595 628.133 -0.394937 628.133 -1.6931V-43.8137C628.133 -46.3559 630.069 -48.4268 632.445 -48.4268" fill="#008BCD"/>
<path d="M150.715 -11.4057C153.099 -11.4057 155.027 -9.33481 155.02 -6.78486L154.941 48.3946C154.941 50.9369 153.005 53 150.629 53H150.622C148.245 53 146.317 50.9291 146.317 48.3792L146.397 -6.80031C146.397 -9.34254 148.332 -11.4057 150.708 -11.4057" fill="#008BCD"/>
</g>
<defs>
<clipPath id="clip0_25_4">
<rect width="1920" height="53" fill="white" transform="matrix(-1 0 0 -1 1920 53)"/>
</clipPath>
</defs>
</svg>
